<svg width="14" height="22" viewBox="0 0 14 22" fill="none" xmlns="http://www.w3.org/2000/svg">
<path fill-rule="evenodd" clip-rule="evenodd" d="M6.75095 22C6.55203 22 6.36127 21.921 6.22062 21.7803C6.07997 21.6397 6.00095 21.4489 6.00095 21.25L6.00095 3.5605L1.28195 8.281C1.14112 8.42183 0.95011 8.50095 0.750947 8.50095C0.551783 8.50095 0.360777 8.42183 0.219947 8.281C0.0791167 8.14017 -6.09489e-07 7.94916 -6.22887e-07 7.75C-6.36286e-07 7.55084 0.0791166 7.35983 0.219947 7.219L6.21995 1.219C6.28961 1.14915 6.37238 1.09374 6.4635 1.05593C6.55461 1.01812 6.6523 0.998659 6.75095 0.998659C6.8496 0.998659 6.94728 1.01812 7.0384 1.05593C7.12951 1.09374 7.21228 1.14915 7.28195 1.219L13.2819 7.219C13.4228 7.35983 13.5019 7.55084 13.5019 7.75C13.5019 7.94916 13.4228 8.14017 13.2819 8.281C13.1411 8.42183 12.9501 8.50095 12.7509 8.50095C12.5518 8.50095 12.3608 8.42183 12.2199 8.281L7.50095 3.5605L7.50095 21.25C7.50095 21.4489 7.42193 21.6397 7.28128 21.7803C7.14063 21.921 6.94986 22 6.75095 22Z" fill="white"/>
</svg>
