<svg width="101" height="71" viewBox="0 0 101 71" fill="none" xmlns="http://www.w3.org/2000/svg">
<path d="M83.9459 1.7079C82.9714 3.98511 82.078 6.42497 81.2659 9.02749C80.6163 11.4674 80.2102 13.9072 80.0478 16.3471C80.0478 18.6243 80.4538 20.7388 81.2659 22.6907C82.078 24.48 83.5398 25.9439 85.6513 27.0825C89.8742 29.3597 93.4475 32.2875 96.371 35.866C99.457 39.2818 101 43.5109 101 48.5533C101 51.6438 100.432 54.5716 99.2946 57.3368C98.1576 60.1019 96.5334 62.5418 94.422 64.6564C92.4729 66.6082 90.1178 68.1535 87.3567 69.2921C84.5956 70.4307 81.672 71 78.586 71C72.414 71 67.2166 68.8041 62.9937 64.4124C58.7707 60.0206 56.4969 54.7342 56.172 48.5533C55.6848 42.047 56.4969 36.0286 58.6083 30.4983C60.8822 24.8053 63.4809 19.8442 66.4045 15.6151C69.4905 11.386 72.4953 7.97022 75.4188 5.3677C78.3424 2.60252 80.3726 0.813287 81.5096 0C81.8344 0.162657 82.2405 0.406644 82.7277 0.731959L83.4586 1.46392C83.621 1.62657 83.7835 1.7079 83.9459 1.7079ZM27.9109 1.7079C26.9364 3.98511 26.0431 6.42497 25.231 9.02749C24.5813 11.4674 24.1752 13.9072 24.0128 16.3471C24.0128 18.6243 24.4189 20.7388 25.231 22.6907C26.0431 24.48 27.5048 25.9439 29.6163 27.0825C33.8392 29.3597 37.4125 32.2875 40.336 35.866C43.422 39.2818 44.965 43.5109 44.965 48.5533C44.965 51.6438 44.3966 54.5716 43.2596 57.3368C42.1227 60.1019 40.4985 62.5418 38.387 64.6564C36.438 66.6082 34.0829 68.1535 31.3217 69.2921C28.5606 70.4307 25.637 71 22.551 71C16.3791 71 11.1816 68.8041 6.95869 64.4124C2.73577 60.0206 0.461883 54.7342 0.137042 48.5533C-0.350219 42.047 0.461883 36.0286 2.57335 30.4983C4.84723 24.8053 7.44595 19.8442 10.3695 15.6151C13.4555 11.386 16.4603 7.97022 19.3838 5.3677C22.3074 2.60252 24.3377 0.813287 25.4746 0C25.7994 0.162657 26.2055 0.406644 26.6927 0.731959L27.4236 1.46392C27.5861 1.62657 27.7485 1.7079 27.9109 1.7079Z" fill="white" fill-opacity="0.05"/>
</svg>
