<svg width="375" height="1141" viewBox="0 0 375 1141" fill="none" xmlns="http://www.w3.org/2000/svg">
<path style="mix-blend-mode:color-dodge" fill-rule="evenodd" clip-rule="evenodd" d="M200.048 286.174C202.409 289.307 206.864 289.929 209.992 287.568C213.125 285.207 213.746 280.752 211.386 277.624C209.025 274.491 204.575 273.87 201.442 276.231C198.314 278.591 197.687 283.041 200.048 286.174Z" fill="url(#paint0_radial_38_9919)"/>
<path style="mix-blend-mode:color-dodge" fill-rule="evenodd" clip-rule="evenodd" d="M87.3805 262.128C89.7413 265.255 94.1915 265.883 97.3244 263.522C100.452 261.161 101.079 256.711 98.7181 253.578C96.3574 250.45 91.9071 249.823 88.7742 252.184C85.6414 254.545 85.0196 258.995 87.3805 262.128Z" fill="url(#paint1_radial_38_9919)"/>
<path style="mix-blend-mode:color-dodge" fill-rule="evenodd" clip-rule="evenodd" d="M82.1896 55.0528C84.5506 58.1857 89.006 58.8072 92.1335 56.4465C95.2664 54.0855 95.8881 49.6355 93.5272 46.5026C91.1665 43.3751 86.7162 42.748 83.5833 45.1089C80.4504 47.4699 79.8287 51.9199 82.1896 55.0528Z" fill="url(#paint2_radial_38_9919)"/>
<path style="mix-blend-mode:color-dodge" fill-rule="evenodd" clip-rule="evenodd" d="M161.108 608.108C163.469 611.235 167.919 611.862 171.051 609.496C174.184 607.135 174.806 602.685 172.445 599.552C170.084 596.425 165.634 595.798 162.501 598.158C159.374 600.519 158.747 604.975 161.108 608.102L161.108 608.108Z" fill="url(#paint3_radial_38_9919)"/>
<path style="mix-blend-mode:color-dodge" fill-rule="evenodd" clip-rule="evenodd" d="M283.515 688.851C285.876 691.984 290.326 692.606 293.459 690.245C296.587 687.884 297.214 683.434 294.853 680.301C292.492 677.173 288.042 676.552 284.909 678.907C281.776 681.268 281.154 685.718 283.515 688.851Z" fill="url(#paint4_radial_38_9919)"/>
<path style="mix-blend-mode:color-dodge" fill-rule="evenodd" clip-rule="evenodd" d="M234.832 743.352C237.192 746.479 241.643 747.107 244.776 744.746C247.903 742.385 248.53 737.935 246.169 734.802C243.809 731.674 239.358 731.047 236.225 733.408C233.098 735.769 232.471 740.224 234.832 743.352Z" fill="url(#paint5_radial_38_9919)"/>
<path style="mix-blend-mode:color-dodge" fill-rule="evenodd" clip-rule="evenodd" d="M318.877 826.929C321.238 830.057 325.688 830.684 328.821 828.318C331.954 825.957 332.576 821.507 330.215 818.374C327.854 815.246 323.404 814.619 320.271 816.98C317.138 819.341 316.516 823.791 318.877 826.924L318.877 826.929Z" fill="url(#paint6_radial_38_9919)"/>
<path style="mix-blend-mode:color-dodge" fill-rule="evenodd" clip-rule="evenodd" d="M194.761 673.982C197.122 677.115 201.578 677.737 204.705 675.376C207.833 673.015 208.46 668.565 206.099 665.432C203.738 662.299 199.288 661.678 196.155 664.039C193.022 666.4 192.401 670.855 194.761 673.982Z" fill="url(#paint7_radial_38_9919)"/>
<path style="mix-blend-mode:color-dodge" fill-rule="evenodd" clip-rule="evenodd" d="M296.34 574.934C298.701 578.061 303.151 578.688 306.284 576.327C309.411 573.967 310.033 569.511 307.677 566.384C305.317 563.256 300.867 562.634 297.733 564.99C294.601 567.351 293.979 571.806 296.34 574.934Z" fill="url(#paint8_radial_38_9919)"/>
<path style="mix-blend-mode:color-dodge" fill-rule="evenodd" clip-rule="evenodd" d="M262.686 554.94C265.046 558.067 269.496 558.689 272.629 556.334C275.757 553.973 276.384 549.517 274.018 546.39C271.657 543.262 267.207 542.635 264.074 544.996C260.941 547.357 260.319 551.807 262.68 554.94L262.686 554.94Z" fill="url(#paint9_radial_38_9919)"/>
<path style="mix-blend-mode:color-dodge" fill-rule="evenodd" clip-rule="evenodd" d="M241.782 1025.11C244.143 1028.23 248.599 1028.86 251.726 1026.5C254.854 1024.14 255.48 1019.68 253.114 1016.56C250.754 1013.43 246.303 1012.8 243.176 1015.17C240.043 1017.53 239.421 1021.98 241.782 1025.11L241.782 1025.11Z" fill="url(#paint10_radial_38_9919)"/>
<path style="mix-blend-mode:color-dodge" fill-rule="evenodd" clip-rule="evenodd" d="M324.659 490.545C327.02 493.678 331.47 494.3 334.603 491.939C337.736 489.578 338.358 485.122 335.997 481.995C333.636 478.862 329.186 478.24 326.053 480.601C322.92 482.962 322.298 487.412 324.659 490.545Z" fill="url(#paint11_radial_38_9919)"/>
<path style="mix-blend-mode:color-dodge" fill-rule="evenodd" clip-rule="evenodd" d="M322.796 875.758C325.199 878.857 329.663 879.419 332.761 877.011C335.86 874.608 336.417 870.145 334.014 867.051C331.612 863.952 327.154 863.39 324.055 865.798C320.956 868.201 320.394 872.664 322.796 875.758Z" fill="url(#paint12_radial_38_9919)"/>
<path style="mix-blend-mode:color-dodge" fill-rule="evenodd" clip-rule="evenodd" d="M352.478 889.024C354.88 892.123 359.344 892.685 362.443 890.277C365.542 887.874 366.098 883.411 363.696 880.317C361.294 877.224 356.83 876.656 353.736 879.064C350.638 881.472 350.076 885.93 352.478 889.029L352.478 889.024Z" fill="url(#paint13_radial_38_9919)"/>
<path style="mix-blend-mode:color-dodge" fill-rule="evenodd" clip-rule="evenodd" d="M151.267 559.253C153.67 562.351 158.133 562.914 161.232 560.506C164.331 558.103 164.888 553.645 162.485 550.546C160.083 547.447 155.624 546.885 152.526 549.293C149.427 551.701 148.865 556.159 151.267 559.253Z" fill="url(#paint14_radial_38_9919)"/>
<path style="mix-blend-mode:color-dodge" fill-rule="evenodd" clip-rule="evenodd" d="M67.5969 423.083C69.9576 426.21 74.4079 426.837 77.5408 424.476C80.6737 422.116 81.2952 417.66 78.9345 414.533C76.5735 411.4 72.1235 410.778 68.9906 413.139C65.8577 415.5 65.2362 419.955 67.5969 423.083Z" fill="url(#paint15_radial_38_9919)"/>
<path style="mix-blend-mode:color-dodge" fill-rule="evenodd" clip-rule="evenodd" d="M273.542 614.565C275.902 617.693 280.358 618.32 283.486 615.959C286.613 613.598 287.24 609.143 284.879 606.015C282.518 602.888 278.068 602.26 274.935 604.621C271.802 606.982 271.181 611.432 273.542 614.565Z" fill="url(#paint16_radial_38_9919)"/>
<path style="mix-blend-mode:color-dodge" fill-rule="evenodd" clip-rule="evenodd" d="M252.566 689.261C254.927 692.389 259.382 693.016 262.51 690.655C265.637 688.294 266.264 683.839 263.904 680.711C261.543 677.584 257.093 676.956 253.96 679.317C250.827 681.678 250.205 686.128 252.566 689.261Z" fill="url(#paint17_radial_38_9919)"/>
<path style="mix-blend-mode:color-dodge" fill-rule="evenodd" clip-rule="evenodd" d="M28.6997 497.782C29.8942 499.366 32.1435 499.682 33.728 498.487C35.3126 497.292 35.6278 495.043 34.4332 493.459C33.2386 491.874 30.9894 491.559 29.4048 492.753C27.8203 493.948 27.5051 496.197 28.6997 497.782Z" fill="url(#paint18_radial_38_9919)"/>
<path style="mix-blend-mode:color-dodge" fill-rule="evenodd" clip-rule="evenodd" d="M104.291 522.864C105.486 524.448 107.735 524.763 109.32 523.569C110.904 522.374 111.22 520.125 110.025 518.54C108.83 516.956 106.581 516.641 104.997 517.835C103.412 519.03 103.097 521.284 104.291 522.864Z" fill="url(#paint19_radial_38_9919)"/>
<path style="mix-blend-mode:color-dodge" fill-rule="evenodd" clip-rule="evenodd" d="M145.37 381.667C146.564 383.251 148.813 383.567 150.398 382.372C151.983 381.177 152.298 378.928 151.103 377.344C149.909 375.759 147.659 375.444 146.075 376.638C144.49 377.833 144.175 380.082 145.37 381.667Z" fill="url(#paint20_radial_38_9919)"/>
<path style="mix-blend-mode:color-dodge" fill-rule="evenodd" clip-rule="evenodd" d="M203.684 479C204.879 480.585 207.133 480.9 208.712 479.706C210.297 478.511 210.612 476.262 209.418 474.677C208.223 473.093 205.974 472.777 204.389 473.972C202.805 475.167 202.489 477.416 203.684 479Z" fill="url(#paint21_radial_38_9919)"/>
<path style="mix-blend-mode:color-dodge" fill-rule="evenodd" clip-rule="evenodd" d="M172.454 638.596C173.648 640.18 175.903 640.495 177.482 639.301C179.067 638.106 179.377 635.857 178.187 634.273C176.993 632.693 174.744 632.378 173.159 633.567C171.574 634.762 171.259 637.011 172.454 638.596Z" fill="url(#paint22_radial_38_9919)"/>
<path style="mix-blend-mode:color-dodge" fill-rule="evenodd" clip-rule="evenodd" d="M211.593 723.451C212.788 725.036 215.042 725.351 216.622 724.156C218.206 722.962 218.521 720.707 217.327 719.128C216.132 717.543 213.883 717.228 212.299 718.428C210.714 719.623 210.399 721.872 211.593 723.456L211.593 723.451Z" fill="url(#paint23_radial_38_9919)"/>
<path style="mix-blend-mode:color-dodge" fill-rule="evenodd" clip-rule="evenodd" d="M193.332 757.68C194.526 759.264 196.781 759.579 198.36 758.385C199.945 757.19 200.255 754.941 199.065 753.356C197.871 751.772 195.622 751.457 194.037 752.651C192.453 753.846 192.138 756.101 193.332 757.68Z" fill="url(#paint24_radial_38_9919)"/>
<path style="mix-blend-mode:color-dodge" fill-rule="evenodd" clip-rule="evenodd" d="M61.2152 639.434C62.4098 641.018 64.659 641.333 66.2436 640.139C67.8282 638.944 68.1432 636.69 66.9488 635.11C65.7544 633.531 63.505 633.211 61.9204 634.405C60.3359 635.6 60.0206 637.849 61.2152 639.434Z" fill="url(#paint25_radial_38_9919)"/>
<path style="mix-blend-mode:color-dodge" fill-rule="evenodd" clip-rule="evenodd" d="M334.267 897.066C335.462 898.65 337.711 898.965 339.295 897.771C340.88 896.576 341.195 894.322 340.001 892.742C338.806 891.158 336.557 890.843 334.972 892.037C333.388 893.232 333.073 895.486 334.267 897.066Z" fill="url(#paint26_radial_38_9919)"/>
<path style="mix-blend-mode:color-dodge" fill-rule="evenodd" clip-rule="evenodd" d="M-0.709519 698.378C0.485064 699.962 2.73967 700.277 4.31886 699.083C5.90342 697.888 6.21841 695.634 5.02405 694.055C3.82946 692.47 1.58022 692.155 -0.0043338 693.349C-1.58889 694.544 -1.90388 696.799 -0.709519 698.378Z" fill="url(#paint27_radial_38_9919)"/>
<path style="mix-blend-mode:color-dodge" fill-rule="evenodd" clip-rule="evenodd" d="M243.389 851.219C244.584 852.803 246.833 853.119 248.417 851.924C250.002 850.729 250.317 848.48 249.123 846.896C247.928 845.311 245.679 844.996 244.094 846.19C242.51 847.385 242.195 849.634 243.389 851.219Z" fill="url(#paint28_radial_38_9919)"/>
<path style="mix-blend-mode:color-dodge" fill-rule="evenodd" clip-rule="evenodd" d="M352.844 843.989C354.039 845.574 356.288 845.889 357.873 844.689C359.457 843.494 359.772 841.245 358.578 839.661C357.383 838.076 355.134 837.761 353.549 838.955C351.965 840.15 351.65 842.399 352.844 843.984L352.844 843.989Z" fill="url(#paint29_radial_38_9919)"/>
<path style="mix-blend-mode:color-dodge" fill-rule="evenodd" clip-rule="evenodd" d="M259.938 737.312C261.132 738.896 263.382 739.212 264.966 738.017C266.551 736.822 266.866 734.573 265.671 732.989C264.477 731.409 262.228 731.094 260.643 732.283C259.058 733.478 258.743 735.727 259.938 737.312Z" fill="url(#paint30_radial_38_9919)"/>
<path style="mix-blend-mode:color-dodge" fill-rule="evenodd" clip-rule="evenodd" d="M265.063 1022.01C266.258 1023.59 268.507 1023.91 270.091 1022.71C271.676 1021.52 271.991 1019.27 270.797 1017.68C269.602 1016.1 267.353 1015.78 265.768 1016.98C264.184 1018.17 263.868 1020.42 265.063 1022.01Z" fill="url(#paint31_radial_38_9919)"/>
<path style="mix-blend-mode:color-dodge" fill-rule="evenodd" clip-rule="evenodd" d="M232.767 1088.47C233.962 1090.05 236.216 1090.37 237.795 1089.17C239.38 1087.98 239.695 1085.73 238.501 1084.14C237.306 1082.56 235.057 1082.24 233.472 1083.44C231.888 1084.63 231.572 1086.88 232.767 1088.47Z" fill="url(#paint32_radial_38_9919)"/>
<path style="mix-blend-mode:color-dodge" fill-rule="evenodd" clip-rule="evenodd" d="M231.918 1053.04C233.113 1054.62 235.362 1054.94 236.947 1053.74C238.531 1052.55 238.846 1050.29 237.652 1048.72C236.457 1047.13 234.208 1046.82 232.624 1048.01C231.039 1049.21 230.724 1051.45 231.918 1053.04Z" fill="url(#paint33_radial_38_9919)"/>
<path style="mix-blend-mode:color-dodge" fill-rule="evenodd" clip-rule="evenodd" d="M266.458 807.858C267.653 809.443 269.902 809.758 271.487 808.564C273.066 807.369 273.381 805.12 272.192 803.535C270.997 801.951 268.748 801.635 267.164 802.83C265.579 804.025 265.264 806.279 266.458 807.858Z" fill="url(#paint34_radial_38_9919)"/>
<path style="mix-blend-mode:color-dodge" fill-rule="evenodd" clip-rule="evenodd" d="M15.8735 329.63C17.0681 331.214 19.3173 331.53 20.9019 330.335C22.4864 329.14 22.8016 326.891 21.6071 325.307C20.4125 323.722 18.1632 323.407 16.5787 324.601C14.9941 325.796 14.6791 328.051 15.8735 329.63Z" fill="url(#paint35_radial_38_9919)"/>
<path style="mix-blend-mode:color-dodge" fill-rule="evenodd" clip-rule="evenodd" d="M8.46073 589.68C9.80581 591.135 12.0779 591.224 13.5323 589.873C14.987 588.528 15.0753 586.251 13.7248 584.796C12.3744 583.342 10.1079 583.258 8.65323 584.604C7.19877 585.954 7.11028 588.226 8.46073 589.68Z" fill="url(#paint36_radial_38_9919)"/>
<path style="mix-blend-mode:color-dodge" fill-rule="evenodd" clip-rule="evenodd" d="M237.379 695.461C238.729 696.916 241.002 697.004 242.456 695.654C243.911 694.309 243.999 692.031 242.649 690.582C241.298 689.128 239.032 689.039 237.572 690.39C236.117 691.74 236.029 694.007 237.379 695.461Z" fill="url(#paint37_radial_38_9919)"/>
<path style="mix-blend-mode:color-dodge" fill-rule="evenodd" clip-rule="evenodd" d="M311.669 264.835C313.019 266.29 315.291 266.378 316.74 265.028C318.195 263.683 318.283 261.411 316.933 259.956C315.588 258.502 313.316 258.413 311.861 259.764C310.407 261.114 310.318 263.386 311.669 264.841L311.669 264.835Z" fill="url(#paint38_radial_38_9919)"/>
<path style="mix-blend-mode:color-dodge" fill-rule="evenodd" clip-rule="evenodd" d="M333.943 388.83C335.293 390.285 337.565 390.373 339.02 389.023C340.474 387.678 340.562 385.4 339.212 383.951C337.862 382.497 335.595 382.408 334.141 383.758C332.686 385.109 332.598 387.381 333.943 388.83Z" fill="url(#paint39_radial_38_9919)"/>
<path style="mix-blend-mode:color-dodge" fill-rule="evenodd" clip-rule="evenodd" d="M217.02 147.567C218.371 149.021 220.643 149.11 222.092 147.759C223.546 146.414 223.635 144.142 222.285 142.688C220.934 141.233 218.667 141.145 217.213 142.495C215.758 143.846 215.67 146.118 217.02 147.572L217.02 147.567Z" fill="url(#paint40_radial_38_9919)"/>
<path style="mix-blend-mode:color-dodge" fill-rule="evenodd" clip-rule="evenodd" d="M209.103 11.6832C210.453 13.1377 212.725 13.2261 214.18 11.8757C215.634 10.5306 215.723 8.2585 214.372 6.79868C213.027 5.344 210.755 5.26088 209.301 6.60596C207.846 7.9564 207.758 10.2285 209.108 11.6776L209.103 11.6832Z" fill="url(#paint41_radial_38_9919)"/>
<path style="mix-blend-mode:color-dodge" fill-rule="evenodd" clip-rule="evenodd" d="M348.315 814.765C349.66 816.219 351.932 816.303 353.387 814.957C354.841 813.607 354.93 811.335 353.579 809.886C352.234 808.431 349.962 808.343 348.508 809.693C347.053 811.044 346.965 813.31 348.315 814.77L348.315 814.765Z" fill="url(#paint42_radial_38_9919)"/>
<path style="mix-blend-mode:color-dodge" fill-rule="evenodd" clip-rule="evenodd" d="M257.495 705.163C258.846 706.617 261.112 706.706 262.572 705.355C264.027 704.005 264.115 701.738 262.765 700.283C261.42 698.829 259.148 698.74 257.693 700.091C256.239 701.436 256.15 703.708 257.495 705.163Z" fill="url(#paint43_radial_38_9919)"/>
<path style="mix-blend-mode:color-dodge" fill-rule="evenodd" clip-rule="evenodd" d="M347.588 920.286C348.933 921.741 351.205 921.83 352.665 920.479C354.119 919.128 354.208 916.862 352.858 915.407C351.513 913.953 349.241 913.864 347.786 915.215C346.331 916.56 346.243 918.832 347.593 920.286L347.588 920.286Z" fill="url(#paint44_radial_38_9919)"/>
<path style="mix-blend-mode:color-dodge" fill-rule="evenodd" clip-rule="evenodd" d="M289.768 984.457C291.113 985.911 293.385 986 294.845 984.649C296.299 983.304 296.388 981.032 295.037 979.577C293.687 978.123 291.42 978.04 289.96 979.385C288.506 980.73 288.417 983.002 289.768 984.457Z" fill="url(#paint45_radial_38_9919)"/>
<path style="mix-blend-mode:color-dodge" fill-rule="evenodd" clip-rule="evenodd" d="M264.636 1001.19C265.981 1002.64 268.254 1002.73 269.708 1001.38C271.163 1000.03 271.251 997.762 269.901 996.307C268.556 994.853 266.284 994.764 264.829 996.115C263.374 997.46 263.286 999.737 264.637 1001.19L264.636 1001.19Z" fill="url(#paint46_radial_38_9919)"/>
<path style="mix-blend-mode:color-dodge" fill-rule="evenodd" clip-rule="evenodd" d="M310.194 866.478C311.539 867.933 313.811 868.021 315.27 866.671C316.725 865.326 316.814 863.054 315.463 861.599C314.118 860.145 311.846 860.056 310.392 861.406C308.937 862.752 308.848 865.024 310.199 866.478L310.194 866.478Z" fill="url(#paint47_radial_38_9919)"/>
<path style="mix-blend-mode:color-dodge" fill-rule="evenodd" clip-rule="evenodd" d="M270.256 967.549C271.606 969.004 273.873 969.093 275.333 967.742C276.787 966.391 276.876 964.125 275.526 962.67C274.175 961.216 271.909 961.132 270.454 962.478C269 963.828 268.911 966.1 270.256 967.549Z" fill="url(#paint48_radial_38_9919)"/>
<path style="mix-blend-mode:color-dodge" fill-rule="evenodd" clip-rule="evenodd" d="M257.275 638.262C258.62 639.716 260.892 639.799 262.347 638.454C263.801 637.104 263.89 634.832 262.539 633.377C261.194 631.923 258.922 631.834 257.468 633.185C256.013 634.535 255.925 636.807 257.275 638.262Z" fill="url(#paint49_radial_38_9919)"/>
<path style="mix-blend-mode:color-dodge" fill-rule="evenodd" clip-rule="evenodd" d="M-33.4026 330.821C-27.282 338.932 -15.7436 340.549 -7.63329 334.429C0.47723 328.314 2.09492 316.775 -4.02562 308.665C-10.1462 300.555 -21.6792 298.937 -29.7949 305.057C-37.9106 311.178 -39.5229 322.716 -33.4077 330.827L-33.4026 330.821Z" fill="url(#paint50_radial_38_9919)"/>
<path style="mix-blend-mode:color-dodge" fill-rule="evenodd" clip-rule="evenodd" d="M270.319 661.983C276.44 670.098 287.978 671.711 296.094 665.59C304.204 659.475 305.817 647.931 299.701 639.821C293.581 631.71 282.048 630.093 273.937 636.213C265.822 642.334 264.209 653.872 270.325 661.983L270.319 661.983Z" fill="url(#paint51_radial_38_9919)"/>
<path style="mix-blend-mode:color-dodge" fill-rule="evenodd" clip-rule="evenodd" d="M298.649 573.182C304.77 581.292 316.308 582.91 324.424 576.789C332.534 570.668 334.147 559.13 328.031 551.02C321.916 542.909 310.378 541.292 302.268 547.412C294.152 553.533 292.534 565.071 298.655 573.181L298.649 573.182Z" fill="url(#paint52_radial_38_9919)"/>
<path style="mix-blend-mode:color-dodge" fill-rule="evenodd" clip-rule="evenodd" d="M278.279 798.946C284.4 807.056 295.938 808.674 304.054 802.553C312.164 796.432 313.776 784.894 307.661 776.784C301.541 768.673 290.008 767.055 281.897 773.176C273.782 779.297 272.164 790.83 278.285 798.945L278.279 798.946Z" fill="url(#paint53_radial_38_9919)"/>
<path style="mix-blend-mode:color-dodge" fill-rule="evenodd" clip-rule="evenodd" d="M62.2226 586.424C68.3431 594.534 79.8815 596.152 87.9972 590.031C96.1075 583.911 97.7198 572.372 91.6047 564.262C85.4841 556.152 73.9511 554.534 65.8408 560.654C57.7251 566.775 56.1074 578.313 62.2279 586.424L62.2226 586.424Z" fill="url(#paint54_radial_38_9919)"/>
<path style="mix-blend-mode:color-dodge" fill-rule="evenodd" clip-rule="evenodd" d="M-5.57422 476.943C0.546322 485.053 12.0847 486.671 20.1951 480.55C28.3054 474.43 29.9233 462.897 23.8025 454.781C17.682 446.671 6.14891 445.053 -1.96139 451.174C-10.0771 457.294 -11.695 468.827 -5.57422 476.943Z" fill="url(#paint55_radial_38_9919)"/>
<path style="mix-blend-mode:color-dodge" fill-rule="evenodd" clip-rule="evenodd" d="M252.905 381.658C259.026 389.769 270.564 391.386 278.68 385.266C286.79 379.145 288.403 367.612 282.287 359.496C276.167 351.386 264.634 349.768 256.523 355.889C248.408 362.009 246.79 373.542 252.911 381.658L252.905 381.658Z" fill="url(#paint56_radial_38_9919)"/>
<path style="mix-blend-mode:color-dodge" fill-rule="evenodd" clip-rule="evenodd" d="M196.438 820.58C202.559 828.69 214.097 830.308 222.213 824.187C230.323 818.066 231.936 806.528 225.82 798.418C219.7 790.307 208.167 788.689 200.057 794.81C191.941 800.931 190.329 812.469 196.444 820.58L196.438 820.58Z" fill="url(#paint57_radial_38_9919)"/>
<path style="mix-blend-mode:color-dodge" fill-rule="evenodd" clip-rule="evenodd" d="M-24.6855 539.102C-18.565 547.212 -7.02655 548.83 1.08375 542.71C9.19405 536.589 10.8119 525.056 4.69117 516.94C-1.42937 508.83 -12.9624 507.212 -21.0727 513.333C-29.183 519.453 -30.8063 530.986 -24.6855 539.102Z" fill="url(#paint58_radial_38_9919)"/>
<path style="mix-blend-mode:color-dodge" fill-rule="evenodd" clip-rule="evenodd" d="M-5.20856 684.692C0.911977 692.802 12.4504 694.419 20.5607 688.299C28.6712 682.184 30.2835 670.646 24.1681 662.53C18.0476 654.419 6.51457 652.802 -1.59574 658.922C-9.7114 665.043 -11.3291 676.581 -5.20856 684.692Z" fill="url(#paint59_radial_38_9919)"/>
<path style="mix-blend-mode:color-dodge" fill-rule="evenodd" clip-rule="evenodd" d="M-25.1967 667.174C-19.076 675.289 -7.53779 676.902 0.577871 670.781C8.68817 664.66 10.3059 653.122 4.18532 645.012C-1.92985 636.901 -13.4682 635.283 -21.5785 641.404C-29.6942 647.525 -31.3119 659.063 -25.1914 667.173L-25.1967 667.174Z" fill="url(#paint60_radial_38_9919)"/>
<path style="mix-blend-mode:color-dodge" fill-rule="evenodd" clip-rule="evenodd" d="M284.221 948.155C290.342 956.271 301.88 957.883 309.996 951.762C318.106 945.647 319.724 934.109 313.603 925.993C307.483 917.883 295.95 916.265 287.839 922.386C279.724 928.506 278.111 940.044 284.227 948.155L284.221 948.155Z" fill="url(#paint61_radial_38_9919)"/>
<path style="mix-blend-mode:color-dodge" fill-rule="evenodd" clip-rule="evenodd" d="M203.998 712.163C210.119 720.273 221.657 721.891 229.767 715.77C237.878 709.65 239.496 698.117 233.375 690.001C227.254 681.891 215.721 680.273 207.606 686.394C199.49 692.514 197.878 704.052 203.993 712.163L203.998 712.163Z" fill="url(#paint62_radial_38_9919)"/>
<path style="mix-blend-mode:color-dodge" fill-rule="evenodd" clip-rule="evenodd" d="M244.325 1117.49C250.446 1125.6 261.984 1127.22 270.094 1121.1C278.205 1114.98 279.823 1103.44 273.702 1095.33C267.581 1087.22 256.048 1085.6 247.938 1091.72C239.822 1097.84 238.205 1109.38 244.325 1117.49Z" fill="url(#paint63_radial_38_9919)"/>
<path style="mix-blend-mode:color-dodge" fill-rule="evenodd" clip-rule="evenodd" d="M189.364 554.668C195.485 562.778 207.023 564.396 215.139 558.275C223.249 552.155 224.861 540.617 218.746 532.506C212.626 524.396 201.093 522.778 192.982 528.898C184.867 535.019 183.249 546.558 189.37 554.668L189.364 554.668Z" fill="url(#paint64_radial_38_9919)"/>
<defs>
<radialGradient id="paint0_radial_38_9919" cx="0" cy="0" r="1" gradientUnits="userSpaceOnUse" gradientTransform="translate(205.704 281.916) rotate(142.974) scale(7.10065 7.10065)">
<stop stop-color="white"/>
<stop offset="0.17" stop-color="#CCCCCC"/>
<stop offset="0.47" stop-color="#757575"/>
<stop offset="0.72" stop-color="#363636"/>
<stop offset="0.91" stop-color="#0E0E0E"/>
<stop offset="1"/>
</radialGradient>
<radialGradient id="paint1_radial_38_9919" cx="0" cy="0" r="1" gradientUnits="userSpaceOnUse" gradientTransform="translate(93.0323 257.863) rotate(142.974) scale(7.10065 7.10065)">
<stop stop-color="white"/>
<stop offset="0.17" stop-color="#CCCCCC"/>
<stop offset="0.47" stop-color="#757575"/>
<stop offset="0.72" stop-color="#363636"/>
<stop offset="0.91" stop-color="#0E0E0E"/>
<stop offset="1"/>
</radialGradient>
<radialGradient id="paint2_radial_38_9919" cx="0" cy="0" r="1" gradientUnits="userSpaceOnUse" gradientTransform="translate(87.8561 50.79) rotate(142.974) scale(7.10066)">
<stop stop-color="white"/>
<stop offset="0.17" stop-color="#CCCCCC"/>
<stop offset="0.47" stop-color="#757575"/>
<stop offset="0.72" stop-color="#363636"/>
<stop offset="0.91" stop-color="#0E0E0E"/>
<stop offset="1"/>
</radialGradient>
<radialGradient id="paint3_radial_38_9919" cx="0" cy="0" r="1" gradientUnits="userSpaceOnUse" gradientTransform="translate(166.74 603.855) rotate(142.974) scale(7.10065)">
<stop stop-color="white"/>
<stop offset="0.17" stop-color="#CCCCCC"/>
<stop offset="0.47" stop-color="#757575"/>
<stop offset="0.72" stop-color="#363636"/>
<stop offset="0.91" stop-color="#0E0E0E"/>
<stop offset="1"/>
</radialGradient>
<radialGradient id="paint4_radial_38_9919" cx="0" cy="0" r="1" gradientUnits="userSpaceOnUse" gradientTransform="translate(289.148 684.608) rotate(142.974) scale(7.10065)">
<stop stop-color="white"/>
<stop offset="0.17" stop-color="#CCCCCC"/>
<stop offset="0.47" stop-color="#757575"/>
<stop offset="0.72" stop-color="#363636"/>
<stop offset="0.91" stop-color="#0E0E0E"/>
<stop offset="1"/>
</radialGradient>
<radialGradient id="paint5_radial_38_9919" cx="0" cy="0" r="1" gradientUnits="userSpaceOnUse" gradientTransform="translate(240.457 739.107) rotate(142.974) scale(7.10065 7.10064)">
<stop stop-color="white"/>
<stop offset="0.17" stop-color="#CCCCCC"/>
<stop offset="0.47" stop-color="#757575"/>
<stop offset="0.72" stop-color="#363636"/>
<stop offset="0.91" stop-color="#0E0E0E"/>
<stop offset="1"/>
</radialGradient>
<radialGradient id="paint6_radial_38_9919" cx="0" cy="0" r="1" gradientUnits="userSpaceOnUse" gradientTransform="translate(324.501 822.686) rotate(142.974) scale(7.10065)">
<stop stop-color="white"/>
<stop offset="0.17" stop-color="#CCCCCC"/>
<stop offset="0.47" stop-color="#757575"/>
<stop offset="0.72" stop-color="#363636"/>
<stop offset="0.91" stop-color="#0E0E0E"/>
<stop offset="1"/>
</radialGradient>
<radialGradient id="paint7_radial_38_9919" cx="0" cy="0" r="1" gradientUnits="userSpaceOnUse" gradientTransform="translate(200.393 669.731) rotate(142.974) scale(7.10065)">
<stop stop-color="white"/>
<stop offset="0.17" stop-color="#CCCCCC"/>
<stop offset="0.47" stop-color="#757575"/>
<stop offset="0.72" stop-color="#363636"/>
<stop offset="0.91" stop-color="#0E0E0E"/>
<stop offset="1"/>
</radialGradient>
<radialGradient id="paint8_radial_38_9919" cx="0" cy="0" r="1" gradientUnits="userSpaceOnUse" gradientTransform="translate(301.979 570.688) rotate(142.974) scale(7.10065 7.10065)">
<stop stop-color="white"/>
<stop offset="0.17" stop-color="#CCCCCC"/>
<stop offset="0.47" stop-color="#757575"/>
<stop offset="0.72" stop-color="#363636"/>
<stop offset="0.91" stop-color="#0E0E0E"/>
<stop offset="1"/>
</radialGradient>
<radialGradient id="paint9_radial_38_9919" cx="0" cy="0" r="1" gradientUnits="userSpaceOnUse" gradientTransform="translate(268.321 550.694) rotate(142.974) scale(7.10065 7.10065)">
<stop stop-color="white"/>
<stop offset="0.17" stop-color="#CCCCCC"/>
<stop offset="0.47" stop-color="#757575"/>
<stop offset="0.72" stop-color="#363636"/>
<stop offset="0.91" stop-color="#0E0E0E"/>
<stop offset="1"/>
</radialGradient>
<radialGradient id="paint10_radial_38_9919" cx="0" cy="0" r="1" gradientUnits="userSpaceOnUse" gradientTransform="translate(247.396 1020.86) rotate(142.974) scale(7.10066 7.10066)">
<stop stop-color="white"/>
<stop offset="0.17" stop-color="#CCCCCC"/>
<stop offset="0.47" stop-color="#757575"/>
<stop offset="0.72" stop-color="#363636"/>
<stop offset="0.91" stop-color="#0E0E0E"/>
<stop offset="1"/>
</radialGradient>
<radialGradient id="paint11_radial_38_9919" cx="0" cy="0" r="1" gradientUnits="userSpaceOnUse" gradientTransform="translate(330.301 486.304) rotate(142.974) scale(7.10065)">
<stop stop-color="white"/>
<stop offset="0.17" stop-color="#CCCCCC"/>
<stop offset="0.47" stop-color="#757575"/>
<stop offset="0.72" stop-color="#363636"/>
<stop offset="0.91" stop-color="#0E0E0E"/>
<stop offset="1"/>
</radialGradient>
<radialGradient id="paint12_radial_38_9919" cx="0" cy="0" r="1" gradientUnits="userSpaceOnUse" gradientTransform="translate(328.475 871.56) rotate(142.174) scale(7.10066 7.10066)">
<stop stop-color="white"/>
<stop offset="0.17" stop-color="#CCCCCC"/>
<stop offset="0.47" stop-color="#757575"/>
<stop offset="0.72" stop-color="#363636"/>
<stop offset="0.91" stop-color="#0E0E0E"/>
<stop offset="1"/>
</radialGradient>
<radialGradient id="paint13_radial_38_9919" cx="0" cy="0" r="1" gradientUnits="userSpaceOnUse" gradientTransform="translate(358.16 884.828) rotate(142.174) scale(7.10065 7.10064)">
<stop stop-color="white"/>
<stop offset="0.17" stop-color="#CCCCCC"/>
<stop offset="0.47" stop-color="#757575"/>
<stop offset="0.72" stop-color="#363636"/>
<stop offset="0.91" stop-color="#0E0E0E"/>
<stop offset="1"/>
</radialGradient>
<radialGradient id="paint14_radial_38_9919" cx="0" cy="0" r="1" gradientUnits="userSpaceOnUse" gradientTransform="translate(156.92 555.007) rotate(142.174) scale(7.10065 7.10065)">
<stop stop-color="white"/>
<stop offset="0.17" stop-color="#CCCCCC"/>
<stop offset="0.47" stop-color="#757575"/>
<stop offset="0.72" stop-color="#363636"/>
<stop offset="0.91" stop-color="#0E0E0E"/>
<stop offset="1"/>
</radialGradient>
<radialGradient id="paint15_radial_38_9919" cx="0" cy="0" r="1" gradientUnits="userSpaceOnUse" gradientTransform="translate(73.241 418.825) rotate(142.974) scale(7.10066)">
<stop stop-color="white"/>
<stop offset="0.17" stop-color="#CCCCCC"/>
<stop offset="0.47" stop-color="#757575"/>
<stop offset="0.72" stop-color="#363636"/>
<stop offset="0.91" stop-color="#0E0E0E"/>
<stop offset="1"/>
</radialGradient>
<radialGradient id="paint16_radial_38_9919" cx="0" cy="0" r="1" gradientUnits="userSpaceOnUse" gradientTransform="translate(279.173 610.318) rotate(142.974) scale(7.10066)">
<stop stop-color="white"/>
<stop offset="0.17" stop-color="#CCCCCC"/>
<stop offset="0.47" stop-color="#757575"/>
<stop offset="0.72" stop-color="#363636"/>
<stop offset="0.91" stop-color="#0E0E0E"/>
<stop offset="1"/>
</radialGradient>
<radialGradient id="paint17_radial_38_9919" cx="0" cy="0" r="1" gradientUnits="userSpaceOnUse" gradientTransform="translate(258.197 685.016) rotate(142.974) scale(7.10065 7.10064)">
<stop stop-color="white"/>
<stop offset="0.17" stop-color="#CCCCCC"/>
<stop offset="0.47" stop-color="#757575"/>
<stop offset="0.72" stop-color="#363636"/>
<stop offset="0.91" stop-color="#0E0E0E"/>
<stop offset="1"/>
</radialGradient>
<radialGradient id="paint18_radial_38_9919" cx="0" cy="0" r="1" gradientUnits="userSpaceOnUse" gradientTransform="translate(31.5396 495.636) rotate(142.974) scale(3.59305 3.59305)">
<stop stop-color="white"/>
<stop offset="0.17" stop-color="#CCCCCC"/>
<stop offset="0.47" stop-color="#757575"/>
<stop offset="0.72" stop-color="#363636"/>
<stop offset="0.91" stop-color="#0E0E0E"/>
<stop offset="1"/>
</radialGradient>
<radialGradient id="paint19_radial_38_9919" cx="0" cy="0" r="1" gradientUnits="userSpaceOnUse" gradientTransform="translate(107.129 520.72) rotate(142.974) scale(3.59306 3.59306)">
<stop stop-color="white"/>
<stop offset="0.17" stop-color="#CCCCCC"/>
<stop offset="0.47" stop-color="#757575"/>
<stop offset="0.72" stop-color="#363636"/>
<stop offset="0.91" stop-color="#0E0E0E"/>
<stop offset="1"/>
</radialGradient>
<radialGradient id="paint20_radial_38_9919" cx="0" cy="0" r="1" gradientUnits="userSpaceOnUse" gradientTransform="translate(148.213 379.526) rotate(142.974) scale(3.58768 3.58768)">
<stop stop-color="white"/>
<stop offset="0.17" stop-color="#CCCCCC"/>
<stop offset="0.47" stop-color="#757575"/>
<stop offset="0.72" stop-color="#363636"/>
<stop offset="0.91" stop-color="#0E0E0E"/>
<stop offset="1"/>
</radialGradient>
<radialGradient id="paint21_radial_38_9919" cx="0" cy="0" r="1" gradientUnits="userSpaceOnUse" gradientTransform="translate(206.523 476.863) rotate(142.974) scale(3.59305 3.59305)">
<stop stop-color="white"/>
<stop offset="0.17" stop-color="#CCCCCC"/>
<stop offset="0.47" stop-color="#757575"/>
<stop offset="0.72" stop-color="#363636"/>
<stop offset="0.91" stop-color="#0E0E0E"/>
<stop offset="1"/>
</radialGradient>
<radialGradient id="paint22_radial_38_9919" cx="0" cy="0" r="1" gradientUnits="userSpaceOnUse" gradientTransform="translate(175.289 636.458) rotate(142.974) scale(3.59305 3.59305)">
<stop stop-color="white"/>
<stop offset="0.17" stop-color="#CCCCCC"/>
<stop offset="0.47" stop-color="#757575"/>
<stop offset="0.72" stop-color="#363636"/>
<stop offset="0.91" stop-color="#0E0E0E"/>
<stop offset="1"/>
</radialGradient>
<radialGradient id="paint23_radial_38_9919" cx="0" cy="0" r="1" gradientUnits="userSpaceOnUse" gradientTransform="translate(214.418 721.318) rotate(142.974) scale(3.59306 3.59306)">
<stop stop-color="white"/>
<stop offset="0.17" stop-color="#CCCCCC"/>
<stop offset="0.47" stop-color="#757575"/>
<stop offset="0.72" stop-color="#363636"/>
<stop offset="0.91" stop-color="#0E0E0E"/>
<stop offset="1"/>
</radialGradient>
<radialGradient id="paint24_radial_38_9919" cx="0" cy="0" r="1" gradientUnits="userSpaceOnUse" gradientTransform="translate(196.152 755.541) rotate(142.974) scale(3.59306 3.59306)">
<stop stop-color="white"/>
<stop offset="0.17" stop-color="#CCCCCC"/>
<stop offset="0.47" stop-color="#757575"/>
<stop offset="0.72" stop-color="#363636"/>
<stop offset="0.91" stop-color="#0E0E0E"/>
<stop offset="1"/>
</radialGradient>
<radialGradient id="paint25_radial_38_9919" cx="0" cy="0" r="1" gradientUnits="userSpaceOnUse" gradientTransform="translate(64.0479 637.283) rotate(142.974) scale(3.59305 3.59305)">
<stop stop-color="white"/>
<stop offset="0.17" stop-color="#CCCCCC"/>
<stop offset="0.47" stop-color="#757575"/>
<stop offset="0.72" stop-color="#363636"/>
<stop offset="0.91" stop-color="#0E0E0E"/>
<stop offset="1"/>
</radialGradient>
<radialGradient id="paint26_radial_38_9919" cx="0" cy="0" r="1" gradientUnits="userSpaceOnUse" gradientTransform="translate(337.085 894.941) rotate(142.974) scale(3.59306 3.59306)">
<stop stop-color="white"/>
<stop offset="0.17" stop-color="#CCCCCC"/>
<stop offset="0.47" stop-color="#757575"/>
<stop offset="0.72" stop-color="#363636"/>
<stop offset="0.91" stop-color="#0E0E0E"/>
<stop offset="1"/>
</radialGradient>
<radialGradient id="paint27_radial_38_9919" cx="0" cy="0" r="1" gradientUnits="userSpaceOnUse" gradientTransform="translate(2.11567 696.23) rotate(142.974) scale(3.59306 3.59306)">
<stop stop-color="white"/>
<stop offset="0.17" stop-color="#CCCCCC"/>
<stop offset="0.47" stop-color="#757575"/>
<stop offset="0.72" stop-color="#363636"/>
<stop offset="0.91" stop-color="#0E0E0E"/>
<stop offset="1"/>
</radialGradient>
<radialGradient id="paint28_radial_38_9919" cx="0" cy="0" r="1" gradientUnits="userSpaceOnUse" gradientTransform="translate(246.209 849.085) rotate(142.974) scale(3.58768 3.58768)">
<stop stop-color="white"/>
<stop offset="0.17" stop-color="#CCCCCC"/>
<stop offset="0.47" stop-color="#757575"/>
<stop offset="0.72" stop-color="#363636"/>
<stop offset="0.91" stop-color="#0E0E0E"/>
<stop offset="1"/>
</radialGradient>
<radialGradient id="paint29_radial_38_9919" cx="0" cy="0" r="1" gradientUnits="userSpaceOnUse" gradientTransform="translate(355.664 841.861) rotate(142.974) scale(3.58768 3.58768)">
<stop stop-color="white"/>
<stop offset="0.17" stop-color="#CCCCCC"/>
<stop offset="0.47" stop-color="#757575"/>
<stop offset="0.72" stop-color="#363636"/>
<stop offset="0.91" stop-color="#0E0E0E"/>
<stop offset="1"/>
</radialGradient>
<radialGradient id="paint30_radial_38_9919" cx="0" cy="0" r="1" gradientUnits="userSpaceOnUse" gradientTransform="translate(262.763 735.178) rotate(142.974) scale(3.59306 3.59306)">
<stop stop-color="white"/>
<stop offset="0.17" stop-color="#CCCCCC"/>
<stop offset="0.47" stop-color="#757575"/>
<stop offset="0.72" stop-color="#363636"/>
<stop offset="0.91" stop-color="#0E0E0E"/>
<stop offset="1"/>
</radialGradient>
<radialGradient id="paint31_radial_38_9919" cx="0" cy="0" r="1" gradientUnits="userSpaceOnUse" gradientTransform="translate(267.876 1019.87) rotate(142.974) scale(3.59306 3.59306)">
<stop stop-color="white"/>
<stop offset="0.17" stop-color="#CCCCCC"/>
<stop offset="0.47" stop-color="#757575"/>
<stop offset="0.72" stop-color="#363636"/>
<stop offset="0.91" stop-color="#0E0E0E"/>
<stop offset="1"/>
</radialGradient>
<radialGradient id="paint32_radial_38_9919" cx="0" cy="0" r="1" gradientUnits="userSpaceOnUse" gradientTransform="translate(235.574 1086.34) rotate(142.974) scale(3.59306 3.59306)">
<stop stop-color="white"/>
<stop offset="0.17" stop-color="#CCCCCC"/>
<stop offset="0.47" stop-color="#757575"/>
<stop offset="0.72" stop-color="#363636"/>
<stop offset="0.91" stop-color="#0E0E0E"/>
<stop offset="1"/>
</radialGradient>
<radialGradient id="paint33_radial_38_9919" cx="0" cy="0" r="1" gradientUnits="userSpaceOnUse" gradientTransform="translate(234.726 1050.91) rotate(142.974) scale(3.59306 3.59306)">
<stop stop-color="white"/>
<stop offset="0.17" stop-color="#CCCCCC"/>
<stop offset="0.47" stop-color="#757575"/>
<stop offset="0.72" stop-color="#363636"/>
<stop offset="0.91" stop-color="#0E0E0E"/>
<stop offset="1"/>
</radialGradient>
<radialGradient id="paint34_radial_38_9919" cx="0" cy="0" r="1" gradientUnits="userSpaceOnUse" gradientTransform="translate(269.281 805.727) rotate(142.974) scale(3.59306 3.59306)">
<stop stop-color="white"/>
<stop offset="0.17" stop-color="#CCCCCC"/>
<stop offset="0.47" stop-color="#757575"/>
<stop offset="0.72" stop-color="#363636"/>
<stop offset="0.91" stop-color="#0E0E0E"/>
<stop offset="1"/>
</radialGradient>
<radialGradient id="paint35_radial_38_9919" cx="0" cy="0" r="1" gradientUnits="userSpaceOnUse" gradientTransform="translate(18.7203 327.479) rotate(142.974) scale(3.59306 3.59306)">
<stop stop-color="white"/>
<stop offset="0.17" stop-color="#CCCCCC"/>
<stop offset="0.47" stop-color="#757575"/>
<stop offset="0.72" stop-color="#363636"/>
<stop offset="0.91" stop-color="#0E0E0E"/>
<stop offset="1"/>
</radialGradient>
<radialGradient id="paint36_radial_38_9919" cx="0" cy="0" r="1" gradientUnits="userSpaceOnUse" gradientTransform="translate(11.0766 587.321) rotate(137.194) scale(3.59305 3.59304)">
<stop stop-color="white"/>
<stop offset="0.17" stop-color="#CCCCCC"/>
<stop offset="0.47" stop-color="#757575"/>
<stop offset="0.72" stop-color="#363636"/>
<stop offset="0.91" stop-color="#0E0E0E"/>
<stop offset="1"/>
</radialGradient>
<radialGradient id="paint37_radial_38_9919" cx="0" cy="0" r="1" gradientUnits="userSpaceOnUse" gradientTransform="translate(240.014 693.122) rotate(137.194) scale(3.59305 3.59304)">
<stop stop-color="white"/>
<stop offset="0.17" stop-color="#CCCCCC"/>
<stop offset="0.47" stop-color="#757575"/>
<stop offset="0.72" stop-color="#363636"/>
<stop offset="0.91" stop-color="#0E0E0E"/>
<stop offset="1"/>
</radialGradient>
<radialGradient id="paint38_radial_38_9919" cx="0" cy="0" r="1" gradientUnits="userSpaceOnUse" gradientTransform="translate(314.33 262.461) rotate(137.194) scale(3.59306 3.59306)">
<stop stop-color="white"/>
<stop offset="0.17" stop-color="#CCCCCC"/>
<stop offset="0.47" stop-color="#757575"/>
<stop offset="0.72" stop-color="#363636"/>
<stop offset="0.91" stop-color="#0E0E0E"/>
<stop offset="1"/>
</radialGradient>
<radialGradient id="paint39_radial_38_9919" cx="0" cy="0" r="1" gradientUnits="userSpaceOnUse" gradientTransform="translate(336.599 386.472) rotate(137.194) scale(3.59305 3.59304)">
<stop stop-color="white"/>
<stop offset="0.17" stop-color="#CCCCCC"/>
<stop offset="0.47" stop-color="#757575"/>
<stop offset="0.72" stop-color="#363636"/>
<stop offset="0.91" stop-color="#0E0E0E"/>
<stop offset="1"/>
</radialGradient>
<radialGradient id="paint40_radial_38_9919" cx="0" cy="0" r="1" gradientUnits="userSpaceOnUse" gradientTransform="translate(219.678 145.177) rotate(137.194) scale(3.59306 3.59306)">
<stop stop-color="white"/>
<stop offset="0.17" stop-color="#CCCCCC"/>
<stop offset="0.47" stop-color="#757575"/>
<stop offset="0.72" stop-color="#363636"/>
<stop offset="0.91" stop-color="#0E0E0E"/>
<stop offset="1"/>
</radialGradient>
<radialGradient id="paint41_radial_38_9919" cx="0" cy="0" r="1" gradientUnits="userSpaceOnUse" gradientTransform="translate(211.768 9.28419) rotate(137.194) scale(3.59306 3.59306)">
<stop stop-color="white"/>
<stop offset="0.17" stop-color="#CCCCCC"/>
<stop offset="0.47" stop-color="#757575"/>
<stop offset="0.72" stop-color="#363636"/>
<stop offset="0.91" stop-color="#0E0E0E"/>
<stop offset="1"/>
</radialGradient>
<radialGradient id="paint42_radial_38_9919" cx="0" cy="0" r="1" gradientUnits="userSpaceOnUse" gradientTransform="translate(350.948 812.443) rotate(137.194) scale(3.59305 3.59304)">
<stop stop-color="white"/>
<stop offset="0.17" stop-color="#CCCCCC"/>
<stop offset="0.47" stop-color="#757575"/>
<stop offset="0.72" stop-color="#363636"/>
<stop offset="0.91" stop-color="#0E0E0E"/>
<stop offset="1"/>
</radialGradient>
<radialGradient id="paint43_radial_38_9919" cx="0" cy="0" r="1" gradientUnits="userSpaceOnUse" gradientTransform="translate(260.129 702.829) rotate(137.194) scale(3.59308 3.59308)">
<stop stop-color="white"/>
<stop offset="0.17" stop-color="#CCCCCC"/>
<stop offset="0.47" stop-color="#757575"/>
<stop offset="0.72" stop-color="#363636"/>
<stop offset="0.91" stop-color="#0E0E0E"/>
<stop offset="1"/>
</radialGradient>
<radialGradient id="paint44_radial_38_9919" cx="0" cy="0" r="1" gradientUnits="userSpaceOnUse" gradientTransform="translate(350.218 917.973) rotate(137.194) scale(3.59305 3.59304)">
<stop stop-color="white"/>
<stop offset="0.17" stop-color="#CCCCCC"/>
<stop offset="0.47" stop-color="#757575"/>
<stop offset="0.72" stop-color="#363636"/>
<stop offset="0.91" stop-color="#0E0E0E"/>
<stop offset="1"/>
</radialGradient>
<radialGradient id="paint45_radial_38_9919" cx="0" cy="0" r="1" gradientUnits="userSpaceOnUse" gradientTransform="translate(292.388 982.147) rotate(137.194) scale(3.59305 3.59304)">
<stop stop-color="white"/>
<stop offset="0.17" stop-color="#CCCCCC"/>
<stop offset="0.47" stop-color="#757575"/>
<stop offset="0.72" stop-color="#363636"/>
<stop offset="0.91" stop-color="#0E0E0E"/>
<stop offset="1"/>
</radialGradient>
<radialGradient id="paint46_radial_38_9919" cx="0" cy="0" r="1" gradientUnits="userSpaceOnUse" gradientTransform="translate(267.257 998.875) rotate(137.194) scale(3.59307 3.59308)">
<stop stop-color="white"/>
<stop offset="0.17" stop-color="#CCCCCC"/>
<stop offset="0.47" stop-color="#757575"/>
<stop offset="0.72" stop-color="#363636"/>
<stop offset="0.91" stop-color="#0E0E0E"/>
<stop offset="1"/>
</radialGradient>
<radialGradient id="paint47_radial_38_9919" cx="0" cy="0" r="1" gradientUnits="userSpaceOnUse" gradientTransform="translate(312.821 864.159) rotate(137.194) scale(3.59305 3.59305)">
<stop stop-color="white"/>
<stop offset="0.17" stop-color="#CCCCCC"/>
<stop offset="0.47" stop-color="#757575"/>
<stop offset="0.72" stop-color="#363636"/>
<stop offset="0.91" stop-color="#0E0E0E"/>
<stop offset="1"/>
</radialGradient>
<radialGradient id="paint48_radial_38_9919" cx="0" cy="0" r="1" gradientUnits="userSpaceOnUse" gradientTransform="translate(272.876 965.24) rotate(137.194) scale(3.59305 3.59304)">
<stop stop-color="white"/>
<stop offset="0.17" stop-color="#CCCCCC"/>
<stop offset="0.47" stop-color="#757575"/>
<stop offset="0.72" stop-color="#363636"/>
<stop offset="0.91" stop-color="#0E0E0E"/>
<stop offset="1"/>
</radialGradient>
<radialGradient id="paint49_radial_38_9919" cx="0" cy="0" r="1" gradientUnits="userSpaceOnUse" gradientTransform="translate(259.915 635.917) rotate(137.194) scale(3.59308 3.59309)">
<stop stop-color="white"/>
<stop offset="0.17" stop-color="#CCCCCC"/>
<stop offset="0.47" stop-color="#757575"/>
<stop offset="0.72" stop-color="#363636"/>
<stop offset="0.91" stop-color="#0E0E0E"/>
<stop offset="1"/>
</radialGradient>
<radialGradient id="paint50_radial_38_9919" cx="0" cy="0" r="1" gradientUnits="userSpaceOnUse" gradientTransform="translate(-18.7366 319.754) rotate(142.974) scale(18.4006 18.4006)">
<stop stop-color="white"/>
<stop offset="0.17" stop-color="#CCCCCC"/>
<stop offset="0.47" stop-color="#757575"/>
<stop offset="0.72" stop-color="#363636"/>
<stop offset="0.91" stop-color="#0E0E0E"/>
<stop offset="1"/>
</radialGradient>
<radialGradient id="paint51_radial_38_9919" cx="0" cy="0" r="1" gradientUnits="userSpaceOnUse" gradientTransform="translate(284.973 650.931) rotate(142.974) scale(18.4006 18.4006)">
<stop stop-color="white"/>
<stop offset="0.17" stop-color="#CCCCCC"/>
<stop offset="0.47" stop-color="#757575"/>
<stop offset="0.72" stop-color="#363636"/>
<stop offset="0.91" stop-color="#0E0E0E"/>
<stop offset="1"/>
</radialGradient>
<radialGradient id="paint52_radial_38_9919" cx="0" cy="0" r="1" gradientUnits="userSpaceOnUse" gradientTransform="translate(313.308 562.132) rotate(142.974) scale(18.4006 18.4006)">
<stop stop-color="white"/>
<stop offset="0.17" stop-color="#CCCCCC"/>
<stop offset="0.47" stop-color="#757575"/>
<stop offset="0.72" stop-color="#363636"/>
<stop offset="0.91" stop-color="#0E0E0E"/>
<stop offset="1"/>
</radialGradient>
<radialGradient id="paint53_radial_38_9919" cx="0" cy="0" r="1" gradientUnits="userSpaceOnUse" gradientTransform="translate(292.931 787.896) rotate(142.974) scale(18.4006 18.4006)">
<stop stop-color="white"/>
<stop offset="0.17" stop-color="#CCCCCC"/>
<stop offset="0.47" stop-color="#757575"/>
<stop offset="0.72" stop-color="#363636"/>
<stop offset="0.91" stop-color="#0E0E0E"/>
<stop offset="1"/>
</radialGradient>
<radialGradient id="paint54_radial_38_9919" cx="0" cy="0" r="1" gradientUnits="userSpaceOnUse" gradientTransform="translate(76.8798 575.362) rotate(142.974) scale(18.4006 18.4006)">
<stop stop-color="white"/>
<stop offset="0.17" stop-color="#CCCCCC"/>
<stop offset="0.47" stop-color="#757575"/>
<stop offset="0.72" stop-color="#363636"/>
<stop offset="0.91" stop-color="#0E0E0E"/>
<stop offset="1"/>
</radialGradient>
<radialGradient id="paint55_radial_38_9919" cx="0" cy="0" r="1" gradientUnits="userSpaceOnUse" gradientTransform="translate(9.085 465.873) rotate(142.974) scale(18.4006 18.4006)">
<stop stop-color="white"/>
<stop offset="0.17" stop-color="#CCCCCC"/>
<stop offset="0.47" stop-color="#757575"/>
<stop offset="0.72" stop-color="#363636"/>
<stop offset="0.91" stop-color="#0E0E0E"/>
<stop offset="1"/>
</radialGradient>
<radialGradient id="paint56_radial_38_9919" cx="0" cy="0" r="1" gradientUnits="userSpaceOnUse" gradientTransform="translate(267.575 370.606) rotate(142.974) scale(18.4006 18.4006)">
<stop stop-color="white"/>
<stop offset="0.17" stop-color="#CCCCCC"/>
<stop offset="0.47" stop-color="#757575"/>
<stop offset="0.72" stop-color="#363636"/>
<stop offset="0.91" stop-color="#0E0E0E"/>
<stop offset="1"/>
</radialGradient>
<radialGradient id="paint57_radial_38_9919" cx="0" cy="0" r="1" gradientUnits="userSpaceOnUse" gradientTransform="translate(211.083 809.525) rotate(142.974) scale(18.4006 18.4006)">
<stop stop-color="white"/>
<stop offset="0.17" stop-color="#CCCCCC"/>
<stop offset="0.47" stop-color="#757575"/>
<stop offset="0.72" stop-color="#363636"/>
<stop offset="0.91" stop-color="#0E0E0E"/>
<stop offset="1"/>
</radialGradient>
<radialGradient id="paint58_radial_38_9919" cx="0" cy="0" r="1" gradientUnits="userSpaceOnUse" gradientTransform="translate(-10.0297 528.038) rotate(142.974) scale(18.4006 18.4006)">
<stop stop-color="white"/>
<stop offset="0.17" stop-color="#CCCCCC"/>
<stop offset="0.47" stop-color="#757575"/>
<stop offset="0.72" stop-color="#363636"/>
<stop offset="0.91" stop-color="#0E0E0E"/>
<stop offset="1"/>
</radialGradient>
<radialGradient id="paint59_radial_38_9919" cx="0" cy="0" r="1" gradientUnits="userSpaceOnUse" gradientTransform="translate(9.445 673.627) rotate(142.974) scale(18.4006 18.4006)">
<stop stop-color="white"/>
<stop offset="0.17" stop-color="#CCCCCC"/>
<stop offset="0.47" stop-color="#757575"/>
<stop offset="0.72" stop-color="#363636"/>
<stop offset="0.91" stop-color="#0E0E0E"/>
<stop offset="1"/>
</radialGradient>
<radialGradient id="paint60_radial_38_9919" cx="0" cy="0" r="1" gradientUnits="userSpaceOnUse" gradientTransform="translate(-10.5447 656.106) rotate(142.974) scale(18.4006 18.4006)">
<stop stop-color="white"/>
<stop offset="0.17" stop-color="#CCCCCC"/>
<stop offset="0.47" stop-color="#757575"/>
<stop offset="0.72" stop-color="#363636"/>
<stop offset="0.91" stop-color="#0E0E0E"/>
<stop offset="1"/>
</radialGradient>
<radialGradient id="paint61_radial_38_9919" cx="0" cy="0" r="1" gradientUnits="userSpaceOnUse" gradientTransform="translate(298.863 937.109) rotate(142.974) scale(18.4006 18.4006)">
<stop stop-color="white"/>
<stop offset="0.17" stop-color="#CCCCCC"/>
<stop offset="0.47" stop-color="#757575"/>
<stop offset="0.72" stop-color="#363636"/>
<stop offset="0.91" stop-color="#0E0E0E"/>
<stop offset="1"/>
</radialGradient>
<radialGradient id="paint62_radial_38_9919" cx="0" cy="0" r="1" gradientUnits="userSpaceOnUse" gradientTransform="translate(218.649 701.106) rotate(142.974) scale(18.4006 18.4006)">
<stop stop-color="white"/>
<stop offset="0.17" stop-color="#CCCCCC"/>
<stop offset="0.47" stop-color="#757575"/>
<stop offset="0.72" stop-color="#363636"/>
<stop offset="0.91" stop-color="#0E0E0E"/>
<stop offset="1"/>
</radialGradient>
<radialGradient id="paint63_radial_38_9919" cx="0" cy="0" r="1" gradientUnits="userSpaceOnUse" gradientTransform="translate(258.954 1106.44) rotate(142.974) scale(18.4006 18.4006)">
<stop stop-color="white"/>
<stop offset="0.17" stop-color="#CCCCCC"/>
<stop offset="0.47" stop-color="#757575"/>
<stop offset="0.72" stop-color="#363636"/>
<stop offset="0.91" stop-color="#0E0E0E"/>
<stop offset="1"/>
</radialGradient>
<radialGradient id="paint64_radial_38_9919" cx="0" cy="0" r="1" gradientUnits="userSpaceOnUse" gradientTransform="translate(204.023 543.612) rotate(142.974) scale(18.4006 18.4006)">
<stop stop-color="white"/>
<stop offset="0.17" stop-color="#CCCCCC"/>
<stop offset="0.47" stop-color="#757575"/>
<stop offset="0.72" stop-color="#363636"/>
<stop offset="0.91" stop-color="#0E0E0E"/>
<stop offset="1"/>
</radialGradient>
</defs>
</svg>
