<svg width="585" height="698" viewBox="0 0 585 698" fill="none" xmlns="http://www.w3.org/2000/svg">
<path style="mix-blend-mode:color-dodge" fill-rule="evenodd" clip-rule="evenodd" d="M131.682 25.26C135.497 22.6215 136.457 17.3888 133.819 13.5676C131.18 9.75279 125.947 8.79272 122.126 11.4313C118.311 14.0699 117.351 19.3026 119.99 23.1238C122.628 26.9386 127.867 27.8986 131.682 25.26Z" fill="url(#paint0_radial_13_817)"/>
<path style="mix-blend-mode:color-dodge" fill-rule="evenodd" clip-rule="evenodd" d="M47.6645 69.2526C51.4857 66.614 52.4394 61.375 49.8009 57.5602C47.1623 53.7453 41.9295 52.7853 38.1083 55.4239C34.2871 58.0624 33.3335 63.2951 35.9721 67.1163C38.6107 70.9375 43.8497 71.8912 47.6645 69.2526Z" fill="url(#paint1_radial_13_817)"/>
<path style="mix-blend-mode:color-dodge" fill-rule="evenodd" clip-rule="evenodd" d="M275.26 555.508C279.838 554.745 282.934 550.416 282.171 545.838C281.408 541.26 277.079 538.164 272.501 538.927C267.923 539.69 264.833 544.019 265.59 548.597C266.353 553.175 270.682 556.271 275.26 555.508Z" fill="url(#paint2_radial_13_817)"/>
<path style="mix-blend-mode:color-dodge" fill-rule="evenodd" clip-rule="evenodd" d="M180.514 485.882C185.092 485.119 188.188 480.789 187.425 476.211C186.662 471.633 182.333 468.543 177.755 469.306C173.177 470.069 170.087 474.399 170.843 478.977C171.606 483.555 175.936 486.651 180.514 485.888V485.882Z" fill="url(#paint3_radial_13_817)"/>
<path style="mix-blend-mode:color-dodge" fill-rule="evenodd" clip-rule="evenodd" d="M465.275 30.8576C469.089 28.219 470.049 22.9799 467.411 19.1651C464.772 15.3503 459.533 14.3902 455.718 17.0352C451.904 19.6737 450.944 24.9064 453.588 28.7212C456.227 32.5424 461.46 33.4961 465.281 30.8576H465.275Z" fill="url(#paint4_radial_13_817)"/>
<path style="mix-blend-mode:color-dodge" fill-rule="evenodd" clip-rule="evenodd" d="M162.035 626.01C165.818 623.32 166.702 618.068 164.006 614.285C161.317 610.509 156.065 609.625 152.288 612.314C148.505 615.004 147.628 620.249 150.317 624.032C153.007 627.815 158.258 628.699 162.041 626.01H162.035Z" fill="url(#paint5_radial_13_817)"/>
<path style="mix-blend-mode:color-dodge" fill-rule="evenodd" clip-rule="evenodd" d="M152.04 565.528C155.816 562.838 156.7 557.586 154.011 553.803C151.321 550.02 146.07 549.143 142.293 551.832C138.51 554.522 137.626 559.767 140.322 563.55C143.011 567.333 148.257 568.217 152.046 565.528H152.04Z" fill="url(#paint6_radial_13_817)"/>
<path style="mix-blend-mode:color-dodge" fill-rule="evenodd" clip-rule="evenodd" d="M152.781 526.993C156.564 524.297 157.448 519.051 154.752 515.268C152.063 511.485 146.811 510.608 143.034 513.297C139.257 515.987 138.367 521.232 141.063 525.015C143.753 528.798 149.004 529.682 152.781 526.993Z" fill="url(#paint7_radial_13_817)"/>
<path style="mix-blend-mode:color-dodge" fill-rule="evenodd" clip-rule="evenodd" d="M77.1736 628.885C80.9503 626.196 81.8405 620.944 79.1447 617.161C76.4552 613.378 71.2035 612.5 67.4268 615.19C63.6438 617.879 62.7663 623.125 65.4558 626.908C68.1452 630.691 73.3969 631.575 77.1736 628.879V628.885Z" fill="url(#paint8_radial_13_817)"/>
<path style="mix-blend-mode:color-dodge" fill-rule="evenodd" clip-rule="evenodd" d="M17.9461 635.95C21.7292 633.261 22.613 628.009 19.9172 624.232C17.2277 620.449 11.9759 619.572 8.19921 622.261C4.42253 624.951 3.53249 630.196 6.2283 633.979C8.91776 637.762 14.1695 638.646 17.9461 635.95Z" fill="url(#paint9_radial_13_817)"/>
<path style="mix-blend-mode:color-dodge" fill-rule="evenodd" clip-rule="evenodd" d="M68.5768 1.62138C72.3916 -1.01721 73.3517 -6.25624 70.7132 -10.0711C68.0746 -13.8859 62.8356 -14.846 59.0208 -12.2074C55.206 -9.56877 54.2458 -4.33612 56.8844 -0.514932C59.523 3.30625 64.7556 4.25997 68.5768 1.62138Z" fill="url(#paint10_radial_13_817)"/>
<path style="mix-blend-mode:color-dodge" fill-rule="evenodd" clip-rule="evenodd" d="M4.71574 93.8976C6.64858 92.5624 7.13192 89.9111 5.79673 87.9846C4.46154 86.0517 1.81656 85.5749 -0.116283 86.9037C-2.04277 88.2389 -2.52595 90.8838 -1.19712 92.8167C0.13807 94.7495 2.78289 95.2328 4.71574 93.8976Z" fill="url(#paint11_radial_13_817)"/>
<path style="mix-blend-mode:color-dodge" fill-rule="evenodd" clip-rule="evenodd" d="M107.003 51.762C108.936 50.4268 109.419 47.7755 108.084 45.8491C106.749 43.9162 104.097 43.433 102.171 44.7682C100.238 46.1034 99.7549 48.7483 101.096 50.6812C102.432 52.614 105.077 53.0972 107.009 51.762H107.003Z" fill="url(#paint12_radial_13_817)"/>
<path style="mix-blend-mode:color-dodge" fill-rule="evenodd" clip-rule="evenodd" d="M146.595 75.0423C148.528 73.7071 149.011 71.0558 147.676 69.1293C146.341 67.1965 143.696 66.7197 141.763 68.0485C139.83 69.3837 139.347 72.0286 140.682 73.9615C142.018 75.8943 144.669 76.3775 146.595 75.0423Z" fill="url(#paint13_radial_13_817)"/>
<path style="mix-blend-mode:color-dodge" fill-rule="evenodd" clip-rule="evenodd" d="M0.248795 225.508C2.18164 224.172 2.66498 221.527 1.32979 219.595C-0.00540275 217.662 -2.65674 217.178 -4.58323 218.514C-6.50971 219.849 -6.99925 222.494 -5.66406 224.427C-4.32887 226.359 -1.68405 226.843 0.248795 225.508Z" fill="url(#paint14_radial_13_817)"/>
<path style="mix-blend-mode:color-dodge" fill-rule="evenodd" clip-rule="evenodd" d="M19.5221 316.618C21.4549 315.283 21.9381 312.638 20.6029 310.705C19.2677 308.779 16.6229 308.289 14.6901 309.625C12.7572 310.96 12.2739 313.605 13.6091 315.538C14.9443 317.47 17.5893 317.954 19.5221 316.618Z" fill="url(#paint15_radial_13_817)"/>
<path style="mix-blend-mode:color-dodge" fill-rule="evenodd" clip-rule="evenodd" d="M132.918 546.588C134.851 545.253 135.334 542.602 133.998 540.669C132.663 538.736 130.018 538.253 128.085 539.588C126.153 540.923 125.669 543.568 127.005 545.501C128.34 547.434 130.985 547.917 132.918 546.582V546.588Z" fill="url(#paint16_radial_13_817)"/>
<path style="mix-blend-mode:color-dodge" fill-rule="evenodd" clip-rule="evenodd" d="M34.3513 315.208C36.2841 313.873 36.7673 311.221 35.4321 309.295C34.0969 307.362 31.4519 306.879 29.5191 308.214C27.5862 309.549 27.1031 312.194 28.4382 314.127C29.7734 316.06 32.4184 316.543 34.3513 315.208Z" fill="url(#paint17_radial_13_817)"/>
<path style="mix-blend-mode:color-dodge" fill-rule="evenodd" clip-rule="evenodd" d="M23.0162 340.454C24.9491 339.119 25.4323 336.474 24.0971 334.541C22.7619 332.608 20.1107 332.125 18.1842 333.46C16.2514 334.795 15.768 337.44 17.1032 339.373C18.4384 341.3 21.0834 341.789 23.0162 340.454Z" fill="url(#paint18_radial_13_817)"/>
<path style="mix-blend-mode:color-dodge" fill-rule="evenodd" clip-rule="evenodd" d="M66.9294 301.645C68.8622 300.31 69.3454 297.658 68.0102 295.732C66.675 293.799 64.0237 293.316 62.0972 294.651C60.1644 295.986 59.6812 298.631 61.0164 300.564C62.3516 302.497 65.0029 302.98 66.9294 301.645Z" fill="url(#paint19_radial_13_817)"/>
<path style="mix-blend-mode:color-dodge" fill-rule="evenodd" clip-rule="evenodd" d="M180.797 522.256C183.111 521.868 184.676 519.681 184.294 517.367C183.913 515.052 181.719 513.488 179.405 513.87C177.09 514.258 175.526 516.445 175.908 518.759C176.296 521.073 178.483 522.637 180.797 522.256Z" fill="url(#paint20_radial_13_817)"/>
<path style="mix-blend-mode:color-dodge" fill-rule="evenodd" clip-rule="evenodd" d="M163.763 591.204C165.696 589.869 166.179 587.217 164.844 585.291C163.509 583.358 160.858 582.875 158.931 584.21C156.998 585.545 156.515 588.19 157.85 590.123C159.186 592.056 161.831 592.539 163.763 591.204Z" fill="url(#paint21_radial_13_817)"/>
<path style="mix-blend-mode:color-dodge" fill-rule="evenodd" clip-rule="evenodd" d="M51.7655 445.482C53.6983 444.147 54.1815 441.502 52.8463 439.569C51.5111 437.636 48.8663 437.153 46.9335 438.488C45.007 439.824 44.5173 442.469 45.8525 444.401C47.1877 446.334 49.8327 446.817 51.7655 445.482Z" fill="url(#paint22_radial_13_817)"/>
<path style="mix-blend-mode:color-dodge" fill-rule="evenodd" clip-rule="evenodd" d="M66.6491 609.083C68.5819 607.748 69.0651 605.097 67.7299 603.17C66.3948 601.237 63.7434 600.754 61.8169 602.089C59.8841 603.425 59.4009 606.069 60.7361 608.002C62.0713 609.935 64.7163 610.418 66.6491 609.083Z" fill="url(#paint23_radial_13_817)"/>
<path style="mix-blend-mode:color-dodge" fill-rule="evenodd" clip-rule="evenodd" d="M127.049 568.719C128.982 567.384 129.465 564.739 128.123 562.806C126.788 560.873 124.143 560.39 122.21 561.725C120.278 563.061 119.794 565.705 121.13 567.638C122.465 569.571 125.116 570.054 127.043 568.719H127.049Z" fill="url(#paint24_radial_13_817)"/>
<path style="mix-blend-mode:color-dodge" fill-rule="evenodd" clip-rule="evenodd" d="M-2.28649 321.462C-0.353647 320.127 0.129533 317.482 -1.20566 315.549C-2.54085 313.623 -5.18567 313.139 -7.11851 314.468C-9.05136 315.803 -9.53469 318.448 -8.1995 320.381C-6.86431 322.314 -4.21934 322.797 -2.28649 321.462Z" fill="url(#paint25_radial_13_817)"/>
<path style="mix-blend-mode:color-dodge" fill-rule="evenodd" clip-rule="evenodd" d="M259.683 20.4295C261.616 19.0943 262.099 16.4494 260.764 14.5165C259.429 12.5837 256.784 12.1005 254.851 13.4357C252.918 14.7709 252.435 17.4158 253.77 19.3487C255.105 21.2815 257.75 21.7647 259.683 20.4295Z" fill="url(#paint26_radial_13_817)"/>
<path style="mix-blend-mode:color-dodge" fill-rule="evenodd" clip-rule="evenodd" d="M462.753 3.17232C464.685 1.83713 465.169 -0.807829 463.833 -2.74067C462.498 -4.67352 459.853 -5.15672 457.92 -3.82153C455.988 -2.48634 455.504 0.158597 456.84 2.09144C458.175 4.02429 460.82 4.50751 462.753 3.17232Z" fill="url(#paint27_radial_13_817)"/>
<path style="mix-blend-mode:color-dodge" fill-rule="evenodd" clip-rule="evenodd" d="M539.775 44.6396C541.708 43.3044 542.191 40.6531 540.856 38.7266C539.521 36.7938 536.876 36.3106 534.943 37.6458C533.01 38.9809 532.527 41.6259 533.862 43.5587C535.197 45.4916 537.842 45.9748 539.775 44.6396Z" fill="url(#paint28_radial_13_817)"/>
<path style="mix-blend-mode:color-dodge" fill-rule="evenodd" clip-rule="evenodd" d="M497.831 43.9022C499.764 42.567 500.247 39.922 498.912 37.9892C497.576 36.0564 494.925 35.5731 492.999 36.9083C491.066 38.2435 490.583 40.8884 491.918 42.8213C493.253 44.7541 495.898 45.2374 497.831 43.9022Z" fill="url(#paint29_radial_13_817)"/>
<path style="mix-blend-mode:color-dodge" fill-rule="evenodd" clip-rule="evenodd" d="M146.34 697.361C148.654 696.98 150.219 694.786 149.837 692.472C149.449 690.157 147.262 688.593 144.948 688.975C142.633 689.363 141.069 691.55 141.451 693.864C141.839 696.179 144.026 697.749 146.34 697.361Z" fill="url(#paint30_radial_13_817)"/>
<path style="mix-blend-mode:color-dodge" fill-rule="evenodd" clip-rule="evenodd" d="M149.302 657.027C151.617 656.645 153.181 654.452 152.799 652.138C152.411 649.823 150.224 648.253 147.91 648.641C145.595 649.029 144.031 651.216 144.413 653.53C144.801 655.844 146.988 657.408 149.302 657.027Z" fill="url(#paint31_radial_13_817)"/>
<path style="mix-blend-mode:color-dodge" fill-rule="evenodd" clip-rule="evenodd" d="M228.374 525.658C230.689 525.27 232.253 523.083 231.871 520.762C231.483 518.448 229.296 516.883 226.982 517.265C224.668 517.653 223.104 519.84 223.485 522.154C223.866 524.469 226.06 526.033 228.374 525.651V525.658Z" fill="url(#paint32_radial_13_817)"/>
<path style="mix-blend-mode:color-dodge" fill-rule="evenodd" clip-rule="evenodd" d="M119.121 600.318C121.054 598.983 121.537 596.338 120.202 594.405C118.866 592.479 116.221 591.989 114.289 593.325C112.356 594.66 111.873 597.305 113.208 599.238C114.543 601.17 117.188 601.654 119.121 600.318Z" fill="url(#paint33_radial_13_817)"/>
<path style="mix-blend-mode:color-dodge" fill-rule="evenodd" clip-rule="evenodd" d="M8.71844 566.449C10.6513 565.114 11.1345 562.469 9.79928 560.536C8.46409 558.604 5.81911 558.12 3.88627 559.456C1.95342 560.791 1.47024 563.436 2.80543 565.369C4.14062 567.301 6.79195 567.785 8.71844 566.449Z" fill="url(#paint34_radial_13_817)"/>
<path style="mix-blend-mode:color-dodge" fill-rule="evenodd" clip-rule="evenodd" d="M27.9185 491.959C29.8513 490.624 30.3347 487.979 28.9995 486.046C27.6643 484.114 25.0129 483.63 23.0865 484.972C21.1536 486.307 20.6704 488.952 22.0056 490.885C23.3408 492.818 25.992 493.301 27.9185 491.966V491.959Z" fill="url(#paint35_radial_13_817)"/>
<path style="mix-blend-mode:color-dodge" fill-rule="evenodd" clip-rule="evenodd" d="M-1.36082 398.184C0.57203 396.848 1.05537 394.203 -0.279824 392.271C-1.61501 390.338 -4.25999 389.855 -6.19284 391.19C-8.12568 392.525 -8.60886 395.17 -7.27367 397.103C-5.93848 399.036 -3.29366 399.519 -1.36082 398.184Z" fill="url(#paint36_radial_13_817)"/>
<path style="mix-blend-mode:color-dodge" fill-rule="evenodd" clip-rule="evenodd" d="M75.1628 19.8953C76.9494 18.3694 77.1656 15.6863 75.6397 13.8997C74.1201 12.1131 71.4307 11.8969 69.6504 13.4229C67.8638 14.9488 67.6477 17.6255 69.1736 19.4185C70.6995 21.2051 73.3762 21.4213 75.1628 19.8953Z" fill="url(#paint37_radial_13_817)"/>
<path style="mix-blend-mode:color-dodge" fill-rule="evenodd" clip-rule="evenodd" d="M438.107 2.66913C439.894 1.14956 440.11 -1.53352 438.584 -3.32013C437.065 -5.10674 434.381 -5.32292 432.595 -3.79699C430.808 -2.27741 430.592 0.405669 432.118 2.19228C433.638 3.97889 436.327 4.19506 438.114 2.66913H438.107Z" fill="url(#paint38_radial_13_817)"/>
<path style="mix-blend-mode:color-dodge" fill-rule="evenodd" clip-rule="evenodd" d="M135.143 471.783C145.036 464.942 147.515 451.374 140.674 441.475C133.833 431.582 120.265 429.108 110.372 435.943C100.479 442.784 97.9988 456.352 104.834 466.239C111.675 476.139 125.243 478.618 135.136 471.777L135.143 471.783Z" fill="url(#paint39_radial_13_817)"/>
<path style="mix-blend-mode:color-dodge" fill-rule="evenodd" clip-rule="evenodd" d="M221.141 74.4525C231.034 67.6112 233.514 54.0432 226.673 44.1437C219.831 34.2506 206.263 31.7773 196.37 38.6122C186.477 45.4535 183.997 59.0152 190.839 68.9083C197.68 78.8078 211.248 81.2811 221.141 74.4462V74.4525Z" fill="url(#paint40_radial_13_817)"/>
<path style="mix-blend-mode:color-dodge" fill-rule="evenodd" clip-rule="evenodd" d="M167.214 614.637C177.114 607.796 179.587 594.228 172.746 584.328C165.911 574.435 152.343 571.962 142.443 578.797C132.55 585.638 130.071 599.2 136.912 609.099C143.753 618.999 157.315 621.472 167.208 614.637H167.214Z" fill="url(#paint41_radial_13_817)"/>
<path style="mix-blend-mode:color-dodge" fill-rule="evenodd" clip-rule="evenodd" d="M104.456 599.931C114.355 593.09 116.828 579.522 109.987 569.629C103.152 559.736 89.5841 557.256 79.6847 564.098C69.7916 570.939 67.3118 584.5 74.153 594.4C80.9943 604.299 94.5625 606.773 104.456 599.938V599.931Z" fill="url(#paint42_radial_13_817)"/>
<path style="mix-blend-mode:color-dodge" fill-rule="evenodd" clip-rule="evenodd" d="M50.517 306.293C60.4101 299.452 62.8897 285.883 56.0485 275.99C49.2136 266.097 35.6456 263.624 25.7461 270.459C15.853 277.3 13.3734 290.862 20.2146 300.755C27.0559 310.654 40.6239 313.134 50.517 306.293Z" fill="url(#paint43_radial_13_817)"/>
<path style="mix-blend-mode:color-dodge" fill-rule="evenodd" clip-rule="evenodd" d="M28.8218 329.065C38.7213 322.224 41.1946 308.656 34.3533 298.756C27.5121 288.863 13.9439 286.384 4.05077 293.225C-5.84234 300.06 -8.32195 313.628 -1.48069 323.521C5.36056 333.421 18.9287 335.9 28.8218 329.059V329.065Z" fill="url(#paint44_radial_13_817)"/>
<path style="mix-blend-mode:color-dodge" fill-rule="evenodd" clip-rule="evenodd" d="M93.2777 60.1966C103.171 53.3554 105.65 39.7873 98.8092 29.8942C91.968 20.0011 78.4063 17.5214 68.5068 24.3627C58.6137 31.2039 56.1341 44.7656 62.9754 54.6651C69.8166 64.5646 83.3846 67.0379 93.2777 60.203V60.1966Z" fill="url(#paint45_radial_13_817)"/>
<path style="mix-blend-mode:color-dodge" fill-rule="evenodd" clip-rule="evenodd" d="M574.669 32.3934C584.563 25.5521 587.042 11.9841 580.201 2.09095C573.36 -7.80217 559.798 -10.2818 549.898 -3.44054C540.005 3.40072 537.526 16.9624 544.367 26.8555C551.208 36.755 564.776 39.2346 574.669 32.3934Z" fill="url(#paint46_radial_13_817)"/>
<defs>
<radialGradient id="paint0_radial_13_817" cx="0" cy="0" r="1" gradientUnits="userSpaceOnUse" gradientTransform="translate(126.938 18.3991) rotate(55.3501) scale(8.40533 8.40532)">
<stop stop-color="white"/>
<stop offset="0.17" stop-color="#CCCCCC"/>
<stop offset="0.47" stop-color="#757575"/>
<stop offset="0.72" stop-color="#363636"/>
<stop offset="0.91" stop-color="#0E0E0E"/>
<stop offset="1"/>
</radialGradient>
<radialGradient id="paint1_radial_13_817" cx="0" cy="0" r="1" gradientUnits="userSpaceOnUse" gradientTransform="translate(42.9132 62.3829) rotate(55.35) scale(8.40533)">
<stop stop-color="white"/>
<stop offset="0.17" stop-color="#CCCCCC"/>
<stop offset="0.47" stop-color="#757575"/>
<stop offset="0.72" stop-color="#363636"/>
<stop offset="0.91" stop-color="#0E0E0E"/>
<stop offset="1"/>
</radialGradient>
<radialGradient id="paint2_radial_13_817" cx="0" cy="0" r="1" gradientUnits="userSpaceOnUse" gradientTransform="translate(273.819 547.095) rotate(80.55) scale(8.40536 8.40536)">
<stop stop-color="white"/>
<stop offset="0.17" stop-color="#CCCCCC"/>
<stop offset="0.47" stop-color="#757575"/>
<stop offset="0.72" stop-color="#363636"/>
<stop offset="0.91" stop-color="#0E0E0E"/>
<stop offset="1"/>
</radialGradient>
<radialGradient id="paint3_radial_13_817" cx="0" cy="0" r="1" gradientUnits="userSpaceOnUse" gradientTransform="translate(179.084 477.469) rotate(80.55) scale(8.40536 8.40536)">
<stop stop-color="white"/>
<stop offset="0.17" stop-color="#CCCCCC"/>
<stop offset="0.47" stop-color="#757575"/>
<stop offset="0.72" stop-color="#363636"/>
<stop offset="0.91" stop-color="#0E0E0E"/>
<stop offset="1"/>
</radialGradient>
<radialGradient id="paint4_radial_13_817" cx="0" cy="0" r="1" gradientUnits="userSpaceOnUse" gradientTransform="translate(460.528 24.0097) rotate(55.35) scale(8.40534 8.40533)">
<stop stop-color="white"/>
<stop offset="0.17" stop-color="#CCCCCC"/>
<stop offset="0.47" stop-color="#757575"/>
<stop offset="0.72" stop-color="#363636"/>
<stop offset="0.91" stop-color="#0E0E0E"/>
<stop offset="1"/>
</radialGradient>
<radialGradient id="paint5_radial_13_817" cx="0" cy="0" r="1" gradientUnits="userSpaceOnUse" gradientTransform="translate(157.335 619.193) rotate(54.55) scale(8.40534 8.40534)">
<stop stop-color="white"/>
<stop offset="0.17" stop-color="#CCCCCC"/>
<stop offset="0.47" stop-color="#757575"/>
<stop offset="0.72" stop-color="#363636"/>
<stop offset="0.91" stop-color="#0E0E0E"/>
<stop offset="1"/>
</radialGradient>
<radialGradient id="paint6_radial_13_817" cx="0" cy="0" r="1" gradientUnits="userSpaceOnUse" gradientTransform="translate(147.334 558.702) rotate(54.55) scale(8.40533 8.40533)">
<stop stop-color="white"/>
<stop offset="0.17" stop-color="#CCCCCC"/>
<stop offset="0.47" stop-color="#757575"/>
<stop offset="0.72" stop-color="#363636"/>
<stop offset="0.91" stop-color="#0E0E0E"/>
<stop offset="1"/>
</radialGradient>
<radialGradient id="paint7_radial_13_817" cx="0" cy="0" r="1" gradientUnits="userSpaceOnUse" gradientTransform="translate(148.074 520.165) rotate(54.55) scale(8.40531 8.4053)">
<stop stop-color="white"/>
<stop offset="0.17" stop-color="#CCCCCC"/>
<stop offset="0.47" stop-color="#757575"/>
<stop offset="0.72" stop-color="#363636"/>
<stop offset="0.91" stop-color="#0E0E0E"/>
<stop offset="1"/>
</radialGradient>
<radialGradient id="paint8_radial_13_817" cx="0" cy="0" r="1" gradientUnits="userSpaceOnUse" gradientTransform="translate(72.4591 622.064) rotate(54.55) scale(8.40531 8.40532)">
<stop stop-color="white"/>
<stop offset="0.17" stop-color="#CCCCCC"/>
<stop offset="0.47" stop-color="#757575"/>
<stop offset="0.72" stop-color="#363636"/>
<stop offset="0.91" stop-color="#0E0E0E"/>
<stop offset="1"/>
</radialGradient>
<radialGradient id="paint9_radial_13_817" cx="0" cy="0" r="1" gradientUnits="userSpaceOnUse" gradientTransform="translate(13.2175 629.136) rotate(54.55) scale(8.40534 8.40534)">
<stop stop-color="white"/>
<stop offset="0.17" stop-color="#CCCCCC"/>
<stop offset="0.47" stop-color="#757575"/>
<stop offset="0.72" stop-color="#363636"/>
<stop offset="0.91" stop-color="#0E0E0E"/>
<stop offset="1"/>
</radialGradient>
<radialGradient id="paint10_radial_13_817" cx="0" cy="0" r="1" gradientUnits="userSpaceOnUse" gradientTransform="translate(63.8323 -5.24642) rotate(55.3501) scale(8.40533 8.40532)">
<stop stop-color="white"/>
<stop offset="0.17" stop-color="#CCCCCC"/>
<stop offset="0.47" stop-color="#757575"/>
<stop offset="0.72" stop-color="#363636"/>
<stop offset="0.91" stop-color="#0E0E0E"/>
<stop offset="1"/>
</radialGradient>
<radialGradient id="paint11_radial_13_817" cx="0" cy="0" r="1" gradientUnits="userSpaceOnUse" gradientTransform="translate(2.32639 90.4397) rotate(55.3501) scale(4.25353 4.25352)">
<stop stop-color="white"/>
<stop offset="0.17" stop-color="#CCCCCC"/>
<stop offset="0.47" stop-color="#757575"/>
<stop offset="0.72" stop-color="#363636"/>
<stop offset="0.91" stop-color="#0E0E0E"/>
<stop offset="1"/>
</radialGradient>
<radialGradient id="paint12_radial_13_817" cx="0" cy="0" r="1" gradientUnits="userSpaceOnUse" gradientTransform="translate(104.619 48.316) rotate(55.35) scale(4.25353 4.25354)">
<stop stop-color="white"/>
<stop offset="0.17" stop-color="#CCCCCC"/>
<stop offset="0.47" stop-color="#757575"/>
<stop offset="0.72" stop-color="#363636"/>
<stop offset="0.91" stop-color="#0E0E0E"/>
<stop offset="1"/>
</radialGradient>
<radialGradient id="paint13_radial_13_817" cx="0" cy="0" r="1" gradientUnits="userSpaceOnUse" gradientTransform="translate(144.204 71.602) rotate(55.3499) scale(4.25353 4.25354)">
<stop stop-color="white"/>
<stop offset="0.17" stop-color="#CCCCCC"/>
<stop offset="0.47" stop-color="#757575"/>
<stop offset="0.72" stop-color="#363636"/>
<stop offset="0.91" stop-color="#0E0E0E"/>
<stop offset="1"/>
</radialGradient>
<radialGradient id="paint14_radial_13_817" cx="0" cy="0" r="1" gradientUnits="userSpaceOnUse" gradientTransform="translate(-2.1555 222.051) rotate(55.3501) scale(4.25352 4.25352)">
<stop stop-color="white"/>
<stop offset="0.17" stop-color="#CCCCCC"/>
<stop offset="0.47" stop-color="#757575"/>
<stop offset="0.72" stop-color="#363636"/>
<stop offset="0.91" stop-color="#0E0E0E"/>
<stop offset="1"/>
</radialGradient>
<radialGradient id="paint15_radial_13_817" cx="0" cy="0" r="1" gradientUnits="userSpaceOnUse" gradientTransform="translate(17.1201 313.167) rotate(55.3501) scale(4.25352 4.25352)">
<stop stop-color="white"/>
<stop offset="0.17" stop-color="#CCCCCC"/>
<stop offset="0.47" stop-color="#757575"/>
<stop offset="0.72" stop-color="#363636"/>
<stop offset="0.91" stop-color="#0E0E0E"/>
<stop offset="1"/>
</radialGradient>
<radialGradient id="paint16_radial_13_817" cx="0" cy="0" r="1" gradientUnits="userSpaceOnUse" gradientTransform="translate(130.508 543.147) rotate(55.35) scale(4.25354)">
<stop stop-color="white"/>
<stop offset="0.17" stop-color="#CCCCCC"/>
<stop offset="0.47" stop-color="#757575"/>
<stop offset="0.72" stop-color="#363636"/>
<stop offset="0.91" stop-color="#0E0E0E"/>
<stop offset="1"/>
</radialGradient>
<radialGradient id="paint17_radial_13_817" cx="0" cy="0" r="1" gradientUnits="userSpaceOnUse" gradientTransform="translate(31.9464 311.755) rotate(55.35) scale(4.25354 4.25354)">
<stop stop-color="white"/>
<stop offset="0.17" stop-color="#CCCCCC"/>
<stop offset="0.47" stop-color="#757575"/>
<stop offset="0.72" stop-color="#363636"/>
<stop offset="0.91" stop-color="#0E0E0E"/>
<stop offset="1"/>
</radialGradient>
<radialGradient id="paint18_radial_13_817" cx="0" cy="0" r="1" gradientUnits="userSpaceOnUse" gradientTransform="translate(20.6091 337.003) rotate(55.3501) scale(4.25352 4.25352)">
<stop stop-color="white"/>
<stop offset="0.17" stop-color="#CCCCCC"/>
<stop offset="0.47" stop-color="#757575"/>
<stop offset="0.72" stop-color="#363636"/>
<stop offset="0.91" stop-color="#0E0E0E"/>
<stop offset="1"/>
</radialGradient>
<radialGradient id="paint19_radial_13_817" cx="0" cy="0" r="1" gradientUnits="userSpaceOnUse" gradientTransform="translate(64.5273 298.198) rotate(55.3499) scale(4.25353 4.25354)">
<stop stop-color="white"/>
<stop offset="0.17" stop-color="#CCCCCC"/>
<stop offset="0.47" stop-color="#757575"/>
<stop offset="0.72" stop-color="#363636"/>
<stop offset="0.91" stop-color="#0E0E0E"/>
<stop offset="1"/>
</radialGradient>
<radialGradient id="paint20_radial_13_817" cx="0" cy="0" r="1" gradientUnits="userSpaceOnUse" gradientTransform="translate(180.048 517.939) rotate(80.55) scale(4.25351)">
<stop stop-color="white"/>
<stop offset="0.17" stop-color="#CCCCCC"/>
<stop offset="0.47" stop-color="#757575"/>
<stop offset="0.72" stop-color="#363636"/>
<stop offset="0.91" stop-color="#0E0E0E"/>
<stop offset="1"/>
</radialGradient>
<radialGradient id="paint21_radial_13_817" cx="0" cy="0" r="1" gradientUnits="userSpaceOnUse" gradientTransform="translate(161.346 587.763) rotate(55.3499) scale(4.25353 4.25354)">
<stop stop-color="white"/>
<stop offset="0.17" stop-color="#CCCCCC"/>
<stop offset="0.47" stop-color="#757575"/>
<stop offset="0.72" stop-color="#363636"/>
<stop offset="0.91" stop-color="#0E0E0E"/>
<stop offset="1"/>
</radialGradient>
<radialGradient id="paint22_radial_13_817" cx="0" cy="0" r="1" gradientUnits="userSpaceOnUse" gradientTransform="translate(49.3558 442.031) rotate(55.3502) scale(4.24717 4.24717)">
<stop stop-color="white"/>
<stop offset="0.17" stop-color="#CCCCCC"/>
<stop offset="0.47" stop-color="#757575"/>
<stop offset="0.72" stop-color="#363636"/>
<stop offset="0.91" stop-color="#0E0E0E"/>
<stop offset="1"/>
</radialGradient>
<radialGradient id="paint23_radial_13_817" cx="0" cy="0" r="1" gradientUnits="userSpaceOnUse" gradientTransform="translate(64.2269 605.638) rotate(55.3499) scale(4.25353 4.25354)">
<stop stop-color="white"/>
<stop offset="0.17" stop-color="#CCCCCC"/>
<stop offset="0.47" stop-color="#757575"/>
<stop offset="0.72" stop-color="#363636"/>
<stop offset="0.91" stop-color="#0E0E0E"/>
<stop offset="1"/>
</radialGradient>
<radialGradient id="paint24_radial_13_817" cx="0" cy="0" r="1" gradientUnits="userSpaceOnUse" gradientTransform="translate(124.637 565.281) rotate(55.3499) scale(4.25353 4.25354)">
<stop stop-color="white"/>
<stop offset="0.17" stop-color="#CCCCCC"/>
<stop offset="0.47" stop-color="#757575"/>
<stop offset="0.72" stop-color="#363636"/>
<stop offset="0.91" stop-color="#0E0E0E"/>
<stop offset="1"/>
</radialGradient>
<radialGradient id="paint25_radial_13_817" cx="0" cy="0" r="1" gradientUnits="userSpaceOnUse" gradientTransform="translate(-4.69175 318.014) rotate(55.3501) scale(4.25352 4.25352)">
<stop stop-color="white"/>
<stop offset="0.17" stop-color="#CCCCCC"/>
<stop offset="0.47" stop-color="#757575"/>
<stop offset="0.72" stop-color="#363636"/>
<stop offset="0.91" stop-color="#0E0E0E"/>
<stop offset="1"/>
</radialGradient>
<radialGradient id="paint26_radial_13_817" cx="0" cy="0" r="1" gradientUnits="userSpaceOnUse" gradientTransform="translate(257.297 16.989) rotate(55.3501) scale(4.24717 4.24716)">
<stop stop-color="white"/>
<stop offset="0.17" stop-color="#CCCCCC"/>
<stop offset="0.47" stop-color="#757575"/>
<stop offset="0.72" stop-color="#363636"/>
<stop offset="0.91" stop-color="#0E0E0E"/>
<stop offset="1"/>
</radialGradient>
<radialGradient id="paint27_radial_13_817" cx="0" cy="0" r="1" gradientUnits="userSpaceOnUse" gradientTransform="translate(460.37 -0.259727) rotate(55.3499) scale(4.25353 4.25354)">
<stop stop-color="white"/>
<stop offset="0.17" stop-color="#CCCCCC"/>
<stop offset="0.47" stop-color="#757575"/>
<stop offset="0.72" stop-color="#363636"/>
<stop offset="0.91" stop-color="#0E0E0E"/>
<stop offset="1"/>
</radialGradient>
<radialGradient id="paint28_radial_13_817" cx="0" cy="0" r="1" gradientUnits="userSpaceOnUse" gradientTransform="translate(537.395 41.2148) rotate(55.3499) scale(4.25353 4.25354)">
<stop stop-color="white"/>
<stop offset="0.17" stop-color="#CCCCCC"/>
<stop offset="0.47" stop-color="#757575"/>
<stop offset="0.72" stop-color="#363636"/>
<stop offset="0.91" stop-color="#0E0E0E"/>
<stop offset="1"/>
</radialGradient>
<radialGradient id="paint29_radial_13_817" cx="0" cy="0" r="1" gradientUnits="userSpaceOnUse" gradientTransform="translate(495.449 40.477) rotate(55.3499) scale(4.25353 4.25354)">
<stop stop-color="white"/>
<stop offset="0.17" stop-color="#CCCCCC"/>
<stop offset="0.47" stop-color="#757575"/>
<stop offset="0.72" stop-color="#363636"/>
<stop offset="0.91" stop-color="#0E0E0E"/>
<stop offset="1"/>
</radialGradient>
<radialGradient id="paint30_radial_13_817" cx="0" cy="0" r="1" gradientUnits="userSpaceOnUse" gradientTransform="translate(145.592 693.036) rotate(80.5501) scale(4.25355 4.25351)">
<stop stop-color="white"/>
<stop offset="0.17" stop-color="#CCCCCC"/>
<stop offset="0.47" stop-color="#757575"/>
<stop offset="0.72" stop-color="#363636"/>
<stop offset="0.91" stop-color="#0E0E0E"/>
<stop offset="1"/>
</radialGradient>
<radialGradient id="paint31_radial_13_817" cx="0" cy="0" r="1" gradientUnits="userSpaceOnUse" gradientTransform="translate(148.558 652.698) rotate(80.5498) scale(4.25351 4.25359)">
<stop stop-color="white"/>
<stop offset="0.17" stop-color="#CCCCCC"/>
<stop offset="0.47" stop-color="#757575"/>
<stop offset="0.72" stop-color="#363636"/>
<stop offset="0.91" stop-color="#0E0E0E"/>
<stop offset="1"/>
</radialGradient>
<radialGradient id="paint32_radial_13_817" cx="0" cy="0" r="1" gradientUnits="userSpaceOnUse" gradientTransform="translate(227.621 521.34) rotate(80.55) scale(4.25351)">
<stop stop-color="white"/>
<stop offset="0.17" stop-color="#CCCCCC"/>
<stop offset="0.47" stop-color="#757575"/>
<stop offset="0.72" stop-color="#363636"/>
<stop offset="0.91" stop-color="#0E0E0E"/>
<stop offset="1"/>
</radialGradient>
<radialGradient id="paint33_radial_13_817" cx="0" cy="0" r="1" gradientUnits="userSpaceOnUse" gradientTransform="translate(116.707 596.873) rotate(55.3499) scale(4.24717 4.24718)">
<stop stop-color="white"/>
<stop offset="0.17" stop-color="#CCCCCC"/>
<stop offset="0.47" stop-color="#757575"/>
<stop offset="0.72" stop-color="#363636"/>
<stop offset="0.91" stop-color="#0E0E0E"/>
<stop offset="1"/>
</radialGradient>
<radialGradient id="paint34_radial_13_817" cx="0" cy="0" r="1" gradientUnits="userSpaceOnUse" gradientTransform="translate(6.30067 563.001) rotate(55.35) scale(4.25354)">
<stop stop-color="white"/>
<stop offset="0.17" stop-color="#CCCCCC"/>
<stop offset="0.47" stop-color="#757575"/>
<stop offset="0.72" stop-color="#363636"/>
<stop offset="0.91" stop-color="#0E0E0E"/>
<stop offset="1"/>
</radialGradient>
<radialGradient id="paint35_radial_13_817" cx="0" cy="0" r="1" gradientUnits="userSpaceOnUse" gradientTransform="translate(25.5091 488.509) rotate(55.3501) scale(4.25352 4.25352)">
<stop stop-color="white"/>
<stop offset="0.17" stop-color="#CCCCCC"/>
<stop offset="0.47" stop-color="#757575"/>
<stop offset="0.72" stop-color="#363636"/>
<stop offset="0.91" stop-color="#0E0E0E"/>
<stop offset="1"/>
</radialGradient>
<radialGradient id="paint36_radial_13_817" cx="0" cy="0" r="1" gradientUnits="userSpaceOnUse" gradientTransform="translate(-3.76727 394.73) rotate(55.3501) scale(4.24717 4.24716)">
<stop stop-color="white"/>
<stop offset="0.17" stop-color="#CCCCCC"/>
<stop offset="0.47" stop-color="#757575"/>
<stop offset="0.72" stop-color="#363636"/>
<stop offset="0.91" stop-color="#0E0E0E"/>
<stop offset="1"/>
</radialGradient>
<radialGradient id="paint37_radial_13_817" cx="0" cy="0" r="1" gradientUnits="userSpaceOnUse" gradientTransform="translate(72.5249 16.6645) rotate(49.5702) scale(4.25352 4.25352)">
<stop stop-color="white"/>
<stop offset="0.17" stop-color="#CCCCCC"/>
<stop offset="0.47" stop-color="#757575"/>
<stop offset="0.72" stop-color="#363636"/>
<stop offset="0.91" stop-color="#0E0E0E"/>
<stop offset="1"/>
</radialGradient>
<radialGradient id="paint38_radial_13_817" cx="0" cy="0" r="1" gradientUnits="userSpaceOnUse" gradientTransform="translate(435.502 -0.544346) rotate(49.5696) scale(4.25355 4.25356)">
<stop stop-color="white"/>
<stop offset="0.17" stop-color="#CCCCCC"/>
<stop offset="0.47" stop-color="#757575"/>
<stop offset="0.72" stop-color="#363636"/>
<stop offset="0.91" stop-color="#0E0E0E"/>
<stop offset="1"/>
</radialGradient>
<radialGradient id="paint39_radial_13_817" cx="0" cy="0" r="1" gradientUnits="userSpaceOnUse" gradientTransform="translate(122.77 453.919) rotate(55.35) scale(21.7827 21.7827)">
<stop stop-color="white"/>
<stop offset="0.17" stop-color="#CCCCCC"/>
<stop offset="0.47" stop-color="#757575"/>
<stop offset="0.72" stop-color="#363636"/>
<stop offset="0.91" stop-color="#0E0E0E"/>
<stop offset="1"/>
</radialGradient>
<radialGradient id="paint40_radial_13_817" cx="0" cy="0" r="1" gradientUnits="userSpaceOnUse" gradientTransform="translate(208.785 56.5887) rotate(55.35) scale(21.7827 21.7827)">
<stop stop-color="white"/>
<stop offset="0.17" stop-color="#CCCCCC"/>
<stop offset="0.47" stop-color="#757575"/>
<stop offset="0.72" stop-color="#363636"/>
<stop offset="0.91" stop-color="#0E0E0E"/>
<stop offset="1"/>
</radialGradient>
<radialGradient id="paint41_radial_13_817" cx="0" cy="0" r="1" gradientUnits="userSpaceOnUse" gradientTransform="translate(154.831 596.777) rotate(55.35) scale(21.7826 21.7826)">
<stop stop-color="white"/>
<stop offset="0.17" stop-color="#CCCCCC"/>
<stop offset="0.47" stop-color="#757575"/>
<stop offset="0.72" stop-color="#363636"/>
<stop offset="0.91" stop-color="#0E0E0E"/>
<stop offset="1"/>
</radialGradient>
<radialGradient id="paint42_radial_13_817" cx="0" cy="0" r="1" gradientUnits="userSpaceOnUse" gradientTransform="translate(92.0732 582.07) rotate(55.35) scale(21.7827 21.7827)">
<stop stop-color="white"/>
<stop offset="0.17" stop-color="#CCCCCC"/>
<stop offset="0.47" stop-color="#757575"/>
<stop offset="0.72" stop-color="#363636"/>
<stop offset="0.91" stop-color="#0E0E0E"/>
<stop offset="1"/>
</radialGradient>
<radialGradient id="paint43_radial_13_817" cx="0" cy="0" r="1" gradientUnits="userSpaceOnUse" gradientTransform="translate(38.1498 288.418) rotate(55.35) scale(21.7826 21.7826)">
<stop stop-color="white"/>
<stop offset="0.17" stop-color="#CCCCCC"/>
<stop offset="0.47" stop-color="#757575"/>
<stop offset="0.72" stop-color="#363636"/>
<stop offset="0.91" stop-color="#0E0E0E"/>
<stop offset="1"/>
</radialGradient>
<radialGradient id="paint44_radial_13_817" cx="0" cy="0" r="1" gradientUnits="userSpaceOnUse" gradientTransform="translate(16.45 311.192) rotate(55.3499) scale(21.7827 21.7827)">
<stop stop-color="white"/>
<stop offset="0.17" stop-color="#CCCCCC"/>
<stop offset="0.47" stop-color="#757575"/>
<stop offset="0.72" stop-color="#363636"/>
<stop offset="0.91" stop-color="#0E0E0E"/>
<stop offset="1"/>
</radialGradient>
<radialGradient id="paint45_radial_13_817" cx="0" cy="0" r="1" gradientUnits="userSpaceOnUse" gradientTransform="translate(80.9188 42.3245) rotate(55.35) scale(21.7826 21.7826)">
<stop stop-color="white"/>
<stop offset="0.17" stop-color="#CCCCCC"/>
<stop offset="0.47" stop-color="#757575"/>
<stop offset="0.72" stop-color="#363636"/>
<stop offset="0.91" stop-color="#0E0E0E"/>
<stop offset="1"/>
</radialGradient>
<radialGradient id="paint46_radial_13_817" cx="0" cy="0" r="1" gradientUnits="userSpaceOnUse" gradientTransform="translate(562.318 14.5481) rotate(55.3499) scale(21.7827 21.7827)">
<stop stop-color="white"/>
<stop offset="0.17" stop-color="#CCCCCC"/>
<stop offset="0.47" stop-color="#757575"/>
<stop offset="0.72" stop-color="#363636"/>
<stop offset="0.91" stop-color="#0E0E0E"/>
<stop offset="1"/>
</radialGradient>
</defs>
</svg>
