<svg width="609" height="659" viewBox="0 0 609 659" fill="none" xmlns="http://www.w3.org/2000/svg">
<path style="mix-blend-mode:color-dodge" fill-rule="evenodd" clip-rule="evenodd" d="M556.902 475.033C558.598 473.861 559.022 471.541 557.85 469.845C556.679 468.155 554.353 467.726 552.663 468.897C550.967 470.068 550.543 472.389 551.715 474.085C552.886 475.78 555.207 476.204 556.902 475.033Z" fill="url(#paint0_radial_13_568)"/>
<path style="mix-blend-mode:color-dodge" fill-rule="evenodd" clip-rule="evenodd" d="M591.479 618.941C593.175 617.77 593.599 615.45 592.428 613.754C591.256 612.058 588.936 611.634 587.24 612.806C585.544 613.977 585.121 616.297 586.292 617.993C587.463 619.689 589.789 620.113 591.479 618.941Z" fill="url(#paint1_radial_13_568)"/>
<path style="mix-blend-mode:color-dodge" fill-rule="evenodd" clip-rule="evenodd" d="M503.83 352.566C507.177 350.252 508.019 345.656 505.705 342.309C503.39 338.962 498.794 338.12 495.447 340.435C492.1 342.749 491.258 347.34 493.573 350.692C495.888 354.045 500.484 354.881 503.83 352.566Z" fill="url(#paint2_radial_13_568)"/>
<path style="mix-blend-mode:color-dodge" fill-rule="evenodd" clip-rule="evenodd" d="M291.585 85.6008C294.937 83.286 295.774 78.6899 293.459 75.3431C291.144 71.9908 286.548 71.1542 283.201 73.469C279.849 75.7838 279.012 80.3744 281.327 83.7267C283.642 87.0734 288.232 87.9157 291.585 85.6008Z" fill="url(#paint3_radial_13_568)"/>
<path style="mix-blend-mode:color-dodge" fill-rule="evenodd" clip-rule="evenodd" d="M261.777 201.474C265.123 199.159 265.966 194.568 263.651 191.216C261.336 187.869 256.745 187.027 253.393 189.342C250.046 191.657 249.204 196.247 251.519 199.599C253.834 202.952 258.424 203.788 261.777 201.474Z" fill="url(#paint4_radial_13_568)"/>
<path style="mix-blend-mode:color-dodge" fill-rule="evenodd" clip-rule="evenodd" d="M46.6878 197.945C50.0401 195.63 50.8768 191.034 48.562 187.688C46.2472 184.335 41.6566 183.499 38.3043 185.813C34.9576 188.128 34.1153 192.719 36.4301 196.071C38.7449 199.423 43.3355 200.26 46.6878 197.945Z" fill="url(#paint5_radial_13_568)"/>
<path style="mix-blend-mode:color-dodge" fill-rule="evenodd" clip-rule="evenodd" d="M254.675 339.104C258.022 336.789 258.864 332.193 256.549 328.846C254.234 325.5 249.638 324.657 246.292 326.972C242.945 329.287 242.103 333.877 244.417 337.23C246.732 340.582 251.323 341.419 254.675 339.104Z" fill="url(#paint6_radial_13_568)"/>
<path style="mix-blend-mode:color-dodge" fill-rule="evenodd" clip-rule="evenodd" d="M543.494 596.033C546.846 593.718 547.683 589.127 545.368 585.775C543.053 582.423 538.457 581.586 535.111 583.901C531.758 586.216 530.921 590.806 533.236 594.159C535.551 597.505 540.147 598.348 543.494 596.033Z" fill="url(#paint7_radial_13_568)"/>
<path style="mix-blend-mode:color-dodge" fill-rule="evenodd" clip-rule="evenodd" d="M595.359 -1.88406C598.706 -4.19887 599.548 -8.78946 597.233 -12.1418C594.919 -15.4885 590.322 -16.3252 586.976 -14.0159C583.629 -11.7011 582.792 -7.11053 585.101 -3.75823C587.416 -0.405932 592.013 0.430757 595.359 -1.88406Z" fill="url(#paint8_radial_13_568)"/>
<path style="mix-blend-mode:color-dodge" fill-rule="evenodd" clip-rule="evenodd" d="M573.164 32.1683C576.511 29.8535 577.348 25.2629 575.039 21.9106C572.724 18.5639 568.128 17.7217 564.781 20.0421C561.434 22.3569 560.592 26.9474 562.907 30.2997C565.221 33.652 569.812 34.4887 573.164 32.1739L573.164 32.1683Z" fill="url(#paint9_radial_13_568)"/>
<path style="mix-blend-mode:color-dodge" fill-rule="evenodd" clip-rule="evenodd" d="M572.408 331.583C575.76 329.268 576.597 324.672 574.282 321.325C571.967 317.978 567.376 317.136 564.024 319.456C560.677 321.771 559.835 326.362 562.15 329.714C564.465 333.066 569.055 333.903 572.408 331.588L572.408 331.583Z" fill="url(#paint10_radial_13_568)"/>
<path style="mix-blend-mode:color-dodge" fill-rule="evenodd" clip-rule="evenodd" d="M544.099 333.526C547.418 331.166 548.187 326.559 545.828 323.24C543.468 319.921 538.867 319.151 535.548 321.511C532.229 323.87 531.454 328.478 533.819 331.791C536.178 335.11 540.785 335.885 544.099 333.526Z" fill="url(#paint11_radial_13_568)"/>
<path style="mix-blend-mode:color-dodge" fill-rule="evenodd" clip-rule="evenodd" d="M572.841 147.97C576.16 145.611 576.935 141.004 574.57 137.685C572.211 134.366 567.609 133.596 564.29 135.956C560.971 138.315 560.196 142.917 562.561 146.236C564.926 149.555 569.528 150.33 572.841 147.97Z" fill="url(#paint12_radial_13_568)"/>
<path style="mix-blend-mode:color-dodge" fill-rule="evenodd" clip-rule="evenodd" d="M576.787 447.612C580.106 445.253 580.881 440.645 578.516 437.332C576.157 434.013 571.55 433.244 568.236 435.603C564.917 437.962 564.142 442.564 566.507 445.883C568.867 449.202 573.474 449.977 576.787 447.618L576.787 447.612Z" fill="url(#paint13_radial_13_568)"/>
<path style="mix-blend-mode:color-dodge" fill-rule="evenodd" clip-rule="evenodd" d="M427.943 228.93C431.29 226.615 432.132 222.024 429.817 218.672C427.503 215.32 422.906 214.483 419.56 216.798C416.207 219.113 415.371 223.703 417.686 227.056C420 230.408 424.596 231.245 427.943 228.93Z" fill="url(#paint14_radial_13_568)"/>
<path style="mix-blend-mode:color-dodge" fill-rule="evenodd" clip-rule="evenodd" d="M378.673 383.499C382.02 381.184 382.862 376.594 380.547 373.241C378.232 369.889 373.642 369.052 370.29 371.367C366.943 373.682 366.101 378.273 368.415 381.625C370.73 384.977 375.327 385.814 378.673 383.499Z" fill="url(#paint15_radial_13_568)"/>
<path style="mix-blend-mode:color-dodge" fill-rule="evenodd" clip-rule="evenodd" d="M503.78 272.511C505.476 271.34 505.9 269.019 504.728 267.324C503.557 265.628 501.237 265.204 499.541 266.375C497.845 267.547 497.421 269.867 498.593 271.563C499.764 273.258 502.084 273.682 503.78 272.511Z" fill="url(#paint16_radial_13_568)"/>
<path style="mix-blend-mode:color-dodge" fill-rule="evenodd" clip-rule="evenodd" d="M533.067 195.146C534.763 193.975 535.187 191.654 534.015 189.959C532.844 188.263 530.524 187.839 528.828 189.01C527.132 190.182 526.708 192.502 527.88 194.198C529.051 195.894 531.377 196.317 533.067 195.146Z" fill="url(#paint17_radial_13_568)"/>
<path style="mix-blend-mode:color-dodge" fill-rule="evenodd" clip-rule="evenodd" d="M388.322 146.438C390.018 145.266 390.442 142.946 389.27 141.25C388.099 139.555 385.779 139.131 384.083 140.302C382.387 141.473 381.963 143.794 383.135 145.489C384.306 147.185 386.626 147.609 388.322 146.438Z" fill="url(#paint18_radial_13_568)"/>
<path style="mix-blend-mode:color-dodge" fill-rule="evenodd" clip-rule="evenodd" d="M491.826 90.1241C493.522 88.9528 493.946 86.6268 492.774 84.9367C491.603 83.241 489.283 82.8171 487.587 83.9885C485.891 85.1598 485.467 87.4802 486.639 89.1759C487.81 90.8715 490.13 91.2955 491.826 90.1241Z" fill="url(#paint19_radial_13_568)"/>
<path style="mix-blend-mode:color-dodge" fill-rule="evenodd" clip-rule="evenodd" d="M595.729 327.127C597.425 325.956 597.849 323.635 596.678 321.94C595.506 320.244 593.186 319.82 591.49 320.991C589.794 322.163 589.371 324.483 590.542 326.179C591.713 327.874 594.034 328.298 595.729 327.127Z" fill="url(#paint20_radial_13_568)"/>
<path style="mix-blend-mode:color-dodge" fill-rule="evenodd" clip-rule="evenodd" d="M552.574 347.893C554.27 346.722 554.694 344.401 553.522 342.706C552.351 341.01 550.031 340.586 548.335 341.757C546.639 342.929 546.215 345.249 547.387 346.945C548.558 348.64 550.878 349.064 552.574 347.893Z" fill="url(#paint21_radial_13_568)"/>
<path style="mix-blend-mode:color-dodge" fill-rule="evenodd" clip-rule="evenodd" d="M539.679 321.655C541.374 320.484 541.798 318.158 540.627 316.468C539.455 314.772 537.129 314.348 535.439 315.52C533.744 316.691 533.32 319.017 534.491 320.707C535.662 322.403 537.983 322.827 539.679 321.655Z" fill="url(#paint22_radial_13_568)"/>
<path style="mix-blend-mode:color-dodge" fill-rule="evenodd" clip-rule="evenodd" d="M584.494 343.966C586.19 342.795 586.614 340.475 585.442 338.779C584.271 337.083 581.945 336.659 580.255 337.831C578.559 339.002 578.135 341.322 579.307 343.018C580.478 344.714 582.798 345.138 584.494 343.966Z" fill="url(#paint23_radial_13_568)"/>
<path style="mix-blend-mode:color-dodge" fill-rule="evenodd" clip-rule="evenodd" d="M596.236 572.734C597.926 571.563 598.356 569.242 597.184 567.547C596.013 565.851 593.693 565.427 591.997 566.598C590.301 567.77 589.877 570.09 591.049 571.786C592.22 573.481 594.546 573.905 596.236 572.734Z" fill="url(#paint24_radial_13_568)"/>
<path style="mix-blend-mode:color-dodge" fill-rule="evenodd" clip-rule="evenodd" d="M328.745 278.577C330.441 277.405 330.865 275.085 329.693 273.389C328.522 271.694 326.201 271.27 324.506 272.441C322.81 273.612 322.386 275.933 323.558 277.628C324.729 279.324 327.055 279.748 328.745 278.577Z" fill="url(#paint25_radial_13_568)"/>
<path style="mix-blend-mode:color-dodge" fill-rule="evenodd" clip-rule="evenodd" d="M598.268 297.464C599.836 296.13 600.025 293.777 598.687 292.209C597.354 290.642 594.994 290.452 593.427 291.791C591.859 293.13 591.675 295.478 593.008 297.045C594.347 298.613 596.701 298.802 598.268 297.464Z" fill="url(#paint26_radial_13_568)"/>
<path style="mix-blend-mode:color-dodge" fill-rule="evenodd" clip-rule="evenodd" d="M148.491 62.0169C150.058 60.6782 150.248 58.3243 148.909 56.7625C147.576 55.1951 145.222 55.0055 143.655 56.3442C142.087 57.6829 141.898 60.0311 143.236 61.5985C144.575 63.1659 146.929 63.3556 148.496 62.0169L148.491 62.0169Z" fill="url(#paint27_radial_13_568)"/>
<path style="mix-blend-mode:color-dodge" fill-rule="evenodd" clip-rule="evenodd" d="M7.14725 64.3812C8.71463 63.0425 8.90428 60.6887 7.56559 59.1213C6.23248 57.5539 3.87859 57.3642 2.30563 58.7029C0.738255 60.036 0.554185 62.3899 1.88729 63.9573C3.22598 65.5247 5.57986 65.7143 7.14167 64.3756L7.14725 64.3812Z" fill="url(#paint28_radial_13_568)"/>
<path style="mix-blend-mode:color-dodge" fill-rule="evenodd" clip-rule="evenodd" d="M194.892 397.885C196.459 396.546 196.649 394.192 195.31 392.625C193.977 391.057 191.623 390.868 190.056 392.206C188.489 393.54 188.299 395.899 189.638 397.461C190.976 399.028 193.33 399.218 194.898 397.879L194.892 397.885Z" fill="url(#paint29_radial_13_568)"/>
<path style="mix-blend-mode:color-dodge" fill-rule="evenodd" clip-rule="evenodd" d="M396.541 593.536C398.109 592.198 398.299 589.844 396.96 588.276C395.627 586.709 393.273 586.519 391.705 587.858C390.138 589.191 389.948 591.545 391.287 593.112C392.626 594.68 394.974 594.869 396.541 593.536Z" fill="url(#paint30_radial_13_568)"/>
<path style="mix-blend-mode:color-dodge" fill-rule="evenodd" clip-rule="evenodd" d="M214.06 602.707C215.627 601.369 215.817 599.015 214.478 597.447C213.145 595.88 210.786 595.69 209.224 597.029C207.657 598.368 207.467 600.716 208.806 602.283C210.139 603.851 212.493 604.04 214.06 602.707Z" fill="url(#paint31_radial_13_568)"/>
<path style="mix-blend-mode:color-dodge" fill-rule="evenodd" clip-rule="evenodd" d="M229.161 507.573C230.728 506.239 230.918 503.88 229.579 502.318C228.246 500.751 225.892 500.561 224.325 501.9C222.757 503.233 222.567 505.587 223.906 507.154C225.245 508.722 227.593 508.911 229.161 507.573Z" fill="url(#paint32_radial_13_568)"/>
<path style="mix-blend-mode:color-dodge" fill-rule="evenodd" clip-rule="evenodd" d="M608.109 420.054C616.789 414.058 618.964 402.149 612.962 393.47C606.961 384.791 595.063 382.615 586.378 388.617C577.699 394.619 575.524 406.516 581.525 415.195C587.527 423.88 599.43 426.056 608.109 420.054Z" fill="url(#paint33_radial_13_568)"/>
<path style="mix-blend-mode:color-dodge" fill-rule="evenodd" clip-rule="evenodd" d="M327.859 329.759C336.538 323.757 338.713 311.854 332.712 303.175C326.715 294.496 314.812 292.32 306.133 298.322C297.454 304.324 295.278 316.222 301.28 324.906C307.282 333.591 319.185 335.761 327.864 329.765L327.859 329.759Z" fill="url(#paint34_radial_13_568)"/>
<path style="mix-blend-mode:color-dodge" fill-rule="evenodd" clip-rule="evenodd" d="M593.64 -4.3597C602.319 -10.3615 604.494 -22.2647 598.492 -30.9494C592.491 -39.6285 580.588 -41.7983 571.908 -35.8021C563.229 -29.8059 561.054 -17.9028 567.056 -9.22361C573.057 -0.538877 584.961 1.6365 593.64 -4.36528L593.64 -4.3597Z" fill="url(#paint35_radial_13_568)"/>
<path style="mix-blend-mode:color-dodge" fill-rule="evenodd" clip-rule="evenodd" d="M597.205 241.537C605.884 235.535 608.06 223.632 602.058 214.948C596.056 206.268 584.153 204.099 575.474 210.095C566.795 216.097 564.619 227.994 570.621 236.673C576.623 245.358 588.526 247.533 597.205 241.532L597.205 241.537Z" fill="url(#paint36_radial_13_568)"/>
<path style="mix-blend-mode:color-dodge" fill-rule="evenodd" clip-rule="evenodd" d="M480.679 307.171C489.358 301.169 491.533 289.266 485.531 280.586C479.53 271.907 467.632 269.732 458.947 275.734C450.268 281.735 448.093 293.633 454.095 302.312C460.097 310.997 471.994 313.172 480.679 307.171Z" fill="url(#paint37_radial_13_568)"/>
<path style="mix-blend-mode:color-dodge" fill-rule="evenodd" clip-rule="evenodd" d="M392.94 34.8604C401.62 28.8586 403.795 16.9554 397.793 8.2707C391.792 -0.408457 379.894 -2.57824 371.209 3.41797C362.53 9.41975 360.355 21.3173 366.356 29.9965C372.358 38.6812 384.256 40.8566 392.94 34.8548L392.94 34.8604Z" fill="url(#paint38_radial_13_568)"/>
<path style="mix-blend-mode:color-dodge" fill-rule="evenodd" clip-rule="evenodd" d="M433.995 569.114C442.679 563.112 444.849 551.209 438.847 542.524C432.851 533.845 420.948 531.67 412.263 537.671C403.584 543.673 401.414 555.571 407.411 564.256C413.412 572.94 425.316 575.116 433.995 569.114Z" fill="url(#paint39_radial_13_568)"/>
<path style="mix-blend-mode:color-dodge" fill-rule="evenodd" clip-rule="evenodd" d="M622.523 586.066C631.203 580.07 633.378 568.161 627.376 559.482C621.374 550.803 609.471 548.633 600.792 554.629C592.113 560.631 589.938 572.529 595.939 581.208C601.941 589.892 613.839 592.068 622.523 586.066Z" fill="url(#paint40_radial_13_568)"/>
<path style="mix-blend-mode:color-dodge" fill-rule="evenodd" clip-rule="evenodd" d="M507.854 560.083C516.533 554.081 518.708 542.178 512.706 533.493C506.71 524.814 494.807 522.638 486.122 528.64C477.443 534.642 475.268 546.539 481.27 555.219C487.271 563.903 499.174 566.079 507.854 560.077L507.854 560.083Z" fill="url(#paint41_radial_13_568)"/>
<path style="mix-blend-mode:color-dodge" fill-rule="evenodd" clip-rule="evenodd" d="M544.357 329.68C553.037 323.678 555.212 311.775 549.21 303.096C543.209 294.417 531.311 292.242 522.626 298.243C513.947 304.245 511.772 316.143 517.773 324.822C523.775 333.501 535.673 335.682 544.357 329.68Z" fill="url(#paint42_radial_13_568)"/>
<path style="mix-blend-mode:color-dodge" fill-rule="evenodd" clip-rule="evenodd" d="M612.496 347.13C621.175 341.129 623.351 329.225 617.349 320.546C611.347 311.867 599.45 309.692 590.765 315.693C582.086 321.695 579.91 333.593 585.912 342.272C591.914 350.957 603.817 353.127 612.496 347.13Z" fill="url(#paint43_radial_13_568)"/>
<path style="mix-blend-mode:color-dodge" fill-rule="evenodd" clip-rule="evenodd" d="M569.726 108.241C578.405 102.24 580.58 90.3364 574.578 81.6517C568.577 72.9725 556.673 70.8027 547.994 76.7989C539.315 82.8007 537.14 94.6983 543.142 103.377C549.143 112.062 561.047 114.238 569.726 108.236L569.726 108.241Z" fill="url(#paint44_radial_13_568)"/>
<path style="mix-blend-mode:color-dodge" fill-rule="evenodd" clip-rule="evenodd" d="M567.053 489.724C575.733 483.723 577.908 471.819 571.906 463.135C565.91 454.455 554.007 452.28 545.322 458.282C536.643 464.284 534.473 476.181 540.469 484.86C546.471 493.545 558.374 495.721 567.053 489.719L567.053 489.724Z" fill="url(#paint45_radial_13_568)"/>
<path style="mix-blend-mode:color-dodge" fill-rule="evenodd" clip-rule="evenodd" d="M423.553 457.467C432.232 451.465 434.407 439.562 428.406 430.878C422.404 422.198 410.501 420.029 401.822 426.025C393.142 432.027 390.967 443.924 396.969 452.603C402.97 461.288 414.874 463.463 423.553 457.462L423.553 457.467Z" fill="url(#paint46_radial_13_568)"/>
<path style="mix-blend-mode:color-dodge" fill-rule="evenodd" clip-rule="evenodd" d="M353.696 532.082C362.376 526.08 364.551 514.177 358.549 505.492C352.547 496.813 340.65 494.638 331.965 500.64C323.286 506.636 321.11 518.539 327.112 527.218C333.114 535.903 345.017 538.078 353.696 532.077L353.696 532.082Z" fill="url(#paint47_radial_13_568)"/>
<path style="mix-blend-mode:color-dodge" fill-rule="evenodd" clip-rule="evenodd" d="M563.863 613.804C572.548 607.802 574.718 595.905 568.716 587.22C562.72 578.541 550.811 576.371 542.132 582.367C533.453 588.369 531.278 600.267 537.279 608.946C543.281 617.63 555.184 619.806 563.863 613.804Z" fill="url(#paint48_radial_13_568)"/>
<defs>
<radialGradient id="paint0_radial_13_568" cx="0" cy="0" r="1" gradientUnits="userSpaceOnUse" gradientTransform="translate(554.785 472.005) rotate(55.3499) scale(3.73159 3.7316)">
<stop stop-color="white"/>
<stop offset="0.17" stop-color="#CCCCCC"/>
<stop offset="0.47" stop-color="#757575"/>
<stop offset="0.72" stop-color="#363636"/>
<stop offset="0.91" stop-color="#0E0E0E"/>
<stop offset="1"/>
</radialGradient>
<radialGradient id="paint1_radial_13_568" cx="0" cy="0" r="1" gradientUnits="userSpaceOnUse" gradientTransform="translate(589.358 615.916) rotate(55.3499) scale(3.73159 3.7316)">
<stop stop-color="white"/>
<stop offset="0.17" stop-color="#CCCCCC"/>
<stop offset="0.47" stop-color="#757575"/>
<stop offset="0.72" stop-color="#363636"/>
<stop offset="0.91" stop-color="#0E0E0E"/>
<stop offset="1"/>
</radialGradient>
<radialGradient id="paint2_radial_13_568" cx="0" cy="0" r="1" gradientUnits="userSpaceOnUse" gradientTransform="translate(499.645 346.535) rotate(55.35) scale(7.37393 7.37394)">
<stop stop-color="white"/>
<stop offset="0.17" stop-color="#CCCCCC"/>
<stop offset="0.47" stop-color="#757575"/>
<stop offset="0.72" stop-color="#363636"/>
<stop offset="0.91" stop-color="#0E0E0E"/>
<stop offset="1"/>
</radialGradient>
<radialGradient id="paint3_radial_13_568" cx="0" cy="0" r="1" gradientUnits="userSpaceOnUse" gradientTransform="translate(287.41 79.5489) rotate(55.35) scale(7.37393 7.37393)">
<stop stop-color="white"/>
<stop offset="0.17" stop-color="#CCCCCC"/>
<stop offset="0.47" stop-color="#757575"/>
<stop offset="0.72" stop-color="#363636"/>
<stop offset="0.91" stop-color="#0E0E0E"/>
<stop offset="1"/>
</radialGradient>
<radialGradient id="paint4_radial_13_568" cx="0" cy="0" r="1" gradientUnits="userSpaceOnUse" gradientTransform="translate(257.595 195.426) rotate(55.35) scale(7.37393 7.37394)">
<stop stop-color="white"/>
<stop offset="0.17" stop-color="#CCCCCC"/>
<stop offset="0.47" stop-color="#757575"/>
<stop offset="0.72" stop-color="#363636"/>
<stop offset="0.91" stop-color="#0E0E0E"/>
<stop offset="1"/>
</radialGradient>
<radialGradient id="paint5_radial_13_568" cx="0" cy="0" r="1" gradientUnits="userSpaceOnUse" gradientTransform="translate(42.5088 191.882) rotate(55.35) scale(7.37394)">
<stop stop-color="white"/>
<stop offset="0.17" stop-color="#CCCCCC"/>
<stop offset="0.47" stop-color="#757575"/>
<stop offset="0.72" stop-color="#363636"/>
<stop offset="0.91" stop-color="#0E0E0E"/>
<stop offset="1"/>
</radialGradient>
<radialGradient id="paint6_radial_13_568" cx="0" cy="0" r="1" gradientUnits="userSpaceOnUse" gradientTransform="translate(250.486 333.058) rotate(55.35) scale(7.37393 7.37394)">
<stop stop-color="white"/>
<stop offset="0.17" stop-color="#CCCCCC"/>
<stop offset="0.47" stop-color="#757575"/>
<stop offset="0.72" stop-color="#363636"/>
<stop offset="0.91" stop-color="#0E0E0E"/>
<stop offset="1"/>
</radialGradient>
<radialGradient id="paint7_radial_13_568" cx="0" cy="0" r="1" gradientUnits="userSpaceOnUse" gradientTransform="translate(539.301 590.007) rotate(55.35) scale(7.37394)">
<stop stop-color="white"/>
<stop offset="0.17" stop-color="#CCCCCC"/>
<stop offset="0.47" stop-color="#757575"/>
<stop offset="0.72" stop-color="#363636"/>
<stop offset="0.91" stop-color="#0E0E0E"/>
<stop offset="1"/>
</radialGradient>
<radialGradient id="paint8_radial_13_568" cx="0" cy="0" r="1" gradientUnits="userSpaceOnUse" gradientTransform="translate(591.196 -7.91792) rotate(55.35) scale(7.37394)">
<stop stop-color="white"/>
<stop offset="0.17" stop-color="#CCCCCC"/>
<stop offset="0.47" stop-color="#757575"/>
<stop offset="0.72" stop-color="#363636"/>
<stop offset="0.91" stop-color="#0E0E0E"/>
<stop offset="1"/>
</radialGradient>
<radialGradient id="paint9_radial_13_568" cx="0" cy="0" r="1" gradientUnits="userSpaceOnUse" gradientTransform="translate(569.001 26.1383) rotate(55.35) scale(7.37394)">
<stop stop-color="white"/>
<stop offset="0.17" stop-color="#CCCCCC"/>
<stop offset="0.47" stop-color="#757575"/>
<stop offset="0.72" stop-color="#363636"/>
<stop offset="0.91" stop-color="#0E0E0E"/>
<stop offset="1"/>
</radialGradient>
<radialGradient id="paint10_radial_13_568" cx="0" cy="0" r="1" gradientUnits="userSpaceOnUse" gradientTransform="translate(568.228 325.553) rotate(55.35) scale(7.37394 7.37394)">
<stop stop-color="white"/>
<stop offset="0.17" stop-color="#CCCCCC"/>
<stop offset="0.47" stop-color="#757575"/>
<stop offset="0.72" stop-color="#363636"/>
<stop offset="0.91" stop-color="#0E0E0E"/>
<stop offset="1"/>
</radialGradient>
<radialGradient id="paint11_radial_13_568" cx="0" cy="0" r="1" gradientUnits="userSpaceOnUse" gradientTransform="translate(539.935 327.507) rotate(54.5501) scale(7.37393 7.37393)">
<stop stop-color="white"/>
<stop offset="0.17" stop-color="#CCCCCC"/>
<stop offset="0.47" stop-color="#757575"/>
<stop offset="0.72" stop-color="#363636"/>
<stop offset="0.91" stop-color="#0E0E0E"/>
<stop offset="1"/>
</radialGradient>
<radialGradient id="paint12_radial_13_568" cx="0" cy="0" r="1" gradientUnits="userSpaceOnUse" gradientTransform="translate(568.679 141.923) rotate(54.55) scale(7.37393 7.37393)">
<stop stop-color="white"/>
<stop offset="0.17" stop-color="#CCCCCC"/>
<stop offset="0.47" stop-color="#757575"/>
<stop offset="0.72" stop-color="#363636"/>
<stop offset="0.91" stop-color="#0E0E0E"/>
<stop offset="1"/>
</radialGradient>
<radialGradient id="paint13_radial_13_568" cx="0" cy="0" r="1" gradientUnits="userSpaceOnUse" gradientTransform="translate(572.627 441.61) rotate(54.5499) scale(7.37393 7.37394)">
<stop stop-color="white"/>
<stop offset="0.17" stop-color="#CCCCCC"/>
<stop offset="0.47" stop-color="#757575"/>
<stop offset="0.72" stop-color="#363636"/>
<stop offset="0.91" stop-color="#0E0E0E"/>
<stop offset="1"/>
</radialGradient>
<radialGradient id="paint14_radial_13_568" cx="0" cy="0" r="1" gradientUnits="userSpaceOnUse" gradientTransform="translate(423.768 222.89) rotate(55.35) scale(7.37394)">
<stop stop-color="white"/>
<stop offset="0.17" stop-color="#CCCCCC"/>
<stop offset="0.47" stop-color="#757575"/>
<stop offset="0.72" stop-color="#363636"/>
<stop offset="0.91" stop-color="#0E0E0E"/>
<stop offset="1"/>
</radialGradient>
<radialGradient id="paint15_radial_13_568" cx="0" cy="0" r="1" gradientUnits="userSpaceOnUse" gradientTransform="translate(374.488 377.46) rotate(55.35) scale(7.37394)">
<stop stop-color="white"/>
<stop offset="0.17" stop-color="#CCCCCC"/>
<stop offset="0.47" stop-color="#757575"/>
<stop offset="0.72" stop-color="#363636"/>
<stop offset="0.91" stop-color="#0E0E0E"/>
<stop offset="1"/>
</radialGradient>
<radialGradient id="paint16_radial_13_568" cx="0" cy="0" r="1" gradientUnits="userSpaceOnUse" gradientTransform="translate(501.676 269.472) rotate(55.3501) scale(3.73158 3.73158)">
<stop stop-color="white"/>
<stop offset="0.17" stop-color="#CCCCCC"/>
<stop offset="0.47" stop-color="#757575"/>
<stop offset="0.72" stop-color="#363636"/>
<stop offset="0.91" stop-color="#0E0E0E"/>
<stop offset="1"/>
</radialGradient>
<radialGradient id="paint17_radial_13_568" cx="0" cy="0" r="1" gradientUnits="userSpaceOnUse" gradientTransform="translate(530.965 192.11) rotate(55.3499) scale(3.73159 3.7316)">
<stop stop-color="white"/>
<stop offset="0.17" stop-color="#CCCCCC"/>
<stop offset="0.47" stop-color="#757575"/>
<stop offset="0.72" stop-color="#363636"/>
<stop offset="0.91" stop-color="#0E0E0E"/>
<stop offset="1"/>
</radialGradient>
<radialGradient id="paint18_radial_13_568" cx="0" cy="0" r="1" gradientUnits="userSpaceOnUse" gradientTransform="translate(386.223 143.394) rotate(55.3501) scale(3.72601 3.726)">
<stop stop-color="white"/>
<stop offset="0.17" stop-color="#CCCCCC"/>
<stop offset="0.47" stop-color="#757575"/>
<stop offset="0.72" stop-color="#363636"/>
<stop offset="0.91" stop-color="#0E0E0E"/>
<stop offset="1"/>
</radialGradient>
<radialGradient id="paint19_radial_13_568" cx="0" cy="0" r="1" gradientUnits="userSpaceOnUse" gradientTransform="translate(489.73 87.0866) rotate(55.3501) scale(3.73159 3.73158)">
<stop stop-color="white"/>
<stop offset="0.17" stop-color="#CCCCCC"/>
<stop offset="0.47" stop-color="#757575"/>
<stop offset="0.72" stop-color="#363636"/>
<stop offset="0.91" stop-color="#0E0E0E"/>
<stop offset="1"/>
</radialGradient>
<radialGradient id="paint20_radial_13_568" cx="0" cy="0" r="1" gradientUnits="userSpaceOnUse" gradientTransform="translate(593.62 324.098) rotate(55.3499) scale(3.73159 3.7316)">
<stop stop-color="white"/>
<stop offset="0.17" stop-color="#CCCCCC"/>
<stop offset="0.47" stop-color="#757575"/>
<stop offset="0.72" stop-color="#363636"/>
<stop offset="0.91" stop-color="#0E0E0E"/>
<stop offset="1"/>
</radialGradient>
<radialGradient id="paint21_radial_13_568" cx="0" cy="0" r="1" gradientUnits="userSpaceOnUse" gradientTransform="translate(550.465 344.862) rotate(55.35) scale(3.72602 3.72602)">
<stop stop-color="white"/>
<stop offset="0.17" stop-color="#CCCCCC"/>
<stop offset="0.47" stop-color="#757575"/>
<stop offset="0.72" stop-color="#363636"/>
<stop offset="0.91" stop-color="#0E0E0E"/>
<stop offset="1"/>
</radialGradient>
<radialGradient id="paint22_radial_13_568" cx="0" cy="0" r="1" gradientUnits="userSpaceOnUse" gradientTransform="translate(537.569 318.62) rotate(55.3499) scale(3.73159 3.7316)">
<stop stop-color="white"/>
<stop offset="0.17" stop-color="#CCCCCC"/>
<stop offset="0.47" stop-color="#757575"/>
<stop offset="0.72" stop-color="#363636"/>
<stop offset="0.91" stop-color="#0E0E0E"/>
<stop offset="1"/>
</radialGradient>
<radialGradient id="paint23_radial_13_568" cx="0" cy="0" r="1" gradientUnits="userSpaceOnUse" gradientTransform="translate(582.382 340.933) rotate(55.3499) scale(3.73159 3.7316)">
<stop stop-color="white"/>
<stop offset="0.17" stop-color="#CCCCCC"/>
<stop offset="0.47" stop-color="#757575"/>
<stop offset="0.72" stop-color="#363636"/>
<stop offset="0.91" stop-color="#0E0E0E"/>
<stop offset="1"/>
</radialGradient>
<radialGradient id="paint24_radial_13_568" cx="0" cy="0" r="1" gradientUnits="userSpaceOnUse" gradientTransform="translate(594.11 569.706) rotate(55.3502) scale(3.73159 3.73158)">
<stop stop-color="white"/>
<stop offset="0.17" stop-color="#CCCCCC"/>
<stop offset="0.47" stop-color="#757575"/>
<stop offset="0.72" stop-color="#363636"/>
<stop offset="0.91" stop-color="#0E0E0E"/>
<stop offset="1"/>
</radialGradient>
<radialGradient id="paint25_radial_13_568" cx="0" cy="0" r="1" gradientUnits="userSpaceOnUse" gradientTransform="translate(326.636 275.53) rotate(55.3499) scale(3.73159 3.7316)">
<stop stop-color="white"/>
<stop offset="0.17" stop-color="#CCCCCC"/>
<stop offset="0.47" stop-color="#757575"/>
<stop offset="0.72" stop-color="#363636"/>
<stop offset="0.91" stop-color="#0E0E0E"/>
<stop offset="1"/>
</radialGradient>
<radialGradient id="paint26_radial_13_568" cx="0" cy="0" r="1" gradientUnits="userSpaceOnUse" gradientTransform="translate(595.932 294.647) rotate(49.5701) scale(3.73158 3.73158)">
<stop stop-color="white"/>
<stop offset="0.17" stop-color="#CCCCCC"/>
<stop offset="0.47" stop-color="#757575"/>
<stop offset="0.72" stop-color="#363636"/>
<stop offset="0.91" stop-color="#0E0E0E"/>
<stop offset="1"/>
</radialGradient>
<radialGradient id="paint27_radial_13_568" cx="0" cy="0" r="1" gradientUnits="userSpaceOnUse" gradientTransform="translate(146.125 59.1565) rotate(49.5699) scale(3.7316 3.7316)">
<stop stop-color="white"/>
<stop offset="0.17" stop-color="#CCCCCC"/>
<stop offset="0.47" stop-color="#757575"/>
<stop offset="0.72" stop-color="#363636"/>
<stop offset="0.91" stop-color="#0E0E0E"/>
<stop offset="1"/>
</radialGradient>
<radialGradient id="paint28_radial_13_568" cx="0" cy="0" r="1" gradientUnits="userSpaceOnUse" gradientTransform="translate(4.77264 61.512) rotate(49.5699) scale(3.73159 3.7316)">
<stop stop-color="white"/>
<stop offset="0.17" stop-color="#CCCCCC"/>
<stop offset="0.47" stop-color="#757575"/>
<stop offset="0.72" stop-color="#363636"/>
<stop offset="0.91" stop-color="#0E0E0E"/>
<stop offset="1"/>
</radialGradient>
<radialGradient id="paint29_radial_13_568" cx="0" cy="0" r="1" gradientUnits="userSpaceOnUse" gradientTransform="translate(192.521 395.057) rotate(49.57) scale(3.7316)">
<stop stop-color="white"/>
<stop offset="0.17" stop-color="#CCCCCC"/>
<stop offset="0.47" stop-color="#757575"/>
<stop offset="0.72" stop-color="#363636"/>
<stop offset="0.91" stop-color="#0E0E0E"/>
<stop offset="1"/>
</radialGradient>
<radialGradient id="paint30_radial_13_568" cx="0" cy="0" r="1" gradientUnits="userSpaceOnUse" gradientTransform="translate(394.171 590.736) rotate(49.5698) scale(3.73162 3.73162)">
<stop stop-color="white"/>
<stop offset="0.17" stop-color="#CCCCCC"/>
<stop offset="0.47" stop-color="#757575"/>
<stop offset="0.72" stop-color="#363636"/>
<stop offset="0.91" stop-color="#0E0E0E"/>
<stop offset="1"/>
</radialGradient>
<radialGradient id="paint31_radial_13_568" cx="0" cy="0" r="1" gradientUnits="userSpaceOnUse" gradientTransform="translate(211.677 599.894) rotate(49.5703) scale(3.73159 3.73158)">
<stop stop-color="white"/>
<stop offset="0.17" stop-color="#CCCCCC"/>
<stop offset="0.47" stop-color="#757575"/>
<stop offset="0.72" stop-color="#363636"/>
<stop offset="0.91" stop-color="#0E0E0E"/>
<stop offset="1"/>
</radialGradient>
<radialGradient id="paint32_radial_13_568" cx="0" cy="0" r="1" gradientUnits="userSpaceOnUse" gradientTransform="translate(226.782 504.752) rotate(49.57) scale(3.7316)">
<stop stop-color="white"/>
<stop offset="0.17" stop-color="#CCCCCC"/>
<stop offset="0.47" stop-color="#757575"/>
<stop offset="0.72" stop-color="#363636"/>
<stop offset="0.91" stop-color="#0E0E0E"/>
<stop offset="1"/>
</radialGradient>
<radialGradient id="paint33_radial_13_568" cx="0" cy="0" r="1" gradientUnits="userSpaceOnUse" gradientTransform="translate(597.248 404.374) rotate(55.35) scale(19.1098 19.1098)">
<stop stop-color="white"/>
<stop offset="0.17" stop-color="#CCCCCC"/>
<stop offset="0.47" stop-color="#757575"/>
<stop offset="0.72" stop-color="#363636"/>
<stop offset="0.91" stop-color="#0E0E0E"/>
<stop offset="1"/>
</radialGradient>
<radialGradient id="paint34_radial_13_568" cx="0" cy="0" r="1" gradientUnits="userSpaceOnUse" gradientTransform="translate(317.007 314.064) rotate(55.35) scale(19.1098 19.1098)">
<stop stop-color="white"/>
<stop offset="0.17" stop-color="#CCCCCC"/>
<stop offset="0.47" stop-color="#757575"/>
<stop offset="0.72" stop-color="#363636"/>
<stop offset="0.91" stop-color="#0E0E0E"/>
<stop offset="1"/>
</radialGradient>
<radialGradient id="paint35_radial_13_568" cx="0" cy="0" r="1" gradientUnits="userSpaceOnUse" gradientTransform="translate(582.805 -20.046) rotate(55.3501) scale(19.1098 19.1097)">
<stop stop-color="white"/>
<stop offset="0.17" stop-color="#CCCCCC"/>
<stop offset="0.47" stop-color="#757575"/>
<stop offset="0.72" stop-color="#363636"/>
<stop offset="0.91" stop-color="#0E0E0E"/>
<stop offset="1"/>
</radialGradient>
<radialGradient id="paint36_radial_13_568" cx="0" cy="0" r="1" gradientUnits="userSpaceOnUse" gradientTransform="translate(586.358 225.852) rotate(55.35) scale(19.1098 19.1098)">
<stop stop-color="white"/>
<stop offset="0.17" stop-color="#CCCCCC"/>
<stop offset="0.47" stop-color="#757575"/>
<stop offset="0.72" stop-color="#363636"/>
<stop offset="0.91" stop-color="#0E0E0E"/>
<stop offset="1"/>
</radialGradient>
<radialGradient id="paint37_radial_13_568" cx="0" cy="0" r="1" gradientUnits="userSpaceOnUse" gradientTransform="translate(469.823 291.483) rotate(55.3501) scale(19.1098 19.1097)">
<stop stop-color="white"/>
<stop offset="0.17" stop-color="#CCCCCC"/>
<stop offset="0.47" stop-color="#757575"/>
<stop offset="0.72" stop-color="#363636"/>
<stop offset="0.91" stop-color="#0E0E0E"/>
<stop offset="1"/>
</radialGradient>
<radialGradient id="paint38_radial_13_568" cx="0" cy="0" r="1" gradientUnits="userSpaceOnUse" gradientTransform="translate(382.103 19.1624) rotate(55.35) scale(19.1098 19.1098)">
<stop stop-color="white"/>
<stop offset="0.17" stop-color="#CCCCCC"/>
<stop offset="0.47" stop-color="#757575"/>
<stop offset="0.72" stop-color="#363636"/>
<stop offset="0.91" stop-color="#0E0E0E"/>
<stop offset="1"/>
</radialGradient>
<radialGradient id="paint39_radial_13_568" cx="0" cy="0" r="1" gradientUnits="userSpaceOnUse" gradientTransform="translate(423.124 553.419) rotate(55.3501) scale(19.1098 19.1097)">
<stop stop-color="white"/>
<stop offset="0.17" stop-color="#CCCCCC"/>
<stop offset="0.47" stop-color="#757575"/>
<stop offset="0.72" stop-color="#363636"/>
<stop offset="0.91" stop-color="#0E0E0E"/>
<stop offset="1"/>
</radialGradient>
<radialGradient id="paint40_radial_13_568" cx="0" cy="0" r="1" gradientUnits="userSpaceOnUse" gradientTransform="translate(611.66 570.388) rotate(55.35) scale(19.1097 19.1097)">
<stop stop-color="white"/>
<stop offset="0.17" stop-color="#CCCCCC"/>
<stop offset="0.47" stop-color="#757575"/>
<stop offset="0.72" stop-color="#363636"/>
<stop offset="0.91" stop-color="#0E0E0E"/>
<stop offset="1"/>
</radialGradient>
<radialGradient id="paint41_radial_13_568" cx="0" cy="0" r="1" gradientUnits="userSpaceOnUse" gradientTransform="translate(496.984 544.402) rotate(55.35) scale(19.1097 19.1097)">
<stop stop-color="white"/>
<stop offset="0.17" stop-color="#CCCCCC"/>
<stop offset="0.47" stop-color="#757575"/>
<stop offset="0.72" stop-color="#363636"/>
<stop offset="0.91" stop-color="#0E0E0E"/>
<stop offset="1"/>
</radialGradient>
<radialGradient id="paint42_radial_13_568" cx="0" cy="0" r="1" gradientUnits="userSpaceOnUse" gradientTransform="translate(533.508 313.996) rotate(55.35) scale(19.1098 19.1098)">
<stop stop-color="white"/>
<stop offset="0.17" stop-color="#CCCCCC"/>
<stop offset="0.47" stop-color="#757575"/>
<stop offset="0.72" stop-color="#363636"/>
<stop offset="0.91" stop-color="#0E0E0E"/>
<stop offset="1"/>
</radialGradient>
<radialGradient id="paint43_radial_13_568" cx="0" cy="0" r="1" gradientUnits="userSpaceOnUse" gradientTransform="translate(601.641 331.449) rotate(55.35) scale(19.1097 19.1097)">
<stop stop-color="white"/>
<stop offset="0.17" stop-color="#CCCCCC"/>
<stop offset="0.47" stop-color="#757575"/>
<stop offset="0.72" stop-color="#363636"/>
<stop offset="0.91" stop-color="#0E0E0E"/>
<stop offset="1"/>
</radialGradient>
<radialGradient id="paint44_radial_13_568" cx="0" cy="0" r="1" gradientUnits="userSpaceOnUse" gradientTransform="translate(558.885 92.5551) rotate(55.35) scale(19.1098 19.1098)">
<stop stop-color="white"/>
<stop offset="0.17" stop-color="#CCCCCC"/>
<stop offset="0.47" stop-color="#757575"/>
<stop offset="0.72" stop-color="#363636"/>
<stop offset="0.91" stop-color="#0E0E0E"/>
<stop offset="1"/>
</radialGradient>
<radialGradient id="paint45_radial_13_568" cx="0" cy="0" r="1" gradientUnits="userSpaceOnUse" gradientTransform="translate(556.188 474.045) rotate(55.35) scale(19.1098)">
<stop stop-color="white"/>
<stop offset="0.17" stop-color="#CCCCCC"/>
<stop offset="0.47" stop-color="#757575"/>
<stop offset="0.72" stop-color="#363636"/>
<stop offset="0.91" stop-color="#0E0E0E"/>
<stop offset="1"/>
</radialGradient>
<radialGradient id="paint46_radial_13_568" cx="0" cy="0" r="1" gradientUnits="userSpaceOnUse" gradientTransform="translate(412.687 441.775) rotate(55.35) scale(19.1098 19.1098)">
<stop stop-color="white"/>
<stop offset="0.17" stop-color="#CCCCCC"/>
<stop offset="0.47" stop-color="#757575"/>
<stop offset="0.72" stop-color="#363636"/>
<stop offset="0.91" stop-color="#0E0E0E"/>
<stop offset="1"/>
</radialGradient>
<radialGradient id="paint47_radial_13_568" cx="0" cy="0" r="1" gradientUnits="userSpaceOnUse" gradientTransform="translate(342.832 516.387) rotate(55.35) scale(19.1098 19.1098)">
<stop stop-color="white"/>
<stop offset="0.17" stop-color="#CCCCCC"/>
<stop offset="0.47" stop-color="#757575"/>
<stop offset="0.72" stop-color="#363636"/>
<stop offset="0.91" stop-color="#0E0E0E"/>
<stop offset="1"/>
</radialGradient>
<radialGradient id="paint48_radial_13_568" cx="0" cy="0" r="1" gradientUnits="userSpaceOnUse" gradientTransform="translate(552.997 598.122) rotate(55.35) scale(19.1098 19.1098)">
<stop stop-color="white"/>
<stop offset="0.17" stop-color="#CCCCCC"/>
<stop offset="0.47" stop-color="#757575"/>
<stop offset="0.72" stop-color="#363636"/>
<stop offset="0.91" stop-color="#0E0E0E"/>
<stop offset="1"/>
</radialGradient>
</defs>
</svg>
