<svg width="185" height="1112" viewBox="0 0 185 1112" fill="none" xmlns="http://www.w3.org/2000/svg">
<path style="mix-blend-mode:color-dodge" fill-rule="evenodd" clip-rule="evenodd" d="M142.337 834.055C140.117 830.87 135.734 830.092 132.554 832.311C129.369 834.531 128.59 838.914 130.81 842.094C133.03 845.279 137.408 846.058 140.593 843.838C143.773 841.618 144.556 837.24 142.337 834.055Z" fill="url(#paint0_radial_31_8169)"/>
<path style="mix-blend-mode:color-dodge" fill-rule="evenodd" clip-rule="evenodd" d="M192.685 517.094C190.466 513.915 186.088 513.131 182.903 515.356C179.718 517.576 178.939 521.953 181.159 525.139C183.378 528.318 187.756 529.102 190.942 526.882C194.121 524.663 194.905 520.279 192.685 517.1L192.685 517.094Z" fill="url(#paint1_radial_31_8169)"/>
<path style="mix-blend-mode:color-dodge" fill-rule="evenodd" clip-rule="evenodd" d="M74.5892 432.738C72.3695 429.553 67.9915 428.774 64.8065 430.994C61.6267 433.214 60.8429 437.592 63.0626 440.777C65.2823 443.957 69.6603 444.735 72.8454 442.521C76.0305 440.301 76.8089 435.923 74.5892 432.738Z" fill="url(#paint2_radial_31_8169)"/>
<path style="mix-blend-mode:color-dodge" fill-rule="evenodd" clip-rule="evenodd" d="M124.743 380.625C122.523 377.445 118.145 376.661 114.96 378.881C111.78 381.101 110.996 385.479 113.216 388.664C115.436 391.843 119.814 392.627 122.999 390.408C126.178 388.188 126.962 383.805 124.743 380.625Z" fill="url(#paint3_radial_31_8169)"/>
<path style="mix-blend-mode:color-dodge" fill-rule="evenodd" clip-rule="evenodd" d="M44.6932 294.877C42.4735 291.697 38.0955 290.913 34.9104 293.138C31.7253 295.358 30.9469 299.736 33.1666 302.921C35.3862 306.101 39.7643 306.885 42.9493 304.665C46.1344 302.445 46.9129 298.067 44.6932 294.882L44.6932 294.877Z" fill="url(#paint4_radial_31_8169)"/>
<path style="mix-blend-mode:color-dodge" fill-rule="evenodd" clip-rule="evenodd" d="M161.82 450.706C159.6 447.521 155.217 446.742 152.037 448.962C148.857 451.182 148.073 455.56 150.293 458.745C152.513 461.93 156.891 462.708 160.076 460.489C163.261 458.269 164.039 453.886 161.82 450.706Z" fill="url(#paint5_radial_31_8169)"/>
<path style="mix-blend-mode:color-dodge" fill-rule="evenodd" clip-rule="evenodd" d="M57.7187 544.931C55.4991 541.751 51.121 540.968 47.936 543.187C44.7562 545.407 43.9778 549.79 46.1921 552.97C48.4118 556.15 52.7898 556.928 55.9749 554.714C59.1599 552.494 59.9384 548.111 57.7187 544.931Z" fill="url(#paint6_radial_31_8169)"/>
<path style="mix-blend-mode:color-dodge" fill-rule="evenodd" clip-rule="evenodd" d="M90.2686 565.941C88.049 562.762 83.6709 561.983 80.4858 564.198C77.3061 566.417 76.5224 570.801 78.7473 573.98C80.967 577.16 85.345 577.944 88.5301 575.724C91.7152 573.505 92.4936 569.126 90.2739 565.941L90.2686 565.941Z" fill="url(#paint7_radial_31_8169)"/>
<path style="mix-blend-mode:color-dodge" fill-rule="evenodd" clip-rule="evenodd" d="M128.227 101.715C126.007 98.535 121.624 97.7513 118.444 99.971C115.264 102.191 114.48 106.574 116.705 109.754C118.925 112.933 123.303 113.717 126.483 111.492C129.668 109.273 130.446 104.895 128.227 101.709L128.227 101.715Z" fill="url(#paint8_radial_31_8169)"/>
<path style="mix-blend-mode:color-dodge" fill-rule="evenodd" clip-rule="evenodd" d="M26.6072 627.35C24.3876 624.165 20.0095 623.387 16.8245 625.606C13.6394 627.826 12.861 632.209 15.0806 635.389C17.3003 638.574 21.6783 639.353 24.8634 637.133C28.0485 634.913 28.8269 630.535 26.6072 627.35Z" fill="url(#paint9_radial_31_8169)"/>
<path style="mix-blend-mode:color-dodge" fill-rule="evenodd" clip-rule="evenodd" d="M42.6126 246.442C40.3505 243.289 35.9568 242.569 32.8038 244.836C29.6508 247.098 28.9362 251.492 31.1983 254.64C33.4603 257.793 37.8487 258.513 41.0017 256.245C44.1547 253.983 44.8746 249.59 42.6126 246.442Z" fill="url(#paint10_radial_31_8169)"/>
<path style="mix-blend-mode:color-dodge" fill-rule="evenodd" clip-rule="evenodd" d="M13.7454 232.23C11.4833 229.077 7.0896 228.357 3.93664 230.624C0.783649 232.886 0.0690517 237.28 2.33109 240.427C4.59313 243.575 8.98688 244.3 12.1345 242.033C15.2875 239.766 16.0074 235.377 13.7454 232.224L13.7454 232.23Z" fill="url(#paint11_radial_31_8169)"/>
<path style="mix-blend-mode:color-dodge" fill-rule="evenodd" clip-rule="evenodd" d="M81.723 506.573C79.5034 503.394 75.12 502.61 71.9402 504.83C68.7605 507.049 67.9767 511.433 70.1964 514.612C72.416 517.792 76.7941 518.576 79.9792 516.356C83.1642 514.137 83.9427 509.759 81.723 506.573Z" fill="url(#paint12_radial_31_8169)"/>
<path style="mix-blend-mode:color-dodge" fill-rule="evenodd" clip-rule="evenodd" d="M105.215 433.47C102.996 430.29 98.6122 429.506 95.4324 431.726C92.2527 433.946 91.4689 438.329 93.6886 441.509C95.9082 444.688 100.286 445.472 103.471 443.253C106.656 441.033 107.435 436.655 105.215 433.47Z" fill="url(#paint13_radial_31_8169)"/>
<path style="mix-blend-mode:color-dodge" fill-rule="evenodd" clip-rule="evenodd" d="M145.831 643.216C144.708 641.605 142.489 641.21 140.884 642.333C139.272 643.457 138.878 645.669 140.001 647.281C141.124 648.892 143.337 649.286 144.948 648.163C146.56 647.04 146.954 644.827 145.831 643.216Z" fill="url(#paint14_radial_31_8169)"/>
<path style="mix-blend-mode:color-dodge" fill-rule="evenodd" clip-rule="evenodd" d="M182.583 486.523C181.46 484.911 179.242 484.517 177.636 485.64C176.025 486.763 175.636 488.976 176.754 490.587C177.877 492.193 180.09 492.588 181.701 491.47C183.312 490.346 183.707 488.134 182.583 486.523Z" fill="url(#paint15_radial_31_8169)"/>
<path style="mix-blend-mode:color-dodge" fill-rule="evenodd" clip-rule="evenodd" d="M146.995 401.161C145.872 399.55 143.653 399.156 142.048 400.279C140.437 401.402 140.042 403.62 141.165 405.226C142.289 406.837 144.501 407.231 146.113 406.103C147.724 404.98 148.118 402.767 146.995 401.156L146.995 401.161Z" fill="url(#paint16_radial_31_8169)"/>
<path style="mix-blend-mode:color-dodge" fill-rule="evenodd" clip-rule="evenodd" d="M166.315 367.981C165.192 366.369 162.973 365.975 161.368 367.098C159.756 368.221 159.367 370.434 160.485 372.046C161.608 373.657 163.821 374.051 165.432 372.928C167.044 371.805 167.438 369.586 166.315 367.981Z" fill="url(#paint17_radial_31_8169)"/>
<path style="mix-blend-mode:color-dodge" fill-rule="evenodd" clip-rule="evenodd" d="M32.0525 224.946C30.9293 223.334 28.7163 222.94 27.1052 224.063C25.4941 225.186 25.0997 227.405 26.2229 229.011C27.3461 230.622 29.5591 231.016 31.1702 229.893C32.7812 228.77 33.1756 226.551 32.0525 224.946Z" fill="url(#paint18_radial_31_8169)"/>
<path style="mix-blend-mode:color-dodge" fill-rule="evenodd" clip-rule="evenodd" d="M120.245 273.63C119.122 272.019 116.909 271.625 115.298 272.748C113.687 273.871 113.292 276.084 114.415 277.695C115.538 279.306 117.751 279.701 119.363 278.577C120.974 277.454 121.368 275.241 120.245 273.63Z" fill="url(#paint19_radial_31_8169)"/>
<path style="mix-blend-mode:color-dodge" fill-rule="evenodd" clip-rule="evenodd" d="M11.7282 276.756C10.605 275.145 8.39206 274.751 6.781 275.879C5.16992 277.002 4.77548 279.215 5.89869 280.826C7.0219 282.437 9.23485 282.832 10.8459 281.709C12.457 280.585 12.8515 278.372 11.7282 276.761L11.7282 276.756Z" fill="url(#paint20_radial_31_8169)"/>
<path style="mix-blend-mode:color-dodge" fill-rule="evenodd" clip-rule="evenodd" d="M99.6902 385.676C98.567 384.065 96.354 383.671 94.7429 384.794C93.1318 385.917 92.7374 388.13 93.8606 389.741C94.9838 391.347 97.1968 391.741 98.8079 390.623C100.419 389.5 100.813 387.287 99.6902 385.676Z" fill="url(#paint21_radial_31_8169)"/>
<path style="mix-blend-mode:color-dodge" fill-rule="evenodd" clip-rule="evenodd" d="M105.09 103.923C103.966 102.312 101.753 101.918 100.142 103.041C98.5312 104.164 98.1368 106.377 99.26 107.988C100.383 109.599 102.596 109.994 104.207 108.871C105.818 107.747 106.213 105.535 105.09 103.923Z" fill="url(#paint22_radial_31_8169)"/>
<path style="mix-blend-mode:color-dodge" fill-rule="evenodd" clip-rule="evenodd" d="M139.474 39.3825C138.351 37.7715 136.133 37.3771 134.527 38.5003C132.916 39.6235 132.522 41.8364 133.645 43.4475C134.768 45.0586 136.981 45.453 138.592 44.3298C140.203 43.2066 140.598 40.9936 139.474 39.3825Z" fill="url(#paint23_radial_31_8169)"/>
<path style="mix-blend-mode:color-dodge" fill-rule="evenodd" clip-rule="evenodd" d="M139.009 74.45C137.886 72.839 135.673 72.4446 134.062 73.5678C132.451 74.691 132.057 76.9093 133.18 78.515C134.303 80.1261 136.516 80.5205 138.127 79.3973C139.738 78.2741 140.133 76.0611 139.009 74.45Z" fill="url(#paint24_radial_31_8169)"/>
<path style="mix-blend-mode:color-dodge" fill-rule="evenodd" clip-rule="evenodd" d="M95.8348 315.666C94.7116 314.055 92.4987 313.66 90.8876 314.784C89.2818 315.907 88.8874 318.12 90.0053 319.731C91.1285 321.342 93.3414 321.736 94.9525 320.613C96.5636 319.49 96.958 317.272 95.8348 315.666Z" fill="url(#paint25_radial_31_8169)"/>
<path style="mix-blend-mode:color-dodge" fill-rule="evenodd" clip-rule="evenodd" d="M120.462 427.896C119.18 426.408 116.936 426.236 115.448 427.519C113.96 428.795 113.789 431.045 115.071 432.527C116.353 434.016 118.591 434.187 120.085 432.904C121.573 431.622 121.744 429.384 120.462 427.896Z" fill="url(#paint26_radial_31_8169)"/>
<path style="mix-blend-mode:color-dodge" fill-rule="evenodd" clip-rule="evenodd" d="M31.1568 851.055C29.8747 849.567 27.6308 849.396 26.148 850.678C24.6598 851.955 24.4888 854.199 25.7709 855.687C27.0477 857.175 29.2916 857.346 30.7798 856.064C32.2679 854.782 32.439 852.538 31.1568 851.05L31.1568 851.055Z" fill="url(#paint27_radial_31_8169)"/>
<path style="mix-blend-mode:color-dodge" fill-rule="evenodd" clip-rule="evenodd" d="M13.6866 727.605C12.4044 726.117 10.1605 725.946 8.6724 727.228C7.18424 728.505 7.01321 730.754 8.29533 732.237C9.57747 733.725 11.816 733.896 13.3042 732.614C14.7923 731.332 14.9634 729.088 13.6866 727.605Z" fill="url(#paint28_radial_31_8169)"/>
<path style="mix-blend-mode:color-dodge" fill-rule="evenodd" clip-rule="evenodd" d="M120.453 970.515C119.171 969.027 116.927 968.856 115.444 970.138C113.956 971.415 113.785 973.658 115.067 975.147C116.349 976.635 118.588 976.806 120.076 975.524C121.564 974.242 121.735 971.998 120.453 970.509L120.453 970.515Z" fill="url(#paint29_radial_31_8169)"/>
<path style="mix-blend-mode:color-dodge" fill-rule="evenodd" clip-rule="evenodd" d="M123.29 1105.2C122.008 1103.71 119.764 1103.54 118.276 1104.82C116.788 1106.1 116.617 1108.34 117.899 1109.83C119.176 1111.32 121.42 1111.49 122.908 1110.21C124.396 1108.93 124.567 1106.68 123.285 1105.2L123.29 1105.2Z" fill="url(#paint30_radial_31_8169)"/>
<path style="mix-blend-mode:color-dodge" fill-rule="evenodd" clip-rule="evenodd" d="M15.1354 305.825C13.8585 304.337 11.6147 304.171 10.1265 305.448C8.63836 306.73 8.46731 308.974 9.74943 310.457C11.0263 311.945 13.2701 312.116 14.7583 310.834C16.2464 309.552 16.4175 307.313 15.1353 305.82L15.1354 305.825Z" fill="url(#paint31_radial_31_8169)"/>
<path style="mix-blend-mode:color-dodge" fill-rule="evenodd" clip-rule="evenodd" d="M100.927 417.562C99.6447 416.074 97.4061 415.903 95.9126 417.185C94.4245 418.467 94.2534 420.706 95.5356 422.194C96.8124 423.682 99.0563 423.853 100.544 422.571C102.033 421.294 102.204 419.05 100.927 417.562Z" fill="url(#paint32_radial_31_8169)"/>
<path style="mix-blend-mode:color-dodge" fill-rule="evenodd" clip-rule="evenodd" d="M19.7334 201.491C18.4566 200.003 16.2127 199.832 14.7193 201.114C13.2311 202.396 13.0601 204.634 14.3422 206.123C15.619 207.611 17.8629 207.782 19.3511 206.5C20.8392 205.223 21.0103 202.979 19.7281 201.491L19.7334 201.491Z" fill="url(#paint33_radial_31_8169)"/>
<path style="mix-blend-mode:color-dodge" fill-rule="evenodd" clip-rule="evenodd" d="M79.2764 140.151C77.9996 138.663 75.7557 138.492 74.2623 139.774C72.7741 141.051 72.603 143.295 73.8852 144.783C75.1673 146.271 77.4059 146.437 78.8993 145.16C80.3875 143.883 80.5586 141.639 79.2764 140.151Z" fill="url(#paint34_radial_31_8169)"/>
<path style="mix-blend-mode:color-dodge" fill-rule="evenodd" clip-rule="evenodd" d="M104.748 124.529C103.471 123.041 101.227 122.87 99.7388 124.152C98.2506 125.429 98.0796 127.673 99.3617 129.161C100.639 130.649 102.882 130.82 104.371 129.538C105.859 128.261 106.03 126.012 104.748 124.524L104.748 124.529Z" fill="url(#paint35_radial_31_8169)"/>
<path style="mix-blend-mode:color-dodge" fill-rule="evenodd" clip-rule="evenodd" d="M54.7383 256.082C53.4615 254.594 51.2176 254.422 49.7242 255.705C48.236 256.981 48.0649 259.225 49.3471 260.713C50.6239 262.202 52.8678 262.373 54.3559 261.091C55.8441 259.814 56.0152 257.57 54.733 256.082L54.7383 256.082Z" fill="url(#paint36_radial_31_8169)"/>
<path style="mix-blend-mode:color-dodge" fill-rule="evenodd" clip-rule="evenodd" d="M97.9502 157.59C96.6681 156.102 94.4295 155.931 92.9361 157.213C91.4479 158.495 91.2769 160.734 92.559 162.222C93.8412 163.71 96.0797 163.876 97.5679 162.599C99.056 161.317 99.2271 159.073 97.9502 157.59Z" fill="url(#paint37_radial_31_8169)"/>
<path style="mix-blend-mode:color-dodge" fill-rule="evenodd" clip-rule="evenodd" d="M98.6822 483.735C97.4054 482.247 95.1615 482.081 93.6734 483.358C92.1852 484.64 92.0142 486.884 93.2963 488.372C94.5731 489.86 96.817 490.031 98.3052 488.749C99.7933 487.467 99.9644 485.223 98.6822 483.735Z" fill="url(#paint38_radial_31_8169)"/>
<path style="mix-blend-mode:color-dodge" fill-rule="evenodd" clip-rule="evenodd" d="M86.6517 459.795C80.8966 451.544 69.5445 449.525 61.2931 455.28C53.0469 461.03 51.0281 472.387 56.7779 480.633C62.5329 488.879 73.8797 490.903 82.1258 485.148C90.3773 479.393 92.3961 468.041 86.6463 459.795L86.6517 459.795Z" fill="url(#paint39_radial_31_8169)"/>
<path style="mix-blend-mode:color-dodge" fill-rule="evenodd" clip-rule="evenodd" d="M55.3714 546.579C49.6163 538.333 38.2643 536.309 30.0128 542.064C21.7666 547.819 19.7478 559.171 25.4976 567.417C31.2473 575.663 42.5994 577.687 50.8455 571.932C59.097 566.177 61.1211 554.825 55.3661 546.579L55.3714 546.579Z" fill="url(#paint40_radial_31_8169)"/>
<path style="mix-blend-mode:color-dodge" fill-rule="evenodd" clip-rule="evenodd" d="M83.8167 324.046C78.0616 315.8 66.7096 313.775 58.4581 319.53C50.212 325.285 48.1932 336.638 53.9429 344.884C59.698 353.13 71.0447 355.154 79.2909 349.399C87.5423 343.644 89.5665 332.297 83.8114 324.046L83.8167 324.046Z" fill="url(#paint41_radial_31_8169)"/>
<path style="mix-blend-mode:color-dodge" fill-rule="evenodd" clip-rule="evenodd" d="M93.5687 737.677C87.8136 729.431 76.4615 727.407 68.2101 733.162C59.9639 738.917 57.9451 750.264 63.6949 758.515C69.4499 766.761 80.7967 768.785 89.0428 763.03C97.2943 757.275 99.3184 745.929 93.5633 737.677L93.5687 737.677Z" fill="url(#paint42_radial_31_8169)"/>
<path style="mix-blend-mode:color-dodge" fill-rule="evenodd" clip-rule="evenodd" d="M165.552 305.658C159.797 297.412 148.445 295.388 140.193 301.143C131.947 306.898 129.929 318.25 135.678 326.497C141.433 334.743 152.78 336.767 161.026 331.012C169.278 325.257 171.296 313.905 165.547 305.658L165.552 305.658Z" fill="url(#paint43_radial_31_8169)"/>
<path style="mix-blend-mode:color-dodge" fill-rule="evenodd" clip-rule="evenodd" d="M83.4255 176.258C77.6704 168.006 66.3183 165.988 58.0669 171.743C49.8207 177.492 47.7966 188.844 53.5517 197.096C59.3067 205.342 70.6535 207.366 78.8996 201.611C87.1511 195.856 89.1699 184.504 83.4202 176.258L83.4255 176.258Z" fill="url(#paint44_radial_31_8169)"/>
<path style="mix-blend-mode:color-dodge" fill-rule="evenodd" clip-rule="evenodd" d="M154.088 412.605C148.333 404.359 136.981 402.335 128.735 408.09C120.489 413.845 118.465 425.192 124.22 433.443C129.975 441.689 141.321 443.713 149.573 437.958C157.824 432.203 159.843 420.851 154.093 412.605L154.088 412.605Z" fill="url(#paint45_radial_31_8169)"/>
<path style="mix-blend-mode:color-dodge" fill-rule="evenodd" clip-rule="evenodd" d="M129.108 10.2533C123.353 2.0071 112.001 -0.0169899 103.754 5.73807C95.5082 11.4931 93.4841 22.84 99.2392 31.0914C104.994 39.3376 116.341 41.3617 124.587 35.6066C132.839 29.8516 134.863 18.4994 129.108 10.2533Z" fill="url(#paint46_radial_31_8169)"/>
<path style="mix-blend-mode:color-dodge" fill-rule="evenodd" clip-rule="evenodd" d="M162.775 568.906C157.02 560.66 145.668 558.636 137.416 564.391C129.17 570.146 127.151 581.498 132.901 589.745C138.656 597.991 150.003 600.015 158.249 594.26C166.5 588.505 168.524 577.153 162.769 568.906L162.775 568.906Z" fill="url(#paint47_radial_31_8169)"/>
<defs>
<radialGradient id="paint0_radial_31_8169" cx="0" cy="0" r="1" gradientUnits="userSpaceOnUse" gradientTransform="translate(136.587 838.058) rotate(-34.897) scale(7.02706 7.02706)">
<stop stop-color="white"/>
<stop offset="0.17" stop-color="#CCCCCC"/>
<stop offset="0.47" stop-color="#757575"/>
<stop offset="0.72" stop-color="#363636"/>
<stop offset="0.91" stop-color="#0E0E0E"/>
<stop offset="1"/>
</radialGradient>
<radialGradient id="paint1_radial_31_8169" cx="0" cy="0" r="1" gradientUnits="userSpaceOnUse" gradientTransform="translate(186.959 521.093) rotate(-34.897) scale(7.02707)">
<stop stop-color="white"/>
<stop offset="0.17" stop-color="#CCCCCC"/>
<stop offset="0.47" stop-color="#757575"/>
<stop offset="0.72" stop-color="#363636"/>
<stop offset="0.91" stop-color="#0E0E0E"/>
<stop offset="1"/>
</radialGradient>
<radialGradient id="paint2_radial_31_8169" cx="0" cy="0" r="1" gradientUnits="userSpaceOnUse" gradientTransform="translate(68.8622 436.727) rotate(-34.897) scale(7.02707)">
<stop stop-color="white"/>
<stop offset="0.17" stop-color="#CCCCCC"/>
<stop offset="0.47" stop-color="#757575"/>
<stop offset="0.72" stop-color="#363636"/>
<stop offset="0.91" stop-color="#0E0E0E"/>
<stop offset="1"/>
</radialGradient>
<radialGradient id="paint3_radial_31_8169" cx="0" cy="0" r="1" gradientUnits="userSpaceOnUse" gradientTransform="translate(119.024 384.616) rotate(-34.8969) scale(7.02706 7.02705)">
<stop stop-color="white"/>
<stop offset="0.17" stop-color="#CCCCCC"/>
<stop offset="0.47" stop-color="#757575"/>
<stop offset="0.72" stop-color="#363636"/>
<stop offset="0.91" stop-color="#0E0E0E"/>
<stop offset="1"/>
</radialGradient>
<radialGradient id="paint4_radial_31_8169" cx="0" cy="0" r="1" gradientUnits="userSpaceOnUse" gradientTransform="translate(38.9758 298.867) rotate(-34.897) scale(7.02707)">
<stop stop-color="white"/>
<stop offset="0.17" stop-color="#CCCCCC"/>
<stop offset="0.47" stop-color="#757575"/>
<stop offset="0.72" stop-color="#363636"/>
<stop offset="0.91" stop-color="#0E0E0E"/>
<stop offset="1"/>
</radialGradient>
<radialGradient id="paint5_radial_31_8169" cx="0" cy="0" r="1" gradientUnits="userSpaceOnUse" gradientTransform="translate(156.094 454.703) rotate(-34.897) scale(7.02707)">
<stop stop-color="white"/>
<stop offset="0.17" stop-color="#CCCCCC"/>
<stop offset="0.47" stop-color="#757575"/>
<stop offset="0.72" stop-color="#363636"/>
<stop offset="0.91" stop-color="#0E0E0E"/>
<stop offset="1"/>
</radialGradient>
<radialGradient id="paint6_radial_31_8169" cx="0" cy="0" r="1" gradientUnits="userSpaceOnUse" gradientTransform="translate(51.9859 548.923) rotate(-34.897) scale(7.02707)">
<stop stop-color="white"/>
<stop offset="0.17" stop-color="#CCCCCC"/>
<stop offset="0.47" stop-color="#757575"/>
<stop offset="0.72" stop-color="#363636"/>
<stop offset="0.91" stop-color="#0E0E0E"/>
<stop offset="1"/>
</radialGradient>
<radialGradient id="paint7_radial_31_8169" cx="0" cy="0" r="1" gradientUnits="userSpaceOnUse" gradientTransform="translate(84.5394 569.934) rotate(-34.897) scale(7.02707)">
<stop stop-color="white"/>
<stop offset="0.17" stop-color="#CCCCCC"/>
<stop offset="0.47" stop-color="#757575"/>
<stop offset="0.72" stop-color="#363636"/>
<stop offset="0.91" stop-color="#0E0E0E"/>
<stop offset="1"/>
</radialGradient>
<radialGradient id="paint8_radial_31_8169" cx="0" cy="0" r="1" gradientUnits="userSpaceOnUse" gradientTransform="translate(122.519 105.708) rotate(-34.897) scale(7.02707 7.02707)">
<stop stop-color="white"/>
<stop offset="0.17" stop-color="#CCCCCC"/>
<stop offset="0.47" stop-color="#757575"/>
<stop offset="0.72" stop-color="#363636"/>
<stop offset="0.91" stop-color="#0E0E0E"/>
<stop offset="1"/>
</radialGradient>
<radialGradient id="paint9_radial_31_8169" cx="0" cy="0" r="1" gradientUnits="userSpaceOnUse" gradientTransform="translate(20.8721 631.337) rotate(-34.897) scale(7.02707)">
<stop stop-color="white"/>
<stop offset="0.17" stop-color="#CCCCCC"/>
<stop offset="0.47" stop-color="#757575"/>
<stop offset="0.72" stop-color="#363636"/>
<stop offset="0.91" stop-color="#0E0E0E"/>
<stop offset="1"/>
</radialGradient>
<radialGradient id="paint10_radial_31_8169" cx="0" cy="0" r="1" gradientUnits="userSpaceOnUse" gradientTransform="translate(36.8426 250.385) rotate(-35.6971) scale(7.02707 7.02707)">
<stop stop-color="white"/>
<stop offset="0.17" stop-color="#CCCCCC"/>
<stop offset="0.47" stop-color="#757575"/>
<stop offset="0.72" stop-color="#363636"/>
<stop offset="0.91" stop-color="#0E0E0E"/>
<stop offset="1"/>
</radialGradient>
<radialGradient id="paint11_radial_31_8169" cx="0" cy="0" r="1" gradientUnits="userSpaceOnUse" gradientTransform="translate(7.97201 236.17) rotate(-35.697) scale(7.02706 7.02706)">
<stop stop-color="white"/>
<stop offset="0.17" stop-color="#CCCCCC"/>
<stop offset="0.47" stop-color="#757575"/>
<stop offset="0.72" stop-color="#363636"/>
<stop offset="0.91" stop-color="#0E0E0E"/>
<stop offset="1"/>
</radialGradient>
<radialGradient id="paint12_radial_31_8169" cx="0" cy="0" r="1" gradientUnits="userSpaceOnUse" gradientTransform="translate(75.9972 510.567) rotate(-34.897) scale(7.02707)">
<stop stop-color="white"/>
<stop offset="0.17" stop-color="#CCCCCC"/>
<stop offset="0.47" stop-color="#757575"/>
<stop offset="0.72" stop-color="#363636"/>
<stop offset="0.91" stop-color="#0E0E0E"/>
<stop offset="1"/>
</radialGradient>
<radialGradient id="paint13_radial_31_8169" cx="0" cy="0" r="1" gradientUnits="userSpaceOnUse" gradientTransform="translate(99.4907 437.461) rotate(-34.8969) scale(7.02706 7.02705)">
<stop stop-color="white"/>
<stop offset="0.17" stop-color="#CCCCCC"/>
<stop offset="0.47" stop-color="#757575"/>
<stop offset="0.72" stop-color="#363636"/>
<stop offset="0.91" stop-color="#0E0E0E"/>
<stop offset="1"/>
</radialGradient>
<radialGradient id="paint14_radial_31_8169" cx="0" cy="0" r="1" gradientUnits="userSpaceOnUse" gradientTransform="translate(142.945 645.225) rotate(-34.8969) scale(3.55605 3.55605)">
<stop stop-color="white"/>
<stop offset="0.17" stop-color="#CCCCCC"/>
<stop offset="0.47" stop-color="#757575"/>
<stop offset="0.72" stop-color="#363636"/>
<stop offset="0.91" stop-color="#0E0E0E"/>
<stop offset="1"/>
</radialGradient>
<radialGradient id="paint15_radial_31_8169" cx="0" cy="0" r="1" gradientUnits="userSpaceOnUse" gradientTransform="translate(179.701 488.533) rotate(-34.8969) scale(3.55605 3.55605)">
<stop stop-color="white"/>
<stop offset="0.17" stop-color="#CCCCCC"/>
<stop offset="0.47" stop-color="#757575"/>
<stop offset="0.72" stop-color="#363636"/>
<stop offset="0.91" stop-color="#0E0E0E"/>
<stop offset="1"/>
</radialGradient>
<radialGradient id="paint16_radial_31_8169" cx="0" cy="0" r="1" gradientUnits="userSpaceOnUse" gradientTransform="translate(144.123 403.166) rotate(-34.8971) scale(3.55606 3.55606)">
<stop stop-color="white"/>
<stop offset="0.17" stop-color="#CCCCCC"/>
<stop offset="0.47" stop-color="#757575"/>
<stop offset="0.72" stop-color="#363636"/>
<stop offset="0.91" stop-color="#0E0E0E"/>
<stop offset="1"/>
</radialGradient>
<radialGradient id="paint17_radial_31_8169" cx="0" cy="0" r="1" gradientUnits="userSpaceOnUse" gradientTransform="translate(163.447 369.992) rotate(-34.8971) scale(3.55606 3.55606)">
<stop stop-color="white"/>
<stop offset="0.17" stop-color="#CCCCCC"/>
<stop offset="0.47" stop-color="#757575"/>
<stop offset="0.72" stop-color="#363636"/>
<stop offset="0.91" stop-color="#0E0E0E"/>
<stop offset="1"/>
</radialGradient>
<radialGradient id="paint18_radial_31_8169" cx="0" cy="0" r="1" gradientUnits="userSpaceOnUse" gradientTransform="translate(29.1877 226.943) rotate(-34.8971) scale(3.55606 3.55606)">
<stop stop-color="white"/>
<stop offset="0.17" stop-color="#CCCCCC"/>
<stop offset="0.47" stop-color="#757575"/>
<stop offset="0.72" stop-color="#363636"/>
<stop offset="0.91" stop-color="#0E0E0E"/>
<stop offset="1"/>
</radialGradient>
<radialGradient id="paint19_radial_31_8169" cx="0" cy="0" r="1" gradientUnits="userSpaceOnUse" gradientTransform="translate(117.377 275.637) rotate(-34.8969) scale(3.55074 3.55073)">
<stop stop-color="white"/>
<stop offset="0.17" stop-color="#CCCCCC"/>
<stop offset="0.47" stop-color="#757575"/>
<stop offset="0.72" stop-color="#363636"/>
<stop offset="0.91" stop-color="#0E0E0E"/>
<stop offset="1"/>
</radialGradient>
<radialGradient id="paint20_radial_31_8169" cx="0" cy="0" r="1" gradientUnits="userSpaceOnUse" gradientTransform="translate(8.86107 278.757) rotate(-34.8969) scale(3.55074 3.55073)">
<stop stop-color="white"/>
<stop offset="0.17" stop-color="#CCCCCC"/>
<stop offset="0.47" stop-color="#757575"/>
<stop offset="0.72" stop-color="#363636"/>
<stop offset="0.91" stop-color="#0E0E0E"/>
<stop offset="1"/>
</radialGradient>
<radialGradient id="paint21_radial_31_8169" cx="0" cy="0" r="1" gradientUnits="userSpaceOnUse" gradientTransform="translate(96.8171 387.683) rotate(-34.8971) scale(3.55606 3.55606)">
<stop stop-color="white"/>
<stop offset="0.17" stop-color="#CCCCCC"/>
<stop offset="0.47" stop-color="#757575"/>
<stop offset="0.72" stop-color="#363636"/>
<stop offset="0.91" stop-color="#0E0E0E"/>
<stop offset="1"/>
</radialGradient>
<radialGradient id="paint22_radial_31_8169" cx="0" cy="0" r="1" gradientUnits="userSpaceOnUse" gradientTransform="translate(102.229 105.928) rotate(-34.8971) scale(3.55606 3.55606)">
<stop stop-color="white"/>
<stop offset="0.17" stop-color="#CCCCCC"/>
<stop offset="0.47" stop-color="#757575"/>
<stop offset="0.72" stop-color="#363636"/>
<stop offset="0.91" stop-color="#0E0E0E"/>
<stop offset="1"/>
</radialGradient>
<radialGradient id="paint23_radial_31_8169" cx="0" cy="0" r="1" gradientUnits="userSpaceOnUse" gradientTransform="translate(136.62 41.3849) rotate(-34.8971) scale(3.55606 3.55606)">
<stop stop-color="white"/>
<stop offset="0.17" stop-color="#CCCCCC"/>
<stop offset="0.47" stop-color="#757575"/>
<stop offset="0.72" stop-color="#363636"/>
<stop offset="0.91" stop-color="#0E0E0E"/>
<stop offset="1"/>
</radialGradient>
<radialGradient id="paint24_radial_31_8169" cx="0" cy="0" r="1" gradientUnits="userSpaceOnUse" gradientTransform="translate(136.155 76.4538) rotate(-34.8971) scale(3.55606 3.55606)">
<stop stop-color="white"/>
<stop offset="0.17" stop-color="#CCCCCC"/>
<stop offset="0.47" stop-color="#757575"/>
<stop offset="0.72" stop-color="#363636"/>
<stop offset="0.91" stop-color="#0E0E0E"/>
<stop offset="1"/>
</radialGradient>
<radialGradient id="paint25_radial_31_8169" cx="0" cy="0" r="1" gradientUnits="userSpaceOnUse" gradientTransform="translate(92.9648 317.67) rotate(-34.8971) scale(3.55606 3.55606)">
<stop stop-color="white"/>
<stop offset="0.17" stop-color="#CCCCCC"/>
<stop offset="0.47" stop-color="#757575"/>
<stop offset="0.72" stop-color="#363636"/>
<stop offset="0.91" stop-color="#0E0E0E"/>
<stop offset="1"/>
</radialGradient>
<radialGradient id="paint26_radial_31_8169" cx="0" cy="0" r="1" gradientUnits="userSpaceOnUse" gradientTransform="translate(117.77 430.113) rotate(-40.6768) scale(3.55605 3.55604)">
<stop stop-color="white"/>
<stop offset="0.17" stop-color="#CCCCCC"/>
<stop offset="0.47" stop-color="#757575"/>
<stop offset="0.72" stop-color="#363636"/>
<stop offset="0.91" stop-color="#0E0E0E"/>
<stop offset="1"/>
</radialGradient>
<radialGradient id="paint27_radial_31_8169" cx="0" cy="0" r="1" gradientUnits="userSpaceOnUse" gradientTransform="translate(28.437 853.305) rotate(-40.6771) scale(3.55606 3.55606)">
<stop stop-color="white"/>
<stop offset="0.17" stop-color="#CCCCCC"/>
<stop offset="0.47" stop-color="#757575"/>
<stop offset="0.72" stop-color="#363636"/>
<stop offset="0.91" stop-color="#0E0E0E"/>
<stop offset="1"/>
</radialGradient>
<radialGradient id="paint28_radial_31_8169" cx="0" cy="0" r="1" gradientUnits="userSpaceOnUse" gradientTransform="translate(10.9725 729.84) rotate(-40.6768) scale(3.55605 3.55604)">
<stop stop-color="white"/>
<stop offset="0.17" stop-color="#CCCCCC"/>
<stop offset="0.47" stop-color="#757575"/>
<stop offset="0.72" stop-color="#363636"/>
<stop offset="0.91" stop-color="#0E0E0E"/>
<stop offset="1"/>
</radialGradient>
<radialGradient id="paint29_radial_31_8169" cx="0" cy="0" r="1" gradientUnits="userSpaceOnUse" gradientTransform="translate(117.737 972.781) rotate(-40.677) scale(3.55606)">
<stop stop-color="white"/>
<stop offset="0.17" stop-color="#CCCCCC"/>
<stop offset="0.47" stop-color="#757575"/>
<stop offset="0.72" stop-color="#363636"/>
<stop offset="0.91" stop-color="#0E0E0E"/>
<stop offset="1"/>
</radialGradient>
<radialGradient id="paint30_radial_31_8169" cx="0" cy="0" r="1" gradientUnits="userSpaceOnUse" gradientTransform="translate(120.566 1107.47) rotate(-40.6772) scale(3.55606 3.55606)">
<stop stop-color="white"/>
<stop offset="0.17" stop-color="#CCCCCC"/>
<stop offset="0.47" stop-color="#757575"/>
<stop offset="0.72" stop-color="#363636"/>
<stop offset="0.91" stop-color="#0E0E0E"/>
<stop offset="1"/>
</radialGradient>
<radialGradient id="paint31_radial_31_8169" cx="0" cy="0" r="1" gradientUnits="userSpaceOnUse" gradientTransform="translate(12.4461 308.025) rotate(-40.6769) scale(3.55605 3.55604)">
<stop stop-color="white"/>
<stop offset="0.17" stop-color="#CCCCCC"/>
<stop offset="0.47" stop-color="#757575"/>
<stop offset="0.72" stop-color="#363636"/>
<stop offset="0.91" stop-color="#0E0E0E"/>
<stop offset="1"/>
</radialGradient>
<radialGradient id="paint32_radial_31_8169" cx="0" cy="0" r="1" gradientUnits="userSpaceOnUse" gradientTransform="translate(98.2363 419.773) rotate(-40.6773) scale(3.55608 3.55608)">
<stop stop-color="white"/>
<stop offset="0.17" stop-color="#CCCCCC"/>
<stop offset="0.47" stop-color="#757575"/>
<stop offset="0.72" stop-color="#363636"/>
<stop offset="0.91" stop-color="#0E0E0E"/>
<stop offset="1"/>
</radialGradient>
<radialGradient id="paint33_radial_31_8169" cx="0" cy="0" r="1" gradientUnits="userSpaceOnUse" gradientTransform="translate(17.0469 203.682) rotate(-40.6768) scale(3.55605 3.55604)">
<stop stop-color="white"/>
<stop offset="0.17" stop-color="#CCCCCC"/>
<stop offset="0.47" stop-color="#757575"/>
<stop offset="0.72" stop-color="#363636"/>
<stop offset="0.91" stop-color="#0E0E0E"/>
<stop offset="1"/>
</radialGradient>
<radialGradient id="paint34_radial_31_8169" cx="0" cy="0" r="1" gradientUnits="userSpaceOnUse" gradientTransform="translate(76.6001 142.339) rotate(-40.6769) scale(3.55605 3.55604)">
<stop stop-color="white"/>
<stop offset="0.17" stop-color="#CCCCCC"/>
<stop offset="0.47" stop-color="#757575"/>
<stop offset="0.72" stop-color="#363636"/>
<stop offset="0.91" stop-color="#0E0E0E"/>
<stop offset="1"/>
</radialGradient>
<radialGradient id="paint35_radial_31_8169" cx="0" cy="0" r="1" gradientUnits="userSpaceOnUse" gradientTransform="translate(102.071 126.719) rotate(-40.6774) scale(3.55607 3.55608)">
<stop stop-color="white"/>
<stop offset="0.17" stop-color="#CCCCCC"/>
<stop offset="0.47" stop-color="#757575"/>
<stop offset="0.72" stop-color="#363636"/>
<stop offset="0.91" stop-color="#0E0E0E"/>
<stop offset="1"/>
</radialGradient>
<radialGradient id="paint36_radial_31_8169" cx="0" cy="0" r="1" gradientUnits="userSpaceOnUse" gradientTransform="translate(52.0547 258.279) rotate(-40.6768) scale(3.55605 3.55605)">
<stop stop-color="white"/>
<stop offset="0.17" stop-color="#CCCCCC"/>
<stop offset="0.47" stop-color="#757575"/>
<stop offset="0.72" stop-color="#363636"/>
<stop offset="0.91" stop-color="#0E0E0E"/>
<stop offset="1"/>
</radialGradient>
<radialGradient id="paint37_radial_31_8169" cx="0" cy="0" r="1" gradientUnits="userSpaceOnUse" gradientTransform="translate(95.274 159.777) rotate(-40.6768) scale(3.55605 3.55605)">
<stop stop-color="white"/>
<stop offset="0.17" stop-color="#CCCCCC"/>
<stop offset="0.47" stop-color="#757575"/>
<stop offset="0.72" stop-color="#363636"/>
<stop offset="0.91" stop-color="#0E0E0E"/>
<stop offset="1"/>
</radialGradient>
<radialGradient id="paint38_radial_31_8169" cx="0" cy="0" r="1" gradientUnits="userSpaceOnUse" gradientTransform="translate(95.9857 485.957) rotate(-40.6773) scale(3.55608 3.55609)">
<stop stop-color="white"/>
<stop offset="0.17" stop-color="#CCCCCC"/>
<stop offset="0.47" stop-color="#757575"/>
<stop offset="0.72" stop-color="#363636"/>
<stop offset="0.91" stop-color="#0E0E0E"/>
<stop offset="1"/>
</radialGradient>
<radialGradient id="paint39_radial_31_8169" cx="0" cy="0" r="1" gradientUnits="userSpaceOnUse" gradientTransform="translate(71.7527 470.187) rotate(-34.897) scale(18.2108 18.2108)">
<stop stop-color="white"/>
<stop offset="0.17" stop-color="#CCCCCC"/>
<stop offset="0.47" stop-color="#757575"/>
<stop offset="0.72" stop-color="#363636"/>
<stop offset="0.91" stop-color="#0E0E0E"/>
<stop offset="1"/>
</radialGradient>
<radialGradient id="paint40_radial_31_8169" cx="0" cy="0" r="1" gradientUnits="userSpaceOnUse" gradientTransform="translate(40.4676 556.968) rotate(-34.897) scale(18.2108 18.2108)">
<stop stop-color="white"/>
<stop offset="0.17" stop-color="#CCCCCC"/>
<stop offset="0.47" stop-color="#757575"/>
<stop offset="0.72" stop-color="#363636"/>
<stop offset="0.91" stop-color="#0E0E0E"/>
<stop offset="1"/>
</radialGradient>
<radialGradient id="paint41_radial_31_8169" cx="0" cy="0" r="1" gradientUnits="userSpaceOnUse" gradientTransform="translate(68.9196 334.436) rotate(-34.897) scale(18.2108 18.2108)">
<stop stop-color="white"/>
<stop offset="0.17" stop-color="#CCCCCC"/>
<stop offset="0.47" stop-color="#757575"/>
<stop offset="0.72" stop-color="#363636"/>
<stop offset="0.91" stop-color="#0E0E0E"/>
<stop offset="1"/>
</radialGradient>
<radialGradient id="paint42_radial_31_8169" cx="0" cy="0" r="1" gradientUnits="userSpaceOnUse" gradientTransform="translate(78.6537 748.069) rotate(-34.897) scale(18.2108 18.2108)">
<stop stop-color="white"/>
<stop offset="0.17" stop-color="#CCCCCC"/>
<stop offset="0.47" stop-color="#757575"/>
<stop offset="0.72" stop-color="#363636"/>
<stop offset="0.91" stop-color="#0E0E0E"/>
<stop offset="1"/>
</radialGradient>
<radialGradient id="paint43_radial_31_8169" cx="0" cy="0" r="1" gradientUnits="userSpaceOnUse" gradientTransform="translate(150.662 316.053) rotate(-34.897) scale(18.2108 18.2108)">
<stop stop-color="white"/>
<stop offset="0.17" stop-color="#CCCCCC"/>
<stop offset="0.47" stop-color="#757575"/>
<stop offset="0.72" stop-color="#363636"/>
<stop offset="0.91" stop-color="#0E0E0E"/>
<stop offset="1"/>
</radialGradient>
<radialGradient id="paint44_radial_31_8169" cx="0" cy="0" r="1" gradientUnits="userSpaceOnUse" gradientTransform="translate(68.5381 186.644) rotate(-34.897) scale(18.2108 18.2108)">
<stop stop-color="white"/>
<stop offset="0.17" stop-color="#CCCCCC"/>
<stop offset="0.47" stop-color="#757575"/>
<stop offset="0.72" stop-color="#363636"/>
<stop offset="0.91" stop-color="#0E0E0E"/>
<stop offset="1"/>
</radialGradient>
<radialGradient id="paint45_radial_31_8169" cx="0" cy="0" r="1" gradientUnits="userSpaceOnUse" gradientTransform="translate(139.191 423.002) rotate(-34.897) scale(18.2108 18.2108)">
<stop stop-color="white"/>
<stop offset="0.17" stop-color="#CCCCCC"/>
<stop offset="0.47" stop-color="#757575"/>
<stop offset="0.72" stop-color="#363636"/>
<stop offset="0.91" stop-color="#0E0E0E"/>
<stop offset="1"/>
</radialGradient>
<radialGradient id="paint46_radial_31_8169" cx="0" cy="0" r="1" gradientUnits="userSpaceOnUse" gradientTransform="translate(114.233 20.6433) rotate(-34.8971) scale(18.2108 18.2109)">
<stop stop-color="white"/>
<stop offset="0.17" stop-color="#CCCCCC"/>
<stop offset="0.47" stop-color="#757575"/>
<stop offset="0.72" stop-color="#363636"/>
<stop offset="0.91" stop-color="#0E0E0E"/>
<stop offset="1"/>
</radialGradient>
<radialGradient id="paint47_radial_31_8169" cx="0" cy="0" r="1" gradientUnits="userSpaceOnUse" gradientTransform="translate(147.871 579.302) rotate(-34.8971) scale(18.2108 18.2109)">
<stop stop-color="white"/>
<stop offset="0.17" stop-color="#CCCCCC"/>
<stop offset="0.47" stop-color="#757575"/>
<stop offset="0.72" stop-color="#363636"/>
<stop offset="0.91" stop-color="#0E0E0E"/>
<stop offset="1"/>
</radialGradient>
</defs>
</svg>
