<svg width="446" height="1386" viewBox="0 0 446 1386" fill="none" xmlns="http://www.w3.org/2000/svg">
<path style="mix-blend-mode:color-dodge" fill-rule="evenodd" clip-rule="evenodd" d="M207.704 388.474C210.918 392.738 216.983 393.585 221.24 390.371C225.504 387.157 226.35 381.093 223.137 376.835C219.923 372.571 213.866 371.725 209.601 374.938C205.344 378.152 204.49 384.209 207.704 388.474Z" fill="url(#paint0_radial_31_8453)"/>
<path style="mix-blend-mode:color-dodge" fill-rule="evenodd" clip-rule="evenodd" d="M54.3368 355.74C57.5503 359.997 63.6081 360.851 67.8726 357.637C72.1298 354.424 72.9834 348.366 69.7697 344.102C66.5562 339.844 60.4985 338.991 56.2339 342.204C51.9694 345.418 51.1231 351.476 54.3368 355.74Z" fill="url(#paint1_radial_31_8453)"/>
<path style="mix-blend-mode:color-dodge" fill-rule="evenodd" clip-rule="evenodd" d="M47.2675 73.8517C50.4812 78.1162 56.546 78.9622 60.8032 75.7487C65.0678 72.535 65.914 66.4775 62.7003 62.213C59.4869 57.9558 53.4291 57.1022 49.1645 60.3159C44.9 63.5297 44.0537 69.5871 47.2675 73.8517Z" fill="url(#paint2_radial_31_8453)"/>
<path style="mix-blend-mode:color-dodge" fill-rule="evenodd" clip-rule="evenodd" d="M154.695 826.718C157.908 830.975 163.966 831.828 168.23 828.607C172.494 825.394 173.341 819.336 170.127 815.072C166.914 810.814 160.856 809.961 156.591 813.175C152.334 816.388 151.481 822.453 154.694 826.71L154.695 826.718Z" fill="url(#paint3_radial_31_8453)"/>
<path style="mix-blend-mode:color-dodge" fill-rule="evenodd" clip-rule="evenodd" d="M321.331 936.633C324.545 940.897 330.602 941.743 334.867 938.53C339.124 935.316 339.977 929.258 336.764 924.994C333.55 920.737 327.493 919.89 323.228 923.097C318.963 926.311 318.117 932.368 321.331 936.633Z" fill="url(#paint4_radial_31_8453)"/>
<path style="mix-blend-mode:color-dodge" fill-rule="evenodd" clip-rule="evenodd" d="M255.057 1010.83C258.27 1015.08 264.328 1015.94 268.592 1012.72C272.85 1009.51 273.703 1003.45 270.489 999.187C267.276 994.929 261.218 994.076 256.954 997.289C252.696 1000.5 251.843 1006.57 255.057 1010.83Z" fill="url(#paint5_radial_31_8453)"/>
<path style="mix-blend-mode:color-dodge" fill-rule="evenodd" clip-rule="evenodd" d="M369.468 1124.6C372.681 1128.86 378.739 1129.71 383.003 1126.49C387.268 1123.27 388.114 1117.22 384.9 1112.95C381.687 1108.69 375.629 1107.84 371.365 1111.05C367.1 1114.27 366.254 1120.33 369.468 1124.59L369.468 1124.6Z" fill="url(#paint6_radial_31_8453)"/>
<path style="mix-blend-mode:color-dodge" fill-rule="evenodd" clip-rule="evenodd" d="M200.513 916.393C203.726 920.657 209.791 921.503 214.048 918.29C218.306 915.076 219.159 909.018 215.946 904.754C212.732 900.489 206.674 899.643 202.41 902.857C198.145 906.071 197.299 912.135 200.513 916.393Z" fill="url(#paint7_radial_31_8453)"/>
<path style="mix-blend-mode:color-dodge" fill-rule="evenodd" clip-rule="evenodd" d="M338.787 781.559C342.001 785.816 348.058 786.669 352.323 783.455C356.58 780.242 357.426 774.177 354.22 769.92C351.007 765.663 344.949 764.816 340.684 768.023C336.42 771.236 335.574 777.301 338.787 781.559Z" fill="url(#paint8_radial_31_8453)"/>
<path style="mix-blend-mode:color-dodge" fill-rule="evenodd" clip-rule="evenodd" d="M292.973 754.342C296.187 758.599 302.244 759.445 306.509 756.239C310.766 753.026 311.62 746.961 308.399 742.704C305.185 738.446 299.128 737.593 294.863 740.807C290.599 744.02 289.752 750.078 292.966 754.342L292.973 754.342Z" fill="url(#paint9_radial_31_8453)"/>
<path style="mix-blend-mode:color-dodge" fill-rule="evenodd" clip-rule="evenodd" d="M264.519 1394.37C267.733 1398.63 273.798 1399.48 278.055 1396.27C282.312 1393.06 283.165 1386.99 279.945 1382.73C276.731 1378.48 270.673 1377.62 266.417 1380.84C262.152 1384.06 261.306 1390.11 264.519 1394.38L264.519 1394.37Z" fill="url(#paint10_radial_31_8453)"/>
<path style="mix-blend-mode:color-dodge" fill-rule="evenodd" clip-rule="evenodd" d="M377.34 666.682C380.554 670.946 386.611 671.793 390.876 668.579C395.14 665.365 395.986 659.3 392.773 655.043C389.559 650.778 383.501 649.932 379.237 653.146C374.972 656.36 374.126 662.417 377.34 666.682Z" fill="url(#paint11_radial_31_8453)"/>
<path style="mix-blend-mode:color-dodge" fill-rule="evenodd" clip-rule="evenodd" d="M374.803 1191.07C378.073 1195.28 384.149 1196.05 388.367 1192.77C392.586 1189.5 393.343 1183.43 390.073 1179.21C386.803 1175 380.734 1174.23 376.516 1177.51C372.298 1180.78 371.533 1186.86 374.803 1191.07Z" fill="url(#paint12_radial_31_8453)"/>
<path style="mix-blend-mode:color-dodge" fill-rule="evenodd" clip-rule="evenodd" d="M415.207 1209.13C418.478 1213.34 424.554 1214.11 428.772 1210.83C432.99 1207.56 433.748 1201.49 430.477 1197.27C427.207 1193.06 421.131 1192.29 416.92 1195.57C412.702 1198.85 411.937 1204.91 415.207 1209.13L415.207 1209.13Z" fill="url(#paint13_radial_31_8453)"/>
<path style="mix-blend-mode:color-dodge" fill-rule="evenodd" clip-rule="evenodd" d="M141.301 760.212C144.571 764.43 150.647 765.195 154.865 761.918C159.084 758.647 159.842 752.579 156.571 748.361C153.301 744.142 147.232 743.377 143.014 746.655C138.796 749.932 138.031 756.001 141.301 760.212Z" fill="url(#paint14_radial_31_8453)"/>
<path style="mix-blend-mode:color-dodge" fill-rule="evenodd" clip-rule="evenodd" d="M27.4043 574.846C30.6177 579.103 36.6755 579.957 40.94 576.743C45.2046 573.53 46.0505 567.465 42.8371 563.208C39.6234 558.943 33.5659 558.097 29.3013 561.311C25.0368 564.524 24.1908 570.589 27.4043 574.846Z" fill="url(#paint15_radial_31_8453)"/>
<path style="mix-blend-mode:color-dodge" fill-rule="evenodd" clip-rule="evenodd" d="M307.753 835.508C310.966 839.765 317.031 840.618 321.289 837.405C325.546 834.191 326.399 828.126 323.186 823.869C319.972 819.612 313.914 818.758 309.65 821.972C305.385 825.186 304.539 831.243 307.753 835.508Z" fill="url(#paint16_radial_31_8453)"/>
<path style="mix-blend-mode:color-dodge" fill-rule="evenodd" clip-rule="evenodd" d="M279.197 937.192C282.411 941.449 288.476 942.302 292.733 939.089C296.99 935.875 297.843 929.81 294.63 925.553C291.417 921.296 285.359 920.442 281.094 923.656C276.83 926.87 275.983 932.927 279.197 937.192Z" fill="url(#paint17_radial_31_8453)"/>
<path style="mix-blend-mode:color-dodge" fill-rule="evenodd" clip-rule="evenodd" d="M77.3524 710.677C78.9785 712.834 82.0402 713.263 84.1971 711.637C86.3541 710.011 86.7831 706.949 85.157 704.792C83.531 702.635 80.4693 702.206 78.3123 703.833C76.1554 705.459 75.7266 708.528 77.3524 710.677Z" fill="url(#paint18_radial_31_8453)"/>
<path style="mix-blend-mode:color-dodge" fill-rule="evenodd" clip-rule="evenodd" d="M133.275 518.468C134.901 520.625 137.963 521.054 140.12 519.428C142.277 517.802 142.706 514.74 141.08 512.583C139.454 510.426 136.392 509.997 134.235 511.623C132.078 513.249 131.649 516.311 133.275 518.468Z" fill="url(#paint19_radial_31_8453)"/>
<path style="mix-blend-mode:color-dodge" fill-rule="evenodd" clip-rule="evenodd" d="M212.654 650.966C214.28 653.123 217.349 653.552 219.499 651.926C221.656 650.3 222.085 647.239 220.459 645.082C218.833 642.925 215.771 642.495 213.614 644.122C211.457 645.748 211.028 648.809 212.654 650.966Z" fill="url(#paint20_radial_31_8453)"/>
<path style="mix-blend-mode:color-dodge" fill-rule="evenodd" clip-rule="evenodd" d="M170.142 868.222C171.769 870.379 174.838 870.807 176.987 869.182C179.144 867.556 179.566 864.494 177.947 862.337C176.321 860.187 173.26 859.758 171.102 861.377C168.945 863.003 168.516 866.065 170.142 868.222Z" fill="url(#paint21_radial_31_8453)"/>
<path style="mix-blend-mode:color-dodge" fill-rule="evenodd" clip-rule="evenodd" d="M223.422 983.734C225.048 985.891 228.117 986.32 230.266 984.694C232.423 983.068 232.852 979.999 231.226 977.849C229.6 975.692 226.538 975.263 224.382 976.896C222.225 978.523 221.796 981.584 223.422 983.741L223.422 983.734Z" fill="url(#paint22_radial_31_8453)"/>
<path style="mix-blend-mode:color-dodge" fill-rule="evenodd" clip-rule="evenodd" d="M198.562 1030.33C200.188 1032.49 203.257 1032.91 205.406 1031.29C207.563 1029.66 207.985 1026.6 206.366 1024.44C204.74 1022.29 201.679 1021.86 199.522 1023.48C197.365 1025.11 196.936 1028.18 198.562 1030.33Z" fill="url(#paint23_radial_31_8453)"/>
<path style="mix-blend-mode:color-dodge" fill-rule="evenodd" clip-rule="evenodd" d="M18.7117 869.362C20.3378 871.519 23.3995 871.948 25.5564 870.322C27.7134 868.696 28.1421 865.627 26.5163 863.477C24.8906 861.328 21.8285 860.891 19.6716 862.517C17.5147 864.143 17.0856 867.205 18.7117 869.362Z" fill="url(#paint24_radial_31_8453)"/>
<path style="mix-blend-mode:color-dodge" fill-rule="evenodd" clip-rule="evenodd" d="M390.417 1220.07C392.043 1222.23 395.105 1222.66 397.262 1221.03C399.419 1219.41 399.847 1216.34 398.221 1214.19C396.595 1212.03 393.534 1211.6 391.377 1213.23C389.22 1214.86 388.791 1217.92 390.417 1220.07Z" fill="url(#paint25_radial_31_8453)"/>
<path style="mix-blend-mode:color-dodge" fill-rule="evenodd" clip-rule="evenodd" d="M266.707 1157.66C268.333 1159.82 271.395 1160.25 273.552 1158.62C275.709 1157 276.138 1153.93 274.512 1151.78C272.885 1149.62 269.824 1149.19 267.667 1150.82C265.51 1152.44 265.081 1155.51 266.707 1157.66Z" fill="url(#paint26_radial_31_8453)"/>
<path style="mix-blend-mode:color-dodge" fill-rule="evenodd" clip-rule="evenodd" d="M415.706 1147.82C417.332 1149.98 420.394 1150.41 422.551 1148.77C424.708 1147.15 425.137 1144.09 423.511 1141.93C421.884 1139.77 418.823 1139.34 416.666 1140.97C414.509 1142.59 414.08 1145.66 415.706 1147.81L415.706 1147.82Z" fill="url(#paint27_radial_31_8453)"/>
<path style="mix-blend-mode:color-dodge" fill-rule="evenodd" clip-rule="evenodd" d="M289.234 1002.6C290.86 1004.76 293.922 1005.19 296.079 1003.56C298.236 1001.94 298.665 998.874 297.039 996.717C295.413 994.567 292.351 994.138 290.194 995.757C288.037 997.383 287.608 1000.44 289.234 1002.6Z" fill="url(#paint28_radial_31_8453)"/>
<path style="mix-blend-mode:color-dodge" fill-rule="evenodd" clip-rule="evenodd" d="M296.21 1390.15C297.836 1392.31 300.898 1392.74 303.055 1391.11C305.212 1389.49 305.641 1386.43 304.014 1384.27C302.388 1382.11 299.327 1381.68 297.17 1383.31C295.013 1384.93 294.584 1388 296.21 1390.15Z" fill="url(#paint29_radial_31_8453)"/>
<path style="mix-blend-mode:color-dodge" fill-rule="evenodd" clip-rule="evenodd" d="M298.111 1098.64C299.738 1100.79 302.799 1101.22 304.956 1099.6C307.106 1097.97 307.535 1094.91 305.916 1092.75C304.29 1090.59 301.228 1090.17 299.071 1091.79C296.914 1093.42 296.486 1096.49 298.111 1098.64Z" fill="url(#paint30_radial_31_8453)"/>
<path style="mix-blend-mode:color-dodge" fill-rule="evenodd" clip-rule="evenodd" d="M258.526 945.632C260.364 947.612 263.457 947.732 265.437 945.894C267.417 944.063 267.537 940.963 265.699 938.99C263.861 937.011 260.776 936.89 258.788 938.728C256.809 940.567 256.688 943.652 258.526 945.632Z" fill="url(#paint31_radial_31_8453)"/>
<path style="mix-blend-mode:color-dodge" fill-rule="evenodd" clip-rule="evenodd" d="M359.655 359.426C361.494 361.406 364.587 361.527 366.559 359.689C368.539 357.858 368.66 354.765 366.821 352.785C364.99 350.805 361.898 350.685 359.918 352.523C357.938 354.361 357.818 357.454 359.656 359.434L359.655 359.426Z" fill="url(#paint32_radial_31_8453)"/>
<path style="mix-blend-mode:color-dodge" fill-rule="evenodd" clip-rule="evenodd" d="M389.976 528.218C391.815 530.197 394.907 530.318 396.887 528.48C398.867 526.649 398.987 523.549 397.15 521.576C395.311 519.596 392.226 519.476 390.246 521.314C388.266 523.152 388.146 526.245 389.976 528.218Z" fill="url(#paint33_radial_31_8453)"/>
<path style="mix-blend-mode:color-dodge" fill-rule="evenodd" clip-rule="evenodd" d="M230.812 199.79C232.65 201.77 235.743 201.89 237.715 200.052C239.695 198.221 239.816 195.128 237.978 193.149C236.139 191.169 233.054 191.048 231.074 192.886C229.094 194.725 228.974 197.817 230.812 199.797L230.812 199.79Z" fill="url(#paint34_radial_31_8453)"/>
<path style="mix-blend-mode:color-dodge" fill-rule="evenodd" clip-rule="evenodd" d="M220.03 14.8129C221.868 16.7927 224.961 16.9132 226.941 15.0749C228.921 13.244 229.042 10.1511 227.203 8.16399C225.372 6.18385 222.28 6.07071 220.3 7.90165C218.32 9.7399 218.199 12.8327 220.037 14.8053L220.03 14.8129Z" fill="url(#paint35_radial_31_8453)"/>
<path style="mix-blend-mode:color-dodge" fill-rule="evenodd" clip-rule="evenodd" d="M409.537 1108.04C411.368 1110.02 414.461 1110.13 416.441 1108.3C418.421 1106.46 418.541 1103.37 416.703 1101.4C414.872 1099.42 411.779 1099.3 409.8 1101.13C407.82 1102.97 407.699 1106.06 409.538 1108.05L409.537 1108.04Z" fill="url(#paint36_radial_31_8453)"/>
<path style="mix-blend-mode:color-dodge" fill-rule="evenodd" clip-rule="evenodd" d="M285.906 958.838C287.744 960.818 290.83 960.939 292.817 959.1C294.797 957.262 294.917 954.176 293.079 952.196C291.248 950.216 288.155 950.096 286.176 951.934C284.195 953.765 284.075 956.858 285.906 958.838Z" fill="url(#paint37_radial_31_8453)"/>
<path style="mix-blend-mode:color-dodge" fill-rule="evenodd" clip-rule="evenodd" d="M408.549 1251.68C410.379 1253.66 413.472 1253.78 415.459 1251.95C417.439 1250.11 417.56 1247.02 415.722 1245.04C413.891 1243.06 410.798 1242.94 408.818 1244.78C406.838 1246.61 406.718 1249.7 408.556 1251.68L408.549 1251.68Z" fill="url(#paint38_radial_31_8453)"/>
<path style="mix-blend-mode:color-dodge" fill-rule="evenodd" clip-rule="evenodd" d="M329.839 1339.04C331.67 1341.02 334.763 1341.14 336.75 1339.3C338.73 1337.47 338.851 1334.38 337.013 1332.4C335.174 1330.42 332.089 1330.3 330.102 1332.13C328.122 1333.97 328.001 1337.06 329.839 1339.04Z" fill="url(#paint39_radial_31_8453)"/>
<path style="mix-blend-mode:color-dodge" fill-rule="evenodd" clip-rule="evenodd" d="M295.627 1361.81C297.458 1363.79 300.551 1363.91 302.531 1362.07C304.511 1360.24 304.631 1357.15 302.793 1355.17C300.962 1353.19 297.869 1353.07 295.889 1354.91C293.909 1356.74 293.789 1359.84 295.627 1361.82L295.627 1361.81Z" fill="url(#paint40_radial_31_8453)"/>
<path style="mix-blend-mode:color-dodge" fill-rule="evenodd" clip-rule="evenodd" d="M357.643 1178.43C359.474 1180.41 362.567 1180.54 364.554 1178.7C366.534 1176.87 366.655 1173.77 364.816 1171.79C362.986 1169.81 359.893 1169.69 357.913 1171.53C355.933 1173.36 355.812 1176.45 357.651 1178.43L357.643 1178.43Z" fill="url(#paint41_radial_31_8453)"/>
<path style="mix-blend-mode:color-dodge" fill-rule="evenodd" clip-rule="evenodd" d="M303.281 1316.02C305.119 1318 308.205 1318.12 310.192 1316.28C312.172 1314.45 312.292 1311.36 310.454 1309.38C308.616 1307.4 305.531 1307.29 303.55 1309.12C301.571 1310.96 301.45 1314.05 303.281 1316.02Z" fill="url(#paint42_radial_31_8453)"/>
<path style="mix-blend-mode:color-dodge" fill-rule="evenodd" clip-rule="evenodd" d="M285.61 867.767C287.441 869.747 290.533 869.86 292.513 868.029C294.493 866.191 294.614 863.098 292.775 861.118C290.945 859.138 287.852 859.018 285.872 860.856C283.892 862.694 283.772 865.787 285.61 867.767Z" fill="url(#paint43_radial_31_8453)"/>
<path style="mix-blend-mode:color-dodge" fill-rule="evenodd" clip-rule="evenodd" d="M303.368 900.059C311.701 911.106 327.407 913.301 338.455 904.969C349.496 896.645 351.69 880.93 343.366 869.89C335.034 858.849 319.334 856.647 308.294 864.979C297.246 873.311 295.051 889.018 303.376 900.058L303.368 900.059Z" fill="url(#paint44_radial_31_8453)"/>
<path style="mix-blend-mode:color-dodge" fill-rule="evenodd" clip-rule="evenodd" d="M341.93 779.174C350.262 790.215 365.969 792.417 377.017 784.084C388.057 775.753 390.252 760.046 381.927 749.005C373.603 737.964 357.896 735.762 346.855 744.094C335.808 752.426 333.605 768.133 341.937 779.174L341.93 779.174Z" fill="url(#paint45_radial_31_8453)"/>
<path style="mix-blend-mode:color-dodge" fill-rule="evenodd" clip-rule="evenodd" d="M314.201 1086.5C322.533 1097.54 338.24 1099.75 349.288 1091.41C360.329 1083.08 362.523 1067.38 354.199 1056.34C345.867 1045.29 330.167 1043.09 319.127 1051.42C308.079 1059.76 305.877 1075.46 314.209 1086.5L314.201 1086.5Z" fill="url(#paint46_radial_31_8453)"/>
<path style="mix-blend-mode:color-dodge" fill-rule="evenodd" clip-rule="evenodd" d="M20.0843 797.201C28.4161 808.241 44.1232 810.444 55.1709 802.112C66.2114 793.78 68.4062 778.073 60.0817 767.032C51.7499 755.992 36.0501 753.789 25.0096 762.121C13.9619 770.453 11.7597 786.16 20.0915 797.201L20.0843 797.201Z" fill="url(#paint47_radial_31_8453)"/>
<path style="mix-blend-mode:color-dodge" fill-rule="evenodd" clip-rule="evenodd" d="M279.661 518.457C287.993 529.497 303.7 531.7 314.748 523.367C325.789 515.036 327.984 499.336 319.659 488.288C311.327 477.247 295.627 475.045 284.587 483.377C273.539 491.709 271.337 507.409 279.669 518.456L279.661 518.457Z" fill="url(#paint48_radial_31_8453)"/>
<path style="mix-blend-mode:color-dodge" fill-rule="evenodd" clip-rule="evenodd" d="M202.794 1115.95C211.126 1126.99 226.833 1129.2 237.881 1120.86C248.921 1112.53 251.116 1096.83 242.792 1085.79C234.46 1074.74 218.76 1072.54 207.72 1080.87C196.672 1089.21 194.477 1104.91 202.802 1115.95L202.794 1115.95Z" fill="url(#paint49_radial_31_8453)"/>
<path style="mix-blend-mode:color-dodge" fill-rule="evenodd" clip-rule="evenodd" d="M322.291 1289.62C330.623 1300.67 346.33 1302.86 357.378 1294.53C368.418 1286.21 370.621 1270.5 362.288 1259.45C353.957 1248.41 338.257 1246.21 327.216 1254.54C316.169 1262.87 313.974 1278.58 322.298 1289.62L322.291 1289.62Z" fill="url(#paint50_radial_31_8453)"/>
<path style="mix-blend-mode:color-dodge" fill-rule="evenodd" clip-rule="evenodd" d="M213.086 968.368C221.418 979.408 237.125 981.611 248.166 973.279C259.206 964.947 261.409 949.247 253.077 938.199C244.745 927.159 229.045 924.957 217.997 933.289C206.949 941.621 204.755 957.328 213.079 968.368L213.086 968.368Z" fill="url(#paint51_radial_31_8453)"/>
<path style="mix-blend-mode:color-dodge" fill-rule="evenodd" clip-rule="evenodd" d="M193.16 753.971C201.492 765.012 217.199 767.214 228.247 758.882C239.288 750.55 241.482 734.843 233.158 723.802C224.826 712.762 209.126 710.559 198.086 718.891C187.038 727.223 184.836 742.931 193.168 753.971L193.16 753.971Z" fill="url(#paint52_radial_31_8453)"/>
<defs>
<radialGradient id="paint0_radial_31_8453" cx="0" cy="0" r="1" gradientUnits="userSpaceOnUse" gradientTransform="translate(215.403 382.678) rotate(142.974) scale(9.66553 9.66552)">
<stop stop-color="white"/>
<stop offset="0.17" stop-color="#CCCCCC"/>
<stop offset="0.47" stop-color="#757575"/>
<stop offset="0.72" stop-color="#363636"/>
<stop offset="0.91" stop-color="#0E0E0E"/>
<stop offset="1"/>
</radialGradient>
<radialGradient id="paint1_radial_31_8453" cx="0" cy="0" r="1" gradientUnits="userSpaceOnUse" gradientTransform="translate(62.0301 349.935) rotate(142.974) scale(9.66553 9.66553)">
<stop stop-color="white"/>
<stop offset="0.17" stop-color="#CCCCCC"/>
<stop offset="0.47" stop-color="#757575"/>
<stop offset="0.72" stop-color="#363636"/>
<stop offset="0.91" stop-color="#0E0E0E"/>
<stop offset="1"/>
</radialGradient>
<radialGradient id="paint2_radial_31_8453" cx="0" cy="0" r="1" gradientUnits="userSpaceOnUse" gradientTransform="translate(54.9807 68.0491) rotate(142.974) scale(9.66553)">
<stop stop-color="white"/>
<stop offset="0.17" stop-color="#CCCCCC"/>
<stop offset="0.47" stop-color="#757575"/>
<stop offset="0.72" stop-color="#363636"/>
<stop offset="0.91" stop-color="#0E0E0E"/>
<stop offset="1"/>
</radialGradient>
<radialGradient id="paint3_radial_31_8453" cx="0" cy="0" r="1" gradientUnits="userSpaceOnUse" gradientTransform="translate(162.361 820.928) rotate(142.974) scale(9.66553)">
<stop stop-color="white"/>
<stop offset="0.17" stop-color="#CCCCCC"/>
<stop offset="0.47" stop-color="#757575"/>
<stop offset="0.72" stop-color="#363636"/>
<stop offset="0.91" stop-color="#0E0E0E"/>
<stop offset="1"/>
</radialGradient>
<radialGradient id="paint4_radial_31_8453" cx="0" cy="0" r="1" gradientUnits="userSpaceOnUse" gradientTransform="translate(328.999 930.857) rotate(142.974) scale(9.66553)">
<stop stop-color="white"/>
<stop offset="0.17" stop-color="#CCCCCC"/>
<stop offset="0.47" stop-color="#757575"/>
<stop offset="0.72" stop-color="#363636"/>
<stop offset="0.91" stop-color="#0E0E0E"/>
<stop offset="1"/>
</radialGradient>
<radialGradient id="paint5_radial_31_8453" cx="0" cy="0" r="1" gradientUnits="userSpaceOnUse" gradientTransform="translate(262.713 1005.05) rotate(142.974) scale(9.66552 9.66551)">
<stop stop-color="white"/>
<stop offset="0.17" stop-color="#CCCCCC"/>
<stop offset="0.47" stop-color="#757575"/>
<stop offset="0.72" stop-color="#363636"/>
<stop offset="0.91" stop-color="#0E0E0E"/>
<stop offset="1"/>
</radialGradient>
<radialGradient id="paint6_radial_31_8453" cx="0" cy="0" r="1" gradientUnits="userSpaceOnUse" gradientTransform="translate(377.123 1118.82) rotate(142.974) scale(9.66553)">
<stop stop-color="white"/>
<stop offset="0.17" stop-color="#CCCCCC"/>
<stop offset="0.47" stop-color="#757575"/>
<stop offset="0.72" stop-color="#363636"/>
<stop offset="0.91" stop-color="#0E0E0E"/>
<stop offset="1"/>
</radialGradient>
<radialGradient id="paint7_radial_31_8453" cx="0" cy="0" r="1" gradientUnits="userSpaceOnUse" gradientTransform="translate(208.179 910.606) rotate(142.974) scale(9.66553)">
<stop stop-color="white"/>
<stop offset="0.17" stop-color="#CCCCCC"/>
<stop offset="0.47" stop-color="#757575"/>
<stop offset="0.72" stop-color="#363636"/>
<stop offset="0.91" stop-color="#0E0E0E"/>
<stop offset="1"/>
</radialGradient>
<radialGradient id="paint8_radial_31_8453" cx="0" cy="0" r="1" gradientUnits="userSpaceOnUse" gradientTransform="translate(346.463 775.779) rotate(142.974) scale(9.66553)">
<stop stop-color="white"/>
<stop offset="0.17" stop-color="#CCCCCC"/>
<stop offset="0.47" stop-color="#757575"/>
<stop offset="0.72" stop-color="#363636"/>
<stop offset="0.91" stop-color="#0E0E0E"/>
<stop offset="1"/>
</radialGradient>
<radialGradient id="paint9_radial_31_8453" cx="0" cy="0" r="1" gradientUnits="userSpaceOnUse" gradientTransform="translate(300.644 748.562) rotate(142.974) scale(9.66553)">
<stop stop-color="white"/>
<stop offset="0.17" stop-color="#CCCCCC"/>
<stop offset="0.47" stop-color="#757575"/>
<stop offset="0.72" stop-color="#363636"/>
<stop offset="0.91" stop-color="#0E0E0E"/>
<stop offset="1"/>
</radialGradient>
<radialGradient id="paint10_radial_31_8453" cx="0" cy="0" r="1" gradientUnits="userSpaceOnUse" gradientTransform="translate(272.161 1388.59) rotate(142.974) scale(9.66553 9.66553)">
<stop stop-color="white"/>
<stop offset="0.17" stop-color="#CCCCCC"/>
<stop offset="0.47" stop-color="#757575"/>
<stop offset="0.72" stop-color="#363636"/>
<stop offset="0.91" stop-color="#0E0E0E"/>
<stop offset="1"/>
</radialGradient>
<radialGradient id="paint11_radial_31_8453" cx="0" cy="0" r="1" gradientUnits="userSpaceOnUse" gradientTransform="translate(385.019 660.909) rotate(142.974) scale(9.66553)">
<stop stop-color="white"/>
<stop offset="0.17" stop-color="#CCCCCC"/>
<stop offset="0.47" stop-color="#757575"/>
<stop offset="0.72" stop-color="#363636"/>
<stop offset="0.91" stop-color="#0E0E0E"/>
<stop offset="1"/>
</radialGradient>
<radialGradient id="paint12_radial_31_8453" cx="0" cy="0" r="1" gradientUnits="userSpaceOnUse" gradientTransform="translate(382.532 1185.35) rotate(142.174) scale(9.66553 9.66554)">
<stop stop-color="white"/>
<stop offset="0.17" stop-color="#CCCCCC"/>
<stop offset="0.47" stop-color="#757575"/>
<stop offset="0.72" stop-color="#363636"/>
<stop offset="0.91" stop-color="#0E0E0E"/>
<stop offset="1"/>
</radialGradient>
<radialGradient id="paint13_radial_31_8453" cx="0" cy="0" r="1" gradientUnits="userSpaceOnUse" gradientTransform="translate(422.941 1203.41) rotate(142.174) scale(9.66552 9.66552)">
<stop stop-color="white"/>
<stop offset="0.17" stop-color="#CCCCCC"/>
<stop offset="0.47" stop-color="#757575"/>
<stop offset="0.72" stop-color="#363636"/>
<stop offset="0.91" stop-color="#0E0E0E"/>
<stop offset="1"/>
</radialGradient>
<radialGradient id="paint14_radial_31_8453" cx="0" cy="0" r="1" gradientUnits="userSpaceOnUse" gradientTransform="translate(148.995 754.433) rotate(142.174) scale(9.66552 9.66552)">
<stop stop-color="white"/>
<stop offset="0.17" stop-color="#CCCCCC"/>
<stop offset="0.47" stop-color="#757575"/>
<stop offset="0.72" stop-color="#363636"/>
<stop offset="0.91" stop-color="#0E0E0E"/>
<stop offset="1"/>
</radialGradient>
<radialGradient id="paint15_radial_31_8453" cx="0" cy="0" r="1" gradientUnits="userSpaceOnUse" gradientTransform="translate(35.087 569.051) rotate(142.974) scale(9.66553)">
<stop stop-color="white"/>
<stop offset="0.17" stop-color="#CCCCCC"/>
<stop offset="0.47" stop-color="#757575"/>
<stop offset="0.72" stop-color="#363636"/>
<stop offset="0.91" stop-color="#0E0E0E"/>
<stop offset="1"/>
</radialGradient>
<radialGradient id="paint16_radial_31_8453" cx="0" cy="0" r="1" gradientUnits="userSpaceOnUse" gradientTransform="translate(315.419 829.726) rotate(142.974) scale(9.66553)">
<stop stop-color="white"/>
<stop offset="0.17" stop-color="#CCCCCC"/>
<stop offset="0.47" stop-color="#757575"/>
<stop offset="0.72" stop-color="#363636"/>
<stop offset="0.91" stop-color="#0E0E0E"/>
<stop offset="1"/>
</radialGradient>
<radialGradient id="paint17_radial_31_8453" cx="0" cy="0" r="1" gradientUnits="userSpaceOnUse" gradientTransform="translate(286.862 931.413) rotate(142.974) scale(9.66552 9.66551)">
<stop stop-color="white"/>
<stop offset="0.17" stop-color="#CCCCCC"/>
<stop offset="0.47" stop-color="#757575"/>
<stop offset="0.72" stop-color="#363636"/>
<stop offset="0.91" stop-color="#0E0E0E"/>
<stop offset="1"/>
</radialGradient>
<radialGradient id="paint18_radial_31_8453" cx="0" cy="0" r="1" gradientUnits="userSpaceOnUse" gradientTransform="translate(81.2145 707.759) rotate(142.974) scale(4.89093 4.89094)">
<stop stop-color="white"/>
<stop offset="0.17" stop-color="#CCCCCC"/>
<stop offset="0.47" stop-color="#757575"/>
<stop offset="0.72" stop-color="#363636"/>
<stop offset="0.91" stop-color="#0E0E0E"/>
<stop offset="1"/>
</radialGradient>
<radialGradient id="paint19_radial_31_8453" cx="0" cy="0" r="1" gradientUnits="userSpaceOnUse" gradientTransform="translate(137.146 515.554) rotate(142.974) scale(4.88361 4.88361)">
<stop stop-color="white"/>
<stop offset="0.17" stop-color="#CCCCCC"/>
<stop offset="0.47" stop-color="#757575"/>
<stop offset="0.72" stop-color="#363636"/>
<stop offset="0.91" stop-color="#0E0E0E"/>
<stop offset="1"/>
</radialGradient>
<radialGradient id="paint20_radial_31_8453" cx="0" cy="0" r="1" gradientUnits="userSpaceOnUse" gradientTransform="translate(216.518 648.057) rotate(142.974) scale(4.89092 4.89092)">
<stop stop-color="white"/>
<stop offset="0.17" stop-color="#CCCCCC"/>
<stop offset="0.47" stop-color="#757575"/>
<stop offset="0.72" stop-color="#363636"/>
<stop offset="0.91" stop-color="#0E0E0E"/>
<stop offset="1"/>
</radialGradient>
<radialGradient id="paint21_radial_31_8453" cx="0" cy="0" r="1" gradientUnits="userSpaceOnUse" gradientTransform="translate(174.001 865.312) rotate(142.974) scale(4.89092 4.89092)">
<stop stop-color="white"/>
<stop offset="0.17" stop-color="#CCCCCC"/>
<stop offset="0.47" stop-color="#757575"/>
<stop offset="0.72" stop-color="#363636"/>
<stop offset="0.91" stop-color="#0E0E0E"/>
<stop offset="1"/>
</radialGradient>
<radialGradient id="paint22_radial_31_8453" cx="0" cy="0" r="1" gradientUnits="userSpaceOnUse" gradientTransform="translate(227.267 980.831) rotate(142.974) scale(4.89093 4.89094)">
<stop stop-color="white"/>
<stop offset="0.17" stop-color="#CCCCCC"/>
<stop offset="0.47" stop-color="#757575"/>
<stop offset="0.72" stop-color="#363636"/>
<stop offset="0.91" stop-color="#0E0E0E"/>
<stop offset="1"/>
</radialGradient>
<radialGradient id="paint23_radial_31_8453" cx="0" cy="0" r="1" gradientUnits="userSpaceOnUse" gradientTransform="translate(202.4 1027.42) rotate(142.974) scale(4.89093 4.89094)">
<stop stop-color="white"/>
<stop offset="0.17" stop-color="#CCCCCC"/>
<stop offset="0.47" stop-color="#757575"/>
<stop offset="0.72" stop-color="#363636"/>
<stop offset="0.91" stop-color="#0E0E0E"/>
<stop offset="1"/>
</radialGradient>
<radialGradient id="paint24_radial_31_8453" cx="0" cy="0" r="1" gradientUnits="userSpaceOnUse" gradientTransform="translate(22.5676 866.435) rotate(142.974) scale(4.89092 4.89092)">
<stop stop-color="white"/>
<stop offset="0.17" stop-color="#CCCCCC"/>
<stop offset="0.47" stop-color="#757575"/>
<stop offset="0.72" stop-color="#363636"/>
<stop offset="0.91" stop-color="#0E0E0E"/>
<stop offset="1"/>
</radialGradient>
<radialGradient id="paint25_radial_31_8453" cx="0" cy="0" r="1" gradientUnits="userSpaceOnUse" gradientTransform="translate(394.252 1217.18) rotate(142.974) scale(4.89093 4.89094)">
<stop stop-color="white"/>
<stop offset="0.17" stop-color="#CCCCCC"/>
<stop offset="0.47" stop-color="#757575"/>
<stop offset="0.72" stop-color="#363636"/>
<stop offset="0.91" stop-color="#0E0E0E"/>
<stop offset="1"/>
</radialGradient>
<radialGradient id="paint26_radial_31_8453" cx="0" cy="0" r="1" gradientUnits="userSpaceOnUse" gradientTransform="translate(270.546 1154.76) rotate(142.974) scale(4.88361 4.88361)">
<stop stop-color="white"/>
<stop offset="0.17" stop-color="#CCCCCC"/>
<stop offset="0.47" stop-color="#757575"/>
<stop offset="0.72" stop-color="#363636"/>
<stop offset="0.91" stop-color="#0E0E0E"/>
<stop offset="1"/>
</radialGradient>
<radialGradient id="paint27_radial_31_8453" cx="0" cy="0" r="1" gradientUnits="userSpaceOnUse" gradientTransform="translate(419.545 1144.92) rotate(142.974) scale(4.88361 4.88361)">
<stop stop-color="white"/>
<stop offset="0.17" stop-color="#CCCCCC"/>
<stop offset="0.47" stop-color="#757575"/>
<stop offset="0.72" stop-color="#363636"/>
<stop offset="0.91" stop-color="#0E0E0E"/>
<stop offset="1"/>
</radialGradient>
<radialGradient id="paint28_radial_31_8453" cx="0" cy="0" r="1" gradientUnits="userSpaceOnUse" gradientTransform="translate(293.08 999.697) rotate(142.974) scale(4.89093 4.89094)">
<stop stop-color="white"/>
<stop offset="0.17" stop-color="#CCCCCC"/>
<stop offset="0.47" stop-color="#757575"/>
<stop offset="0.72" stop-color="#363636"/>
<stop offset="0.91" stop-color="#0E0E0E"/>
<stop offset="1"/>
</radialGradient>
<radialGradient id="paint29_radial_31_8453" cx="0" cy="0" r="1" gradientUnits="userSpaceOnUse" gradientTransform="translate(300.039 1387.25) rotate(142.974) scale(4.89093 4.89094)">
<stop stop-color="white"/>
<stop offset="0.17" stop-color="#CCCCCC"/>
<stop offset="0.47" stop-color="#757575"/>
<stop offset="0.72" stop-color="#363636"/>
<stop offset="0.91" stop-color="#0E0E0E"/>
<stop offset="1"/>
</radialGradient>
<radialGradient id="paint30_radial_31_8453" cx="0" cy="0" r="1" gradientUnits="userSpaceOnUse" gradientTransform="translate(301.954 1095.73) rotate(142.974) scale(4.89093 4.89094)">
<stop stop-color="white"/>
<stop offset="0.17" stop-color="#CCCCCC"/>
<stop offset="0.47" stop-color="#757575"/>
<stop offset="0.72" stop-color="#363636"/>
<stop offset="0.91" stop-color="#0E0E0E"/>
<stop offset="1"/>
</radialGradient>
<radialGradient id="paint31_radial_31_8453" cx="0" cy="0" r="1" gradientUnits="userSpaceOnUse" gradientTransform="translate(262.112 942.447) rotate(137.194) scale(4.89091 4.89091)">
<stop stop-color="white"/>
<stop offset="0.17" stop-color="#CCCCCC"/>
<stop offset="0.47" stop-color="#757575"/>
<stop offset="0.72" stop-color="#363636"/>
<stop offset="0.91" stop-color="#0E0E0E"/>
<stop offset="1"/>
</radialGradient>
<radialGradient id="paint32_radial_31_8453" cx="0" cy="0" r="1" gradientUnits="userSpaceOnUse" gradientTransform="translate(363.279 356.195) rotate(137.194) scale(4.89093 4.89094)">
<stop stop-color="white"/>
<stop offset="0.17" stop-color="#CCCCCC"/>
<stop offset="0.47" stop-color="#757575"/>
<stop offset="0.72" stop-color="#363636"/>
<stop offset="0.91" stop-color="#0E0E0E"/>
<stop offset="1"/>
</radialGradient>
<radialGradient id="paint33_radial_31_8453" cx="0" cy="0" r="1" gradientUnits="userSpaceOnUse" gradientTransform="translate(393.592 525.007) rotate(137.194) scale(4.89092 4.89091)">
<stop stop-color="white"/>
<stop offset="0.17" stop-color="#CCCCCC"/>
<stop offset="0.47" stop-color="#757575"/>
<stop offset="0.72" stop-color="#363636"/>
<stop offset="0.91" stop-color="#0E0E0E"/>
<stop offset="1"/>
</radialGradient>
<radialGradient id="paint34_radial_31_8453" cx="0" cy="0" r="1" gradientUnits="userSpaceOnUse" gradientTransform="translate(234.429 196.537) rotate(137.194) scale(4.89094 4.89094)">
<stop stop-color="white"/>
<stop offset="0.17" stop-color="#CCCCCC"/>
<stop offset="0.47" stop-color="#757575"/>
<stop offset="0.72" stop-color="#363636"/>
<stop offset="0.91" stop-color="#0E0E0E"/>
<stop offset="1"/>
</radialGradient>
<radialGradient id="paint35_radial_31_8453" cx="0" cy="0" r="1" gradientUnits="userSpaceOnUse" gradientTransform="translate(223.659 11.5473) rotate(137.194) scale(4.89093 4.89094)">
<stop stop-color="white"/>
<stop offset="0.17" stop-color="#CCCCCC"/>
<stop offset="0.47" stop-color="#757575"/>
<stop offset="0.72" stop-color="#363636"/>
<stop offset="0.91" stop-color="#0E0E0E"/>
<stop offset="1"/>
</radialGradient>
<radialGradient id="paint36_radial_31_8453" cx="0" cy="0" r="1" gradientUnits="userSpaceOnUse" gradientTransform="translate(413.121 1104.88) rotate(137.194) scale(4.89092 4.89091)">
<stop stop-color="white"/>
<stop offset="0.17" stop-color="#CCCCCC"/>
<stop offset="0.47" stop-color="#757575"/>
<stop offset="0.72" stop-color="#363636"/>
<stop offset="0.91" stop-color="#0E0E0E"/>
<stop offset="1"/>
</radialGradient>
<radialGradient id="paint37_radial_31_8453" cx="0" cy="0" r="1" gradientUnits="userSpaceOnUse" gradientTransform="translate(289.491 955.661) rotate(137.194) scale(4.89096 4.89097)">
<stop stop-color="white"/>
<stop offset="0.17" stop-color="#CCCCCC"/>
<stop offset="0.47" stop-color="#757575"/>
<stop offset="0.72" stop-color="#363636"/>
<stop offset="0.91" stop-color="#0E0E0E"/>
<stop offset="1"/>
</radialGradient>
<radialGradient id="paint38_radial_31_8453" cx="0" cy="0" r="1" gradientUnits="userSpaceOnUse" gradientTransform="translate(412.129 1248.54) rotate(137.194) scale(4.89092 4.89091)">
<stop stop-color="white"/>
<stop offset="0.17" stop-color="#CCCCCC"/>
<stop offset="0.47" stop-color="#757575"/>
<stop offset="0.72" stop-color="#363636"/>
<stop offset="0.91" stop-color="#0E0E0E"/>
<stop offset="1"/>
</radialGradient>
<radialGradient id="paint39_radial_31_8453" cx="0" cy="0" r="1" gradientUnits="userSpaceOnUse" gradientTransform="translate(333.406 1335.89) rotate(137.194) scale(4.89092 4.89091)">
<stop stop-color="white"/>
<stop offset="0.17" stop-color="#CCCCCC"/>
<stop offset="0.47" stop-color="#757575"/>
<stop offset="0.72" stop-color="#363636"/>
<stop offset="0.91" stop-color="#0E0E0E"/>
<stop offset="1"/>
</radialGradient>
<radialGradient id="paint40_radial_31_8453" cx="0" cy="0" r="1" gradientUnits="userSpaceOnUse" gradientTransform="translate(299.195 1358.67) rotate(137.194) scale(4.89095 4.89096)">
<stop stop-color="white"/>
<stop offset="0.17" stop-color="#CCCCCC"/>
<stop offset="0.47" stop-color="#757575"/>
<stop offset="0.72" stop-color="#363636"/>
<stop offset="0.91" stop-color="#0E0E0E"/>
<stop offset="1"/>
</radialGradient>
<radialGradient id="paint41_radial_31_8453" cx="0" cy="0" r="1" gradientUnits="userSpaceOnUse" gradientTransform="translate(361.219 1175.28) rotate(137.194) scale(4.89092 4.89091)">
<stop stop-color="white"/>
<stop offset="0.17" stop-color="#CCCCCC"/>
<stop offset="0.47" stop-color="#757575"/>
<stop offset="0.72" stop-color="#363636"/>
<stop offset="0.91" stop-color="#0E0E0E"/>
<stop offset="1"/>
</radialGradient>
<radialGradient id="paint42_radial_31_8453" cx="0" cy="0" r="1" gradientUnits="userSpaceOnUse" gradientTransform="translate(306.847 1312.88) rotate(137.194) scale(4.89092 4.89091)">
<stop stop-color="white"/>
<stop offset="0.17" stop-color="#CCCCCC"/>
<stop offset="0.47" stop-color="#757575"/>
<stop offset="0.72" stop-color="#363636"/>
<stop offset="0.91" stop-color="#0E0E0E"/>
<stop offset="1"/>
</radialGradient>
<radialGradient id="paint43_radial_31_8453" cx="0" cy="0" r="1" gradientUnits="userSpaceOnUse" gradientTransform="translate(289.203 864.575) rotate(137.194) scale(4.89096 4.89097)">
<stop stop-color="white"/>
<stop offset="0.17" stop-color="#CCCCCC"/>
<stop offset="0.47" stop-color="#757575"/>
<stop offset="0.72" stop-color="#363636"/>
<stop offset="0.91" stop-color="#0E0E0E"/>
<stop offset="1"/>
</radialGradient>
<radialGradient id="paint44_radial_31_8453" cx="0" cy="0" r="1" gradientUnits="userSpaceOnUse" gradientTransform="translate(323.316 885.014) rotate(142.974) scale(25.0485 25.0485)">
<stop stop-color="white"/>
<stop offset="0.17" stop-color="#CCCCCC"/>
<stop offset="0.47" stop-color="#757575"/>
<stop offset="0.72" stop-color="#363636"/>
<stop offset="0.91" stop-color="#0E0E0E"/>
<stop offset="1"/>
</radialGradient>
<radialGradient id="paint45_radial_31_8453" cx="0" cy="0" r="1" gradientUnits="userSpaceOnUse" gradientTransform="translate(361.885 764.132) rotate(142.974) scale(25.0485 25.0485)">
<stop stop-color="white"/>
<stop offset="0.17" stop-color="#CCCCCC"/>
<stop offset="0.47" stop-color="#757575"/>
<stop offset="0.72" stop-color="#363636"/>
<stop offset="0.91" stop-color="#0E0E0E"/>
<stop offset="1"/>
</radialGradient>
<radialGradient id="paint46_radial_31_8453" cx="0" cy="0" r="1" gradientUnits="userSpaceOnUse" gradientTransform="translate(334.147 1071.46) rotate(142.974) scale(25.0485 25.0485)">
<stop stop-color="white"/>
<stop offset="0.17" stop-color="#CCCCCC"/>
<stop offset="0.47" stop-color="#757575"/>
<stop offset="0.72" stop-color="#363636"/>
<stop offset="0.91" stop-color="#0E0E0E"/>
<stop offset="1"/>
</radialGradient>
<radialGradient id="paint47_radial_31_8453" cx="0" cy="0" r="1" gradientUnits="userSpaceOnUse" gradientTransform="translate(40.0369 782.142) rotate(142.974) scale(25.0485 25.0485)">
<stop stop-color="white"/>
<stop offset="0.17" stop-color="#CCCCCC"/>
<stop offset="0.47" stop-color="#757575"/>
<stop offset="0.72" stop-color="#363636"/>
<stop offset="0.91" stop-color="#0E0E0E"/>
<stop offset="1"/>
</radialGradient>
<radialGradient id="paint48_radial_31_8453" cx="0" cy="0" r="1" gradientUnits="userSpaceOnUse" gradientTransform="translate(299.631 503.411) rotate(142.974) scale(25.0485 25.0485)">
<stop stop-color="white"/>
<stop offset="0.17" stop-color="#CCCCCC"/>
<stop offset="0.47" stop-color="#757575"/>
<stop offset="0.72" stop-color="#363636"/>
<stop offset="0.91" stop-color="#0E0E0E"/>
<stop offset="1"/>
</radialGradient>
<radialGradient id="paint49_radial_31_8453" cx="0" cy="0" r="1" gradientUnits="userSpaceOnUse" gradientTransform="translate(222.73 1100.91) rotate(142.974) scale(25.0485 25.0485)">
<stop stop-color="white"/>
<stop offset="0.17" stop-color="#CCCCCC"/>
<stop offset="0.47" stop-color="#757575"/>
<stop offset="0.72" stop-color="#363636"/>
<stop offset="0.91" stop-color="#0E0E0E"/>
<stop offset="1"/>
</radialGradient>
<radialGradient id="paint50_radial_31_8453" cx="0" cy="0" r="1" gradientUnits="userSpaceOnUse" gradientTransform="translate(342.223 1274.58) rotate(142.974) scale(25.0485 25.0485)">
<stop stop-color="white"/>
<stop offset="0.17" stop-color="#CCCCCC"/>
<stop offset="0.47" stop-color="#757575"/>
<stop offset="0.72" stop-color="#363636"/>
<stop offset="0.91" stop-color="#0E0E0E"/>
<stop offset="1"/>
</radialGradient>
<radialGradient id="paint51_radial_31_8453" cx="0" cy="0" r="1" gradientUnits="userSpaceOnUse" gradientTransform="translate(233.031 953.316) rotate(142.974) scale(25.0485 25.0485)">
<stop stop-color="white"/>
<stop offset="0.17" stop-color="#CCCCCC"/>
<stop offset="0.47" stop-color="#757575"/>
<stop offset="0.72" stop-color="#363636"/>
<stop offset="0.91" stop-color="#0E0E0E"/>
<stop offset="1"/>
</radialGradient>
<radialGradient id="paint52_radial_31_8453" cx="0" cy="0" r="1" gradientUnits="userSpaceOnUse" gradientTransform="translate(213.115 738.921) rotate(142.974) scale(25.0485 25.0485)">
<stop stop-color="white"/>
<stop offset="0.17" stop-color="#CCCCCC"/>
<stop offset="0.47" stop-color="#757575"/>
<stop offset="0.72" stop-color="#363636"/>
<stop offset="0.91" stop-color="#0E0E0E"/>
<stop offset="1"/>
</radialGradient>
</defs>
</svg>
